<svg width="35" height="34" viewBox="0 0 35 34" fill="none" xmlns="http://www.w3.org/2000/svg">
<g clip-path="url(#clip0_326_1419)">
<path d="M21.5415 9.04218L21.5415 9.0422C22.0311 8.90251 22.5379 8.83212 23.0471 8.83308M21.5415 9.04218L31.1644 26.97L31.4489 26.7695C31.4488 26.7694 31.4487 26.7693 31.4486 26.7691C30.4995 25.4228 29.2412 24.3238 27.7793 23.5647C26.3172 22.8054 24.6943 22.4082 23.0469 22.4064H23.0465C22.7234 22.4064 22.4136 22.2781 22.1851 22.0497C21.9567 21.8212 21.8284 21.5114 21.8284 21.1883C21.8284 20.8652 21.9567 20.5554 22.1851 20.327C22.4136 20.0985 22.7234 19.9702 23.0465 19.9702C24.5234 19.9702 25.9397 19.3835 26.984 18.3392C28.0284 17.2949 28.615 15.8785 28.615 14.4016C28.615 12.9248 28.0284 11.5084 26.984 10.4641C25.9399 9.41992 24.5238 8.83325 23.0471 8.83308M21.5415 9.04218L21.5375 9.04337M21.5415 9.04218L21.5375 9.04337M23.0471 8.83308L23.0465 9.18061V8.83308C23.0467 8.83308 23.0469 8.83308 23.0471 8.83308ZM21.5375 9.04337C21.3826 9.08955 21.2202 9.10447 21.0595 9.08727C20.8989 9.07006 20.7433 9.02106 20.6017 8.94314C20.4602 8.86521 20.3356 8.75991 20.2352 8.63336C20.1347 8.50681 20.0604 8.36154 20.0167 8.20602C19.9729 8.05049 19.9605 7.88782 19.9802 7.72746C20 7.56711 20.0514 7.41227 20.1315 7.27197C20.2116 7.13168 20.3188 7.00872 20.4469 6.91027C20.575 6.81181 20.7215 6.73982 20.8776 6.69849L20.8777 6.69855M21.5375 9.04337L20.8777 6.69855M20.8777 6.69855L20.8839 6.69677M20.8777 6.69855L20.8839 6.69677M20.8839 6.69677C21.5871 6.49658 22.3148 6.39562 23.0459 6.39684L23.0475 6.39684M20.8839 6.69677L23.0475 6.39684M23.0475 6.39684C24.6904 6.39206 26.2948 6.89373 27.6423 7.83352C28.9898 8.77331 30.015 10.1056 30.5782 11.6489C31.1414 13.1922 31.2153 14.8716 30.7897 16.4584C30.3642 18.0452 29.46 19.4624 28.2002 20.5168L27.7754 20.8724M23.0475 6.39684L27.7754 20.8724M27.7754 20.8724L28.2801 21.1008M27.7754 20.8724L28.2801 21.1008M28.2801 21.1008C30.3497 22.0374 32.1307 23.5113 33.4378 25.3692L33.4393 25.3714M28.2801 21.1008L33.4393 25.3714M33.4393 25.3714C33.5322 25.5013 33.5983 25.6484 33.6339 25.8041C33.6694 25.9598 33.6736 26.121 33.6463 26.2784C33.619 26.4357 33.5606 26.5861 33.4747 26.7207C33.3888 26.8553 33.2769 26.9715 33.1456 27.0625L33.1456 27.0625M33.4393 25.3714L33.1456 27.0625M33.1456 27.0625L33.1416 27.0654M33.1456 27.0625L33.1416 27.0654M33.1416 27.0654C32.9384 27.2106 32.6948 27.2883 32.445 27.2876L33.1416 27.0654ZM17.5628 20.5174L17.14 20.873L17.6433 21.1008C19.7129 22.0374 21.4939 23.5113 22.801 25.3692L22.806 25.3763L22.8113 25.3831C22.9128 25.5132 22.9869 25.6626 23.0289 25.8221C23.071 25.9817 23.0802 26.1482 23.056 26.3114C23.0318 26.4746 22.9746 26.6312 22.8881 26.7717C22.8015 26.9122 22.6873 27.0336 22.5523 27.1286C22.4174 27.2236 22.2646 27.2902 22.1031 27.3244C21.9417 27.3585 21.775 27.3595 21.6131 27.3273C21.4513 27.2951 21.2977 27.2303 21.1616 27.1369C21.0256 27.0435 20.9099 26.9234 20.8217 26.7839L20.8172 26.7769L20.8124 26.7701C19.8653 25.421 18.6072 24.3199 17.1447 23.5597C15.6821 22.7995 14.058 22.4027 12.4097 22.4027C10.7613 22.4027 9.13725 22.7995 7.67468 23.5597C6.21212 24.3199 4.95408 25.421 4.00692 26.7701L4.00614 26.7712C3.8948 26.9311 3.74634 27.0616 3.5735 27.1515C3.40065 27.2415 3.20858 27.2882 3.01373 27.2876L3.0116 27.2876C2.7617 27.2884 2.51787 27.2107 2.31457 27.0654L2.3129 27.0642C2.04939 26.8782 1.87041 26.5952 1.81522 26.2775C1.76004 25.9597 1.83313 25.633 2.01845 25.3691C3.32554 23.5112 5.10645 22.0374 7.17602 21.1008L7.67933 20.873L7.25658 20.5174C6.00015 19.4604 5.09913 18.0427 4.67568 16.4563C4.25222 14.87 4.32681 13.1918 4.88934 11.6493C5.45187 10.1068 6.47512 8.77457 7.82036 7.83325C9.16561 6.89192 10.7678 6.38704 12.4097 6.38704C14.0516 6.38704 15.6537 6.89192 16.999 7.83325C18.3442 8.77457 19.3675 10.1068 19.93 11.6493C20.4925 13.1918 20.5671 14.87 20.1437 16.4563C19.7202 18.0427 18.8192 19.4604 17.5628 20.5174ZM7.77958 11.3079C7.1677 12.2237 6.84111 13.3003 6.84111 14.4016C6.84111 15.8785 7.4278 17.2949 8.4721 18.3392C9.51641 19.3835 10.9328 19.9702 12.4097 19.9702C13.511 19.9702 14.5876 19.6436 15.5034 19.0317C16.4191 18.4198 17.1329 17.5502 17.5543 16.5326C17.9758 15.5151 18.0861 14.3955 17.8712 13.3153C17.6564 12.2351 17.126 11.2428 16.3472 10.4641C15.5685 9.6853 14.5762 9.15494 13.496 8.94008C12.4158 8.72521 11.2962 8.83549 10.2787 9.25696C9.26115 9.67843 8.39146 10.3922 7.77958 11.3079Z" fill="#4CAF4F" stroke="#4CAF4F" stroke-width="0.696069"/>
</g>
<defs>
<clipPath id="clip0_326_1419">
<rect width="33.4113" height="33.4113" fill="white" transform="translate(0.924561 0.306213)"/>
</clipPath>
</defs>
</svg>
