<svg width="35" height="34" viewBox="0 0 35 34" fill="none" xmlns="http://www.w3.org/2000/svg">
<path d="M28.7674 29.3839V26.5996C28.7674 25.1227 28.1807 23.7063 27.1364 22.662C26.0921 21.6177 24.6757 21.031 23.1988 21.031H21.8067C21.4375 21.031 21.0834 20.8844 20.8223 20.6233C20.5612 20.3622 20.4146 20.0081 20.4146 19.6389V12.6782C20.4146 11.9398 20.1212 11.2316 19.5991 10.7094C19.0769 10.1873 18.3687 9.89393 17.6303 9.89393C16.8918 9.89393 16.1836 10.1873 15.6615 10.7094C15.1393 11.2316 14.846 11.9398 14.846 12.6782V25.2075L11.5049 20.7526C11.2455 20.4068 10.9092 20.1262 10.5226 19.9329C10.136 19.7395 9.70969 19.6389 9.27744 19.6389H8.67325C7.46905 19.6389 6.49316 20.6148 6.49316 21.819C6.49316 22.2144 6.60036 22.6028 6.80361 22.9411L10.6696 29.3839M17.6303 5.71752V4.32538V5.71752ZM25.9831 14.0704H27.3752H25.9831ZM7.8853 14.0704H9.27744H7.8853ZM11.1471 7.58716L10.1628 6.60292L11.1471 7.58716ZM24.1135 7.58716L25.0977 6.60292L24.1135 7.58716Z" fill="#4CAF4F"/>
<path d="M28.7674 29.3839V26.5996C28.7674 25.1227 28.1807 23.7063 27.1364 22.662C26.0921 21.6177 24.6757 21.031 23.1988 21.031H21.8067C21.4375 21.031 21.0834 20.8844 20.8223 20.6233C20.5612 20.3622 20.4146 20.0081 20.4146 19.6389V12.6782C20.4146 11.9398 20.1212 11.2316 19.5991 10.7094C19.0769 10.1873 18.3687 9.89393 17.6303 9.89393V9.89393C16.8918 9.89393 16.1836 10.1873 15.6615 10.7094C15.1393 11.2316 14.846 11.9398 14.846 12.6782V25.2075L11.5049 20.7526C11.2455 20.4068 10.9092 20.1262 10.5226 19.9329C10.136 19.7395 9.70969 19.6389 9.27744 19.6389H8.67325C7.46905 19.6389 6.49316 20.6148 6.49316 21.819C6.49316 22.2144 6.60036 22.6028 6.80361 22.9411L10.6696 29.3839M17.6303 5.71752V4.32538M25.9831 14.0704H27.3752M7.8853 14.0704H9.27744M11.1471 7.58716L10.1628 6.60292M24.1135 7.58716L25.0977 6.60292" stroke="#4CAF4F" stroke-width="1.39214" stroke-linecap="round" stroke-linejoin="round"/>
</svg>
