<svg width="805" height="70" viewBox="0 0 805 70" fill="none" xmlns="http://www.w3.org/2000/svg">
<g clip-path="url(#clip0_326_1132)">
<path fill-rule="evenodd" clip-rule="evenodd" d="M9.97901 21.1499C13.8233 21.1499 16.9397 24.2663 16.9397 28.1106V21.1499H23.9004C27.7446 21.1499 30.8611 24.2663 30.8611 28.1106C30.8611 31.9549 27.7446 35.0713 23.9004 35.0713C27.7446 35.0713 30.8611 38.1877 30.8611 42.032C30.8611 43.9408 30.0927 45.6702 28.8484 46.9277L28.8224 46.954L28.7993 46.9769C27.5415 48.223 25.8108 48.9927 23.9004 48.9927C22.003 48.9927 20.2829 48.2335 19.0272 47.0023C19.0109 46.9863 18.9946 46.9701 18.9784 46.954C18.9632 46.9387 18.948 46.9234 18.9329 46.908C17.7001 45.6522 16.9397 43.9309 16.9397 42.032C16.9397 45.8762 13.8233 48.9927 9.97901 48.9927C6.13472 48.9927 3.01831 45.8762 3.01831 42.032V35.0713H9.97901C6.13472 35.0713 3.01831 31.9549 3.01831 28.1106C3.01831 24.2663 6.13472 21.1499 9.97901 21.1499ZM15.5476 28.1106C15.5476 31.186 13.0544 33.6792 9.97901 33.6792V22.542C13.0544 22.542 15.5476 25.0352 15.5476 28.1106ZM29.469 42.032C29.469 38.9566 26.9758 36.4634 23.9004 36.4634C20.825 36.4634 18.3318 38.9566 18.3318 42.032H29.469ZM4.41045 36.4634V42.032C4.41045 45.1074 6.90358 47.6005 9.97901 47.6005C13.0544 47.6005 15.5476 45.1074 15.5476 42.032V36.4634H4.41045ZM18.3318 33.6792V22.542H23.9004C26.9758 22.542 29.469 25.0352 29.469 28.1106C29.469 31.186 26.9758 33.6792 23.9004 33.6792H18.3318Z" fill="#263238"/>
</g>
<g clip-path="url(#clip1_326_1132)">
<path fill-rule="evenodd" clip-rule="evenodd" d="M138.046 28.0837L131.095 34.9647C132.485 36.341 134.074 37.5009 135.805 38.4084C136.284 39.6652 137.034 40.8439 138.056 41.8554C141.9 45.661 148.133 45.661 151.977 41.8554C152.999 40.8439 153.749 39.6652 154.228 38.4083C155.959 37.5009 157.548 36.341 158.938 34.9647L151.993 28.0893C151.988 28.0842 151.982 28.0791 151.977 28.0739C148.133 24.2683 141.9 24.2683 138.056 28.0739C138.052 28.0772 138.049 28.0805 138.046 28.0837ZM151.312 39.6498C149.287 40.3266 147.16 40.6731 145.016 40.6731C142.873 40.6731 140.747 40.3266 138.721 39.6498C138.94 39.9381 139.183 40.2147 139.448 40.4773C142.523 43.5218 147.51 43.5218 150.585 40.4773C150.85 40.2147 151.093 39.9381 151.312 39.6498ZM139.591 29.3142C140.113 29.6558 140.668 29.9481 141.249 30.1864C142.444 30.6761 143.724 30.9282 145.016 30.9282C146.309 30.9282 147.589 30.6761 148.784 30.1864C149.365 29.9481 149.92 29.6558 150.442 29.3142C147.405 26.4535 142.628 26.4535 139.591 29.3142Z" fill="#3B4158"/>
</g>
<g clip-path="url(#clip2_326_1132)">
<path d="M292.58 31.9504C292.584 31.9214 292.584 31.8921 292.58 31.863C292.584 31.8394 292.584 31.8153 292.58 31.7916L292.297 29.7502C292.256 29.506 292.146 29.2778 291.981 29.091L291.932 29.0354L291.843 28.948L286.933 24.8018L287.071 24.9369C286.958 24.8047 286.817 24.699 286.657 24.6275C286.497 24.556 286.323 24.5206 286.147 24.5238H284.657C284.414 24.5191 284.177 24.5947 283.984 24.7383C283.781 24.5955 283.537 24.5204 283.287 24.5238H281.797C281.601 24.5207 281.408 24.5683 281.237 24.6617C281.067 24.7552 280.924 24.8912 280.824 25.056C280.67 25.2914 280.612 25.575 280.662 25.8503L280.849 27.137C280.725 27.0684 280.585 27.0328 280.444 27.0338H273.225C272.966 27.0354 272.713 27.1098 272.495 27.2482C272.285 27.3771 272.117 27.5616 272.009 27.7804L271.45 27.3118C271.23 27.1122 270.94 27.004 270.64 27.01H259.314C259.054 27.0146 258.8 27.0858 258.576 27.2165C258.271 27.3917 258.047 27.6766 257.952 28.0108L254.355 39.806C254.288 40.0003 254.281 40.2099 254.336 40.408C254.391 40.606 254.505 40.7836 254.663 40.918C254.704 40.9522 254.748 40.9841 254.793 41.0133C254.793 41.0133 254.72 40.9656 254.679 40.9259L259.589 45.08C259.797 45.2675 260.068 45.3723 260.351 45.3739H271.766C272.027 45.3673 272.281 45.2933 272.504 45.1595C272.629 45.0921 272.742 45.0034 272.836 44.8973L272.876 44.8417L272.941 44.7623L272.99 44.6749L273.524 45.1277C273.729 45.3077 273.995 45.4067 274.27 45.4057H285.71C285.97 45.3972 286.224 45.3234 286.447 45.1912C286.57 45.1198 286.682 45.0315 286.779 44.9291L286.82 44.8735L286.885 44.7941C286.919 44.7438 286.949 44.6907 286.974 44.6352C287 44.5871 287.022 44.5365 287.038 44.4843L290.32 33.7138V33.6184C290.324 33.5815 290.324 33.5442 290.32 33.5072V33.4358C290.324 33.4121 290.324 33.388 290.32 33.3643C290.323 33.314 290.323 33.2636 290.32 33.2133H291.373C291.465 33.2216 291.557 33.2216 291.648 33.2133H291.721C291.781 33.196 291.838 33.172 291.892 33.1419H291.973L292.118 33.0307L292.183 32.983L292.297 32.84V32.7924L292.378 32.6573C292.373 32.6311 292.373 32.6042 292.378 32.5779C292.373 32.5651 292.373 32.5511 292.378 32.5382C292.395 32.4917 292.408 32.4438 292.418 32.3952C292.414 32.3796 292.414 32.3632 292.418 32.3476C292.414 32.3239 292.414 32.2997 292.418 32.2761C292.418 32.2761 292.58 31.9663 292.58 31.9504Z" fill="black"/>
<path d="M270.972 27.9155C271.015 27.9536 271.045 28.0037 271.058 28.0591C271.072 28.1145 271.067 28.1725 271.045 28.2252L267.456 40.0125C267.411 40.1412 267.318 40.2488 267.197 40.3144C267.098 40.3792 266.983 40.4176 266.865 40.4256H255.457C255.36 40.421 255.267 40.3814 255.198 40.3144C255.156 40.2768 255.127 40.2281 255.114 40.1743C255.101 40.1206 255.105 40.0642 255.125 40.0125L258.722 28.2252C258.764 28.0949 258.853 27.9845 258.973 27.9155C259.074 27.8552 259.188 27.8198 259.306 27.8122H270.713C270.81 27.8131 270.902 27.85 270.972 27.9155ZM265.017 37.6376L267.164 30.6002H261.153L259.014 37.6376H265.017ZM281.861 28.0346C281.9 28.079 281.949 28.1141 282.004 28.1375C282.058 28.1609 282.118 28.1719 282.177 28.1696H283.66C283.716 28.1702 283.772 28.1566 283.822 28.1302C283.871 28.1038 283.913 28.0654 283.944 28.0187C283.97 27.9822 283.989 27.9409 283.998 27.8973C284.008 27.8536 284.009 27.8085 284 27.7646L283.709 25.6676C283.681 25.5706 283.631 25.481 283.563 25.4055C283.524 25.3612 283.475 25.326 283.421 25.3026C283.366 25.2793 283.306 25.2683 283.247 25.2705H281.764C281.708 25.27 281.652 25.2835 281.602 25.3099C281.553 25.3363 281.511 25.3747 281.481 25.4214C281.424 25.5326 281.4 25.6041 281.424 25.6676L281.724 27.7646C281.739 27.8667 281.787 27.9613 281.861 28.0346ZM286.569 25.6518C286.541 25.5547 286.491 25.4651 286.423 25.3896C286.386 25.3455 286.338 25.3103 286.285 25.2869C286.232 25.2635 286.173 25.2524 286.115 25.2546H284.624C284.569 25.2531 284.514 25.2663 284.465 25.2928C284.417 25.3194 284.376 25.3583 284.349 25.4055C284.295 25.476 284.271 25.5645 284.284 25.6518L284.584 27.7487C284.602 27.8497 284.65 27.9434 284.721 28.0187C284.761 28.0622 284.81 28.0968 284.864 28.1201C284.919 28.1434 284.978 28.1549 285.037 28.1538H286.528C286.584 28.1545 286.638 28.1409 286.686 28.1144C286.735 28.0879 286.775 28.0495 286.804 28.0028C286.832 27.9673 286.851 27.926 286.861 27.8821C286.871 27.8381 286.871 27.7925 286.86 27.7487L286.569 25.6518ZM280.557 28.8289L280.411 27.7963H273.225C273.112 27.8024 273.003 27.8381 272.909 27.8996C272.849 27.9315 272.797 27.9757 272.757 28.0292C272.716 28.0827 272.688 28.1441 272.674 28.2094L272.074 30.1792C272.05 30.2284 272.042 30.2836 272.051 30.3375C272.059 30.3914 272.085 30.4414 272.123 30.481C272.191 30.544 272.28 30.5807 272.374 30.5843H281.108L278.961 37.6217H270.251C270.139 37.6242 270.03 37.6572 269.935 37.717C269.821 37.7884 269.737 37.8987 269.7 38.0268L269.093 39.9966C269.073 40.0472 269.068 40.1021 269.078 40.1553C269.088 40.2086 269.112 40.2581 269.149 40.2984C269.216 40.3656 269.305 40.4054 269.401 40.4096H280.841C280.959 40.3997 281.073 40.3615 281.173 40.2984C281.292 40.2326 281.382 40.1247 281.424 39.9966L284.713 29.2261H281.011C280.952 29.2272 280.894 29.2165 280.839 29.1946C280.785 29.1728 280.736 29.1402 280.695 29.099C280.628 29.0269 280.58 28.9395 280.557 28.8448V28.8289Z" fill="white"/>
</g>
<g clip-path="url(#clip3_326_1132)">
<path d="M415.785 27.701C415.785 27.7245 415.785 27.7539 415.779 27.7716C415.748 28.001 415.748 28.2305 415.767 28.4659C415.779 28.5247 415.791 28.5836 415.84 28.6307C415.92 28.7189 416.042 28.7013 416.092 28.5954C416.116 28.5424 416.116 28.4894 416.104 28.4365C416.042 28.2129 416.03 27.9775 416.024 27.748C416.024 27.7363 416.024 27.7186 416.024 27.701C416.092 27.6951 416.153 27.6892 416.208 27.6892C416.251 27.6833 416.288 27.6774 416.318 27.6598C416.41 27.6127 416.41 27.5127 416.312 27.4656C416.275 27.4479 416.226 27.442 416.184 27.442C416.03 27.4479 415.877 27.4479 415.724 27.4479C415.669 27.4479 415.613 27.4538 415.558 27.4597C415.528 27.4656 415.491 27.4656 415.466 27.4832C415.423 27.5009 415.399 27.5303 415.399 27.5715C415.405 27.6127 415.423 27.6362 415.466 27.6539C415.491 27.6715 415.521 27.6774 415.552 27.6774C415.626 27.6833 415.705 27.6951 415.785 27.701ZM417.471 27.9716C417.471 27.9775 417.477 27.9834 417.477 27.9834C417.502 28.1423 417.526 28.2953 417.545 28.4482C417.551 28.5012 417.557 28.5483 417.594 28.5895C417.673 28.6895 417.796 28.6777 417.851 28.5718C417.876 28.5189 417.882 28.4659 417.87 28.4071C417.833 28.2305 417.814 28.054 417.778 27.8834C417.753 27.7774 417.722 27.6774 417.692 27.5833C417.673 27.5244 417.63 27.4832 417.557 27.4774C417.483 27.4656 417.428 27.5009 417.397 27.5539C417.361 27.6009 417.33 27.648 417.305 27.701C417.263 27.7951 417.226 27.8892 417.177 27.9775C417.171 28.001 417.164 28.0187 417.152 28.0364C417.146 28.0246 417.14 28.0187 417.14 28.0187C417.06 27.8716 416.987 27.7245 416.907 27.5833C416.895 27.5715 416.889 27.5597 416.882 27.548C416.846 27.495 416.803 27.4656 416.735 27.4656C416.674 27.4715 416.625 27.5068 416.594 27.5597C416.582 27.5833 416.582 27.6009 416.576 27.6245C416.551 27.8128 416.521 28.001 416.496 28.1893C416.484 28.2953 416.478 28.4012 416.478 28.5071C416.472 28.5306 416.478 28.56 416.49 28.5836C416.502 28.6307 416.539 28.6601 416.588 28.666C416.649 28.6718 416.692 28.6542 416.711 28.6071C416.729 28.5718 416.735 28.5424 416.741 28.513C416.766 28.4071 416.784 28.307 416.803 28.207C416.815 28.1482 416.821 28.1011 416.84 28.0364C416.852 28.0599 416.864 28.0775 416.876 28.0952C416.931 28.1658 416.987 28.2364 417.054 28.2953C417.122 28.3423 417.177 28.3364 417.232 28.2835C417.244 28.2717 417.25 28.2658 417.263 28.2541C417.318 28.1717 417.385 28.0893 417.44 28.0069C417.453 27.9952 417.459 27.9834 417.471 27.9716Z" fill="#3A3B7B"/>
<path d="M403.345 27.8166C403.302 27.9284 403.294 28.009 403.314 28.0759C403.335 28.167 403.392 28.1968 403.468 28.1736C404.189 28.0027 405.768 28.4878 406.352 28.623C406.49 28.6514 406.602 28.4806 406.508 28.3274C406.371 28.1791 404.793 27.5441 404.19 27.5095C403.954 27.4967 403.532 27.4386 403.345 27.8166Z" fill="#3A3B7B"/>
<path d="M409.516 25.7609C409.593 25.8035 409.636 25.844 409.657 25.8893C409.689 25.9488 409.672 25.9899 409.619 26.0109C409.143 26.2338 408.509 27.1938 408.254 27.5249C408.192 27.601 408.049 27.5568 408.027 27.4315C408.032 27.2899 408.593 26.2482 408.907 25.9644C409.03 25.8536 409.233 25.6363 409.516 25.7609Z" fill="#3A3B7B"/>
<path d="M405.725 25.2884C405.818 25.2217 405.913 25.1983 405.962 25.2417C406.68 25.8312 407.061 26.7647 407.297 27.6193C407.306 27.6392 407.307 27.6678 407.3 27.6976C407.297 27.7231 407.277 27.75 407.246 27.7708C407.213 27.7938 407.185 27.8008 407.172 27.781C406.857 27.3701 405.059 25.7713 405.725 25.2884Z" fill="#3A3B7B"/>
<path d="M390.517 35.5088C390.689 35.3858 390.876 35.2834 391.074 35.204C391.281 35.1471 391.502 35.1565 391.703 35.2309C391.904 35.3052 392.075 35.4403 392.189 35.6158C392.291 35.7909 392.33 35.993 392.302 36.1918C392.274 36.3905 392.18 36.575 392.033 36.7177C391.919 36.8333 391.789 36.934 391.648 37.0172C391.018 37.4076 390.383 37.7767 389.748 38.1671C389.618 38.2649 389.48 38.3525 389.335 38.4292C389.116 38.5344 388.864 38.5626 388.625 38.5089C388.386 38.4552 388.174 38.3229 388.026 38.1351C387.915 38.002 387.821 37.8566 387.747 37.7018C387.145 36.4877 386.521 35.2789 385.942 34.0433C385.674 33.5084 385.457 32.8933 385.245 32.2996C385.153 32.1271 385.135 31.9271 385.195 31.7422C385.255 31.5572 385.387 31.4019 385.564 31.3092C385.741 31.2165 385.949 31.1938 386.144 31.246C386.338 31.2981 386.503 31.4209 386.605 31.5883C386.916 31.9858 387.192 32.4081 387.429 32.8506C388.031 33.9203 388.605 34.99 389.185 36.0277C389.219 36.085 389.256 36.1403 389.296 36.1935C389.733 36.0174 390.143 35.7873 390.517 35.5088Z" fill="#3A3B7B"/>
<path d="M396.74 35.1357C395.363 36.6814 393.056 36.291 391.897 34.3013C391.072 32.8892 390.927 30.5572 392.722 29.0863C393.105 28.7784 393.563 28.5686 394.054 28.4765C394.655 28.3938 395.268 28.4956 395.806 28.7675C396.343 29.0393 396.777 29.4673 397.046 29.9902C398.027 31.7018 397.888 33.8841 396.74 35.1357ZM396.182 31.5307C396.036 31.1101 395.743 30.751 395.352 30.5144C395.131 30.3631 394.862 30.2896 394.591 30.3061C394.32 30.3227 394.064 30.4284 393.864 30.6053C393.067 31.2846 392.9 32.8946 393.48 33.852C393.553 34.0081 393.662 34.1469 393.798 34.2585C393.933 34.3702 394.092 34.4521 394.264 34.4984C394.436 34.5448 394.617 34.5545 394.793 34.5269C394.97 34.4993 395.137 34.4351 395.285 34.3387C395.717 34.0173 396.034 33.5746 396.192 33.0724C396.35 32.5701 396.341 32.0331 396.166 31.536L396.182 31.5307Z" fill="#3A3B7B"/>
<path d="M402.357 32.2046C402.216 32.2337 402.071 32.2354 401.929 32.2097C401.787 32.1839 401.653 32.1313 401.532 32.0548C401.427 31.9971 401.337 31.9178 401.267 31.8225C401.198 31.7272 401.152 31.6184 401.131 31.5038C401.111 31.3893 401.118 31.2718 401.15 31.1599C401.183 31.048 401.241 30.9445 401.321 30.8567C401.459 30.6804 401.655 30.5541 401.878 30.4984C402.459 30.3365 403.057 30.2378 403.661 30.2042C403.794 30.1894 403.928 30.2002 404.057 30.2359C404.185 30.2717 404.305 30.3316 404.408 30.4124C404.512 30.4931 404.598 30.5929 404.661 30.706C404.724 30.819 404.763 30.943 404.776 31.0707C404.95 31.6978 404.969 32.3554 404.832 32.9909C404.33 35.0448 402.602 35.7508 400.663 35.0929C400.119 34.917 399.641 34.5892 399.292 34.1515C398.826 33.6244 398.496 32.9997 398.328 32.3276C398.192 31.7292 398.207 31.1082 398.372 30.5164C398.536 29.9246 398.846 29.3793 399.275 28.9259C399.683 28.4331 400.211 28.0452 400.814 27.7973C401.194 27.5959 401.639 27.5387 402.062 27.6368C402.158 27.6623 402.245 27.7119 402.314 27.7805C402.383 27.849 402.432 27.9341 402.455 28.0269C402.478 28.1197 402.475 28.2167 402.446 28.308C402.417 28.3993 402.364 28.4815 402.29 28.5461C402.151 28.667 402 28.7745 401.839 28.867C401.343 29.1698 400.912 29.56 400.568 30.017C400.343 30.3127 400.187 30.6522 400.113 31.0116C400.039 31.3711 400.048 31.7418 400.139 32.0977C400.266 32.5828 400.546 33.0184 400.942 33.3439C402.168 34.4136 403.762 33.3813 403.483 31.9211C403.076 32.0174 402.719 32.119 402.357 32.2046Z" fill="#3A3B7B"/>
<path d="M409.847 35.2213C408.036 36.291 405.974 35.2213 405.523 32.9748C405.194 31.3702 405.818 29.1238 408.003 28.268C408.467 28.0898 408.972 28.0272 409.468 28.0861C410.065 28.191 410.612 28.4729 411.033 28.8923C411.454 29.3116 411.727 29.8472 411.814 30.4235C412.182 32.333 411.346 34.3708 409.847 35.2213ZM410.477 31.6216C410.476 31.1773 410.313 30.7473 410.014 30.4074C409.855 30.1972 409.625 30.0466 409.362 29.9812C409.1 29.9159 408.822 29.9399 408.577 30.0491C407.596 30.4556 406.905 31.9318 407.155 33.0176C407.175 33.188 407.232 33.3523 407.325 33.4991C407.417 33.6459 407.541 33.7715 407.689 33.8673C407.837 33.9631 408.006 34.0267 408.182 34.0536C408.358 34.0805 408.539 34.0701 408.71 34.0232C409.229 33.8493 409.678 33.5245 409.994 33.0939C410.311 32.6634 410.48 32.1486 410.477 31.6216Z" fill="#3A3B7B"/>
<path d="M413.646 35.6706C413.619 35.8663 413.511 36.0437 413.348 36.1635C413.184 36.2834 412.978 36.336 412.774 36.3097C412.57 36.2835 412.385 36.1806 412.26 36.0236C412.135 35.8666 412.08 35.6684 412.108 35.4727C412.135 35.2769 412.242 35.0996 412.406 34.9797C412.57 34.8598 412.776 34.8073 412.98 34.8335C413.184 34.8597 413.369 34.9626 413.494 35.1196C413.618 35.2766 413.673 35.4748 413.646 35.6706ZM413.161 28.4552C413.267 28.2998 413.423 28.1815 413.604 28.1179C413.786 28.0543 413.984 28.0487 414.17 28.1022C414.358 28.1474 414.525 28.2534 414.641 28.4024C414.758 28.5513 414.818 28.7343 414.811 28.9205C414.786 29.2192 414.74 29.5159 414.671 29.8084C414.487 30.7979 414.309 31.7874 414.114 32.7662C414.025 33.1567 413.908 33.5311 413.78 33.9269C413.735 34.0506 413.661 34.1624 413.562 34.2532C413.501 34.3214 413.423 34.3738 413.335 34.4054C413.248 34.437 413.153 34.4469 413.06 34.4341C412.968 34.4213 412.88 34.3862 412.805 34.3322C412.73 34.2781 412.67 34.2068 412.632 34.1248C412.565 33.9777 412.529 33.8197 412.526 33.6595C412.526 32.9962 412.526 32.3276 412.57 31.659C412.646 30.7049 412.795 29.7574 413.016 28.8242C413.042 28.6992 413.091 28.5797 413.161 28.4712V28.4552Z" fill="#3A3B7B"/>
<path fill-rule="evenodd" clip-rule="evenodd" d="M388.162 39.9687C388.097 40.1097 388.078 40.2668 388.111 40.4181C388.132 40.6175 388.179 40.8136 388.251 41.002C388.34 41.2327 388.44 41.4608 388.563 41.7419C388.591 41.8066 388.621 41.8741 388.652 41.9452C388.818 42.3261 389.026 42.8128 389.304 43.5173C389.383 43.7174 389.453 43.9191 389.523 44.1223C389.552 44.2044 389.58 44.2867 389.609 44.3692C389.714 44.6627 389.894 44.9263 390.133 45.1352C390.234 45.25 390.369 45.3337 390.519 45.3756C390.673 45.4182 390.837 45.4155 390.989 45.3678C391.141 45.3201 391.274 45.2295 391.372 45.1079C391.468 44.9886 391.525 44.8449 391.536 44.6948C391.598 44.4024 391.577 44.0992 391.474 43.8173C391.312 43.3492 391.127 42.8804 390.913 42.4219L390.912 42.4199C390.561 41.7026 390.204 40.9902 389.83 40.2775L389.827 40.2725C389.717 40.0869 389.575 39.9209 389.406 39.7821C389.297 39.6581 389.146 39.5746 388.979 39.5458C388.808 39.5163 388.633 39.546 388.483 39.6294C388.341 39.7071 388.229 39.8258 388.162 39.9687Z" fill="#3A3B7B"/>
<path fill-rule="evenodd" clip-rule="evenodd" d="M393.529 38.2023C392.978 38.0653 392.403 38.0454 391.843 38.1438C391.409 38.1848 390.983 38.2808 390.687 38.4709C390.536 38.5677 390.415 38.6919 390.347 38.8498C390.279 39.0086 390.27 39.1902 390.326 39.3925C390.428 39.7631 390.56 40.1234 390.692 40.4826L390.713 40.5407L390.714 40.542C391.111 41.5855 391.511 42.6254 391.916 43.6617C391.963 43.825 392.03 43.9826 392.115 44.1312L392.116 44.1339C392.228 44.3185 392.372 44.4836 392.542 44.6223C392.626 44.6986 392.731 44.7513 392.845 44.7749C392.959 44.7987 393.079 44.7918 393.19 44.7549C393.301 44.7181 393.399 44.6527 393.474 44.5659C393.547 44.4805 393.596 44.3776 393.613 44.2682C393.686 43.9708 393.663 43.6591 393.546 43.3748C393.51 43.2792 393.481 43.1814 393.451 43.0785C393.441 43.0442 393.431 43.0093 393.42 42.9737C394.346 42.6264 395.331 42.1594 395.677 41.0731C395.813 40.6976 395.824 40.2911 395.709 39.9092C395.595 39.5269 395.359 39.1881 395.036 38.9394C394.595 38.5911 394.081 38.3396 393.529 38.2023ZM392.002 39.5348C392.02 39.5297 392.038 39.5251 392.057 39.5207C392.659 39.4298 393.276 39.5509 393.793 39.8618C394.021 40.0139 394.114 40.1829 394.13 40.3454C394.147 40.5129 394.083 40.6943 393.956 40.8686C393.715 41.198 393.276 41.4617 392.879 41.5108C392.59 40.8714 392.296 40.2061 392.002 39.5348Z" fill="#3A3B7B"/>
<path d="M397.202 37.0318C397.858 36.741 398.671 36.6908 399.306 36.8953C399.467 36.94 399.606 37.0369 399.7 37.1692C399.793 37.3008 399.836 37.4593 399.822 37.6177C399.821 37.7206 399.794 37.8218 399.745 37.9131C399.695 38.006 399.622 38.086 399.532 38.1462C399.443 38.2063 399.34 38.245 399.232 38.2588C399.123 38.2726 399.013 38.2613 398.911 38.2256L398.903 38.2229L398.895 38.2192C398.843 38.1928 398.787 38.1729 398.729 38.16L398.726 38.1592C398.278 38.0452 397.856 38.2341 397.702 38.4663C397.629 38.577 397.62 38.6888 397.681 38.7905C397.746 38.8993 397.907 39.0215 398.233 39.1086C398.322 39.1322 398.414 39.1549 398.507 39.178C398.764 39.242 399.032 39.3084 399.29 39.4005L399.291 39.4009C400.484 39.8365 400.928 40.7388 400.776 41.5874C400.626 42.4266 399.896 43.1904 398.798 43.3706C398.398 43.4556 397.982 43.439 397.591 43.3225C397.199 43.2057 396.846 42.9925 396.566 42.704L396.559 42.6965C396.471 42.5878 396.412 42.4601 396.385 42.3247C396.361 42.2024 396.374 42.0761 396.422 41.9605C396.47 41.8456 396.551 41.7462 396.655 41.6738C396.765 41.5916 396.898 41.5424 397.038 41.5321C397.176 41.5219 397.315 41.5508 397.437 41.6153C397.559 41.6717 397.672 41.7437 397.774 41.8293L397.776 41.8309C397.955 41.9887 398.173 42.0298 398.381 41.9917C398.593 41.9531 398.792 41.8329 398.92 41.6735C399.047 41.5151 399.098 41.3269 399.037 41.1442C398.976 40.9602 398.793 40.754 398.391 40.5816C398.285 40.5387 398.176 40.5042 398.063 40.4705C398.032 40.4614 398.001 40.4524 397.969 40.4432C397.886 40.4187 397.799 40.3935 397.714 40.3658C397.656 40.3467 397.598 40.3286 397.541 40.3107C397.384 40.2617 397.232 40.214 397.085 40.15C396.765 40.0455 396.489 39.8449 396.297 39.5777C396.104 39.3095 396.008 38.9888 396.021 38.6634C396.022 37.8705 396.542 37.3243 397.202 37.0318Z" fill="#3A3B7B"/>
<path d="M405.52 36.9474C405.392 36.8877 405.252 36.8594 405.11 36.865C404.969 36.8706 404.831 36.9099 404.709 36.9794C404.588 37.0484 404.487 37.145 404.415 37.2606C404.348 37.358 404.302 37.4669 404.279 37.5813C404.256 37.6956 404.257 37.813 404.281 37.927C404.304 38.0736 404.331 38.2161 404.357 38.3566C404.4 38.5891 404.441 38.8165 404.469 39.0482L404.47 39.0541C404.533 39.4176 404.566 39.7852 404.569 40.1536L404.569 40.1588C404.59 40.5567 404.449 40.9468 404.175 41.2464L404.171 41.2517C404.082 41.3612 403.963 41.4448 403.827 41.4931C403.692 41.5414 403.544 41.5525 403.403 41.5252C403.261 41.4978 403.129 41.4331 403.024 41.3383C402.918 41.2435 402.841 41.1219 402.803 40.9879C402.722 40.7054 402.675 40.4149 402.663 40.1221L402.802 37.9997C402.804 37.972 402.806 37.9435 402.809 37.9148C402.814 37.8503 402.819 37.7847 402.822 37.7234C402.825 37.6333 402.822 37.5407 402.8 37.453C402.778 37.3633 402.735 37.278 402.66 37.2054C402.585 37.1335 402.484 37.0805 402.357 37.0444C402.127 36.9806 401.933 36.9826 401.771 37.0485C401.609 37.1144 401.498 37.2368 401.42 37.3782C401.342 37.5184 401.292 37.6844 401.254 37.8507C401.226 37.974 401.203 38.1035 401.182 38.2268C401.174 38.2693 401.167 38.311 401.16 38.3515L401.16 38.3527C401.045 39.0287 401.011 39.7152 401.058 40.3986C401.067 40.768 401.147 41.1326 401.295 41.4738C401.461 41.914 401.763 42.2954 402.16 42.5677C402.558 42.8406 403.033 42.9909 403.522 42.9988C404.011 43.0068 404.491 42.8719 404.898 42.6122C405.305 42.3529 405.62 41.9812 405.802 41.5463C406.057 40.9923 406.176 40.3899 406.151 39.7848C406.136 39.3431 406.111 38.898 406.087 38.4552C406.074 38.238 406.062 38.0212 406.051 37.8057C406.046 37.5897 405.971 37.3805 405.838 37.2061C405.756 37.0958 405.647 37.0069 405.52 36.9474Z" fill="#3A3B7B"/>
<path d="M410.022 40.2754C410.009 40.2911 409.996 40.3074 409.981 40.3243C409.878 39.7514 409.782 39.1787 409.686 38.6051C409.652 38.3993 409.617 38.1926 409.582 37.9865L409.578 37.9635L409.566 37.9436C409.542 37.9063 409.539 37.8696 409.539 37.7914V37.7824L409.538 37.7734C409.512 37.612 409.436 37.4618 409.319 37.3424C409.204 37.2233 409.053 37.1405 408.887 37.1045C408.722 37.0654 408.548 37.074 408.388 37.1293C408.228 37.1845 408.089 37.2837 407.988 37.4145C407.903 37.5148 407.834 37.6261 407.782 37.745C407.665 38.0012 407.546 38.258 407.427 38.5155L407.425 38.52C407.128 39.1628 406.83 39.81 406.539 40.4623L406.539 40.4644C406.36 40.8874 406.213 41.333 406.067 41.7773C406.038 41.866 406.008 41.9546 405.979 42.043C405.926 42.1832 405.903 42.3321 405.911 42.481C405.901 42.6143 405.934 42.7472 406.006 42.8619C406.079 42.9789 406.189 43.0709 406.319 43.1251C406.457 43.1832 406.612 43.1956 406.758 43.1602C406.904 43.1248 407.034 43.0439 407.127 42.9301C407.246 42.7899 407.348 42.6371 407.431 42.4751C407.677 41.9926 407.912 41.5042 408.146 41.0179C408.236 40.8298 408.324 40.6613 408.424 40.4779C408.431 40.5005 408.438 40.5225 408.445 40.5447C408.55 40.9876 408.727 41.4119 408.97 41.8019C409.015 41.8846 409.079 41.9568 409.157 42.0136C409.236 42.0711 409.326 42.1115 409.423 42.132C409.519 42.1525 409.619 42.1526 409.715 42.1323C409.812 42.112 409.903 42.0716 409.981 42.0143L410.137 41.9026L411.344 40.927L411.272 41.3635C411.174 41.9635 411.077 42.5585 410.974 43.1537C410.906 43.4175 410.906 43.693 410.974 43.9567C411.003 44.1052 411.078 44.2418 411.189 44.3492C411.3 44.4575 411.443 44.5311 411.599 44.5605C411.755 44.5898 411.916 44.5736 412.062 44.5138C412.206 44.4549 412.328 44.3565 412.414 44.231C412.613 43.994 412.737 43.7072 412.771 43.4045C412.822 42.9771 412.88 42.5439 412.938 42.1108C413.004 41.6116 413.071 41.1126 413.127 40.6231L413.128 40.6216C413.182 40.0858 413.208 39.5478 413.206 39.0095C413.218 38.8394 413.174 38.6699 413.08 38.5251C412.985 38.3797 412.846 38.2667 412.681 38.2021C412.509 38.1271 412.316 38.1071 412.132 38.145C411.949 38.1826 411.783 38.2753 411.658 38.4097C411.435 38.6073 411.227 38.8188 411.033 39.0427L411.032 39.0442C410.82 39.2971 410.61 39.555 410.401 39.8112C410.275 39.967 410.148 40.1224 410.022 40.2754Z" fill="#3A3B7B"/>
</g>
<g clip-path="url(#clip4_326_1132)">
<path d="M542.081 26.5031C542.081 26.8274 542.347 27.0904 542.675 27.0904H543.27C543.598 27.0904 543.864 26.8274 543.864 26.5031C543.864 26.1787 543.598 25.9158 543.27 25.9158H542.675C542.347 25.9158 542.081 26.1787 542.081 26.5031Z" fill="#212326"/>
<path d="M524.838 44.7096H527.727L526.886 43.879C526.663 43.6588 526.36 43.535 526.045 43.535H524.838C520.241 43.535 516.515 39.8538 516.515 35.3127C516.515 30.7716 520.241 27.0904 524.838 27.0904H534.351C538.948 27.0904 542.675 30.7716 542.675 35.3127C542.675 39.8538 538.948 43.535 534.351 43.535H530.793C530.32 43.535 529.866 43.3494 529.531 43.019L528.546 42.0459C527.989 41.4952 527.233 41.1858 526.444 41.1858H524.838C521.555 41.1858 518.893 38.5563 518.893 35.3127C518.893 32.0691 521.555 29.4396 524.838 29.4396H534.351C537.635 29.4396 540.297 32.0691 540.297 35.3127C540.297 38.5563 537.635 41.1858 534.351 41.1858H532.066C531.593 41.1858 531.14 41.0001 530.805 40.6697L529.82 39.6966C529.262 39.1459 528.506 38.8365 527.718 38.8365H524.838C522.868 38.8365 521.271 37.2588 521.271 35.3127C521.271 33.3665 522.868 31.7888 524.838 31.7888H534.351C536.322 31.7888 537.919 33.3665 537.919 35.3127C537.919 37.2351 536.36 38.798 534.423 38.8358L534.423 38.8365H533.553C533.08 38.8365 532.626 38.6509 532.292 38.3205L531.306 37.3474C530.849 36.8955 530.258 36.6061 529.625 36.5168L529.595 36.4873H524.838C524.182 36.4873 523.649 35.9614 523.649 35.3127C523.649 34.664 524.182 34.1381 524.838 34.1381H534.351C535.008 34.1381 535.54 34.664 535.54 35.3127C535.54 35.9614 535.008 36.4873 534.351 36.4873H531.973L532.814 37.3179C533.037 37.5382 533.339 37.6619 533.655 37.6619H534.351C535.665 37.6619 536.73 36.6101 536.73 35.3127C536.73 34.0153 535.665 32.9635 534.351 32.9635H524.838C523.525 32.9635 522.46 34.0153 522.46 35.3127C522.46 36.6101 523.525 37.6619 524.838 37.6619H529.204C529.677 37.6619 530.131 37.8476 530.466 38.178L531.451 39.1511C532.008 39.7018 532.764 40.0112 533.553 40.0112H534.649V40.0021C537.137 39.8506 539.108 37.8089 539.108 35.3127C539.108 32.7178 536.978 30.6142 534.351 30.6142H524.838C522.211 30.6142 520.082 32.7178 520.082 35.3127C520.082 37.9076 522.211 40.0112 524.838 40.0112H527.718C528.191 40.0112 528.645 40.1968 528.979 40.5272L529.964 41.5003C530.522 42.051 531.278 42.3604 532.066 42.3604H534.351C538.292 42.3604 541.486 39.205 541.486 35.3127C541.486 31.4203 538.292 28.265 534.351 28.265H524.838C520.898 28.265 517.704 31.4203 517.704 35.3127C517.704 39.205 520.898 42.3604 524.838 42.3604H526.444C526.917 42.3604 527.371 42.546 527.706 42.8764L528.691 43.8495C529.248 44.4002 530.004 44.7096 530.793 44.7096H534.351C539.605 44.7096 543.864 40.5025 543.864 35.3127C543.864 30.1229 539.605 25.9158 534.351 25.9158L524.838 25.9158C519.585 25.9158 515.325 30.1229 515.325 35.3127C515.325 40.5025 519.585 44.7096 524.838 44.7096Z" fill="#212326"/>
</g>
<g clip-path="url(#clip5_326_1132)">
<path d="M647.818 28.004C646.404 28.004 645.048 28.5655 644.049 29.565L640.787 32.827C639.787 33.8265 639.226 35.1821 639.226 36.5956C639.226 39.5392 641.612 41.9254 644.556 41.9254C645.969 41.9254 647.325 41.3638 648.324 40.3643L650.581 38.108C650.581 38.1079 650.581 38.108 650.581 38.108L657.155 31.5338C657.632 31.0564 658.28 30.7882 658.955 30.7882C660.085 30.7882 661.043 31.5249 661.375 32.5442L663.45 30.4694C662.504 28.987 660.844 28.004 658.955 28.004C657.541 28.004 656.185 28.5655 655.186 29.565L646.355 38.3955C645.878 38.8729 645.231 39.1411 644.556 39.1411C643.15 39.1411 642.01 38.0015 642.01 36.5956C642.01 35.9206 642.278 35.2731 642.756 34.7957L646.018 31.5338C646.495 31.0564 647.142 30.7882 647.818 30.7882C648.948 30.7882 649.906 31.5249 650.238 32.5443L652.313 30.4695C651.366 28.987 649.707 28.004 647.818 28.004Z" fill="#394149"/>
<path d="M657.493 38.3956C657.015 38.8729 656.368 39.1411 655.693 39.1411C654.563 39.1411 653.604 38.4047 653.272 37.3855L651.197 39.4602C652.144 40.9425 653.804 41.9254 655.693 41.9254C657.106 41.9254 658.462 41.3638 659.461 40.3643L668.292 31.5338C668.769 31.0564 669.417 30.7883 670.092 30.7883C671.498 30.7883 672.637 31.9279 672.637 33.3337C672.637 34.0088 672.369 34.6562 671.892 35.1336L668.63 38.3956C668.152 38.8729 667.505 39.1411 666.83 39.1411C665.7 39.1411 664.741 38.4045 664.409 37.3852L662.334 39.46C663.281 40.9424 664.941 41.9254 666.83 41.9254C668.243 41.9254 669.599 41.3638 670.598 40.3643L673.86 37.1024C674.86 36.1029 675.421 34.7472 675.421 33.3337C675.421 30.3902 673.035 28.004 670.092 28.004C668.678 28.004 667.323 28.5655 666.323 29.565L657.493 38.3956Z" fill="#394149"/>
</g>
<g clip-path="url(#clip6_326_1132)">
<path d="M804.887 31.9504C804.891 31.9214 804.891 31.8921 804.887 31.863C804.891 31.8394 804.891 31.8153 804.887 31.7916L804.604 29.7502C804.563 29.506 804.453 29.2778 804.288 29.091L804.239 29.0354L804.15 28.948L799.24 24.8018L799.378 24.9369C799.265 24.8047 799.124 24.699 798.964 24.6275C798.804 24.556 798.63 24.5206 798.454 24.5238H796.964C796.721 24.5191 796.484 24.5947 796.291 24.7383C796.088 24.5955 795.844 24.5204 795.594 24.5238H794.104C793.908 24.5207 793.715 24.5683 793.544 24.6617C793.374 24.7552 793.231 24.8912 793.131 25.056C792.977 25.2914 792.92 25.575 792.969 25.8503L793.156 27.137C793.032 27.0684 792.892 27.0328 792.751 27.0338H785.532C785.273 27.0354 785.02 27.1098 784.803 27.2482C784.593 27.3771 784.424 27.5616 784.316 27.7804L783.757 27.3118C783.537 27.1122 783.247 27.004 782.947 27.01H771.621C771.361 27.0146 771.107 27.0858 770.883 27.2165C770.578 27.3917 770.354 27.6766 770.26 28.0108L766.662 39.806C766.595 40.0003 766.588 40.2099 766.643 40.408C766.698 40.606 766.812 40.7836 766.97 40.918C767.011 40.9522 767.055 40.9841 767.1 41.0133C767.1 41.0133 767.027 40.9656 766.986 40.9259L771.896 45.08C772.104 45.2675 772.375 45.3723 772.658 45.3739H784.073C784.334 45.3673 784.588 45.2933 784.811 45.1595C784.936 45.0921 785.049 45.0034 785.143 44.8973L785.183 44.8417L785.248 44.7623L785.297 44.6749L785.832 45.1277C786.036 45.3077 786.302 45.4067 786.577 45.4057H798.017C798.277 45.3972 798.531 45.3234 798.754 45.1912C798.877 45.1198 798.989 45.0315 799.086 44.9291L799.127 44.8735L799.192 44.7941C799.226 44.7438 799.256 44.6907 799.281 44.6352C799.307 44.5871 799.329 44.5365 799.346 44.4843L802.627 33.7138V33.6184C802.631 33.5815 802.631 33.5442 802.627 33.5072V33.4358C802.631 33.4121 802.631 33.388 802.627 33.3643C802.631 33.314 802.631 33.2636 802.627 33.2133H803.68C803.772 33.2216 803.864 33.2216 803.956 33.2133H804.029C804.088 33.196 804.145 33.172 804.199 33.1419H804.28L804.425 33.0307L804.49 32.983L804.604 32.84V32.7924L804.685 32.6573C804.68 32.6311 804.68 32.6042 804.685 32.5779C804.68 32.5651 804.68 32.5511 804.685 32.5382C804.702 32.4917 804.716 32.4438 804.725 32.3952C804.722 32.3796 804.722 32.3632 804.725 32.3476C804.721 32.3239 804.721 32.2997 804.725 32.2761C804.725 32.2761 804.887 31.9663 804.887 31.9504Z" fill="black"/>
<path d="M783.279 27.9155C783.322 27.9536 783.352 28.0037 783.365 28.0591C783.379 28.1145 783.374 28.1725 783.352 28.2252L779.763 40.0125C779.718 40.1412 779.625 40.2488 779.504 40.3144C779.405 40.3792 779.29 40.4176 779.172 40.4256H767.764C767.667 40.421 767.574 40.3814 767.505 40.3144C767.463 40.2768 767.434 40.2281 767.421 40.1743C767.408 40.1206 767.412 40.0642 767.432 40.0125L771.029 28.2252C771.071 28.0949 771.16 27.9845 771.28 27.9155C771.381 27.8552 771.495 27.8198 771.613 27.8122H783.02C783.117 27.8131 783.209 27.85 783.279 27.9155ZM777.324 37.6376L779.471 30.6002H773.46L771.321 37.6376H777.324ZM794.168 28.0346C794.207 28.079 794.256 28.1141 794.311 28.1375C794.365 28.1609 794.425 28.1719 794.484 28.1696H795.967C796.023 28.1702 796.079 28.1566 796.129 28.1302C796.178 28.1038 796.22 28.0654 796.251 28.0187C796.277 27.9822 796.296 27.9409 796.305 27.8973C796.315 27.8536 796.316 27.8085 796.307 27.7646L796.016 25.6676C795.988 25.5706 795.938 25.481 795.87 25.4055C795.831 25.3612 795.782 25.326 795.728 25.3026C795.673 25.2793 795.613 25.2683 795.554 25.2705H794.071C794.015 25.27 793.959 25.2835 793.909 25.3099C793.86 25.3363 793.818 25.3747 793.788 25.4214C793.731 25.5326 793.707 25.6041 793.731 25.6676L794.031 27.7646C794.046 27.8667 794.094 27.9613 794.168 28.0346ZM798.876 25.6518C798.848 25.5547 798.798 25.4651 798.73 25.3896C798.693 25.3455 798.645 25.3103 798.592 25.2869C798.539 25.2635 798.48 25.2524 798.422 25.2546H796.931C796.876 25.2531 796.821 25.2663 796.772 25.2928C796.724 25.3194 796.683 25.3583 796.656 25.4055C796.602 25.476 796.578 25.5645 796.591 25.6518L796.891 27.7487C796.909 27.8497 796.957 27.9434 797.028 28.0187C797.068 28.0622 797.117 28.0968 797.171 28.1201C797.226 28.1434 797.285 28.1549 797.344 28.1538H798.835C798.891 28.1545 798.945 28.1409 798.993 28.1144C799.042 28.0879 799.082 28.0495 799.111 28.0028C799.139 27.9673 799.158 27.926 799.168 27.8821C799.178 27.8381 799.178 27.7925 799.167 27.7487L798.876 25.6518ZM792.864 28.8289L792.718 27.7963H785.532C785.419 27.8024 785.31 27.8381 785.216 27.8996C785.156 27.9315 785.104 27.9757 785.064 28.0292C785.023 28.0827 784.995 28.1441 784.981 28.2094L784.381 30.1792C784.357 30.2284 784.349 30.2836 784.358 30.3375C784.366 30.3914 784.392 30.4414 784.43 30.481C784.498 30.544 784.587 30.5807 784.681 30.5843H793.415L791.268 37.6217H782.558C782.446 37.6242 782.337 37.6572 782.242 37.717C782.128 37.7884 782.044 37.8987 782.007 38.0268L781.4 39.9966C781.38 40.0472 781.375 40.1021 781.385 40.1553C781.395 40.2086 781.419 40.2581 781.456 40.2984C781.523 40.3656 781.612 40.4054 781.708 40.4096H793.148C793.266 40.3997 793.38 40.3615 793.48 40.2984C793.599 40.2326 793.689 40.1247 793.731 39.9966L797.02 29.2261H793.318C793.259 29.2272 793.201 29.2165 793.146 29.1946C793.092 29.1728 793.043 29.1402 793.002 29.099C792.935 29.0269 792.887 28.9395 792.864 28.8448V28.8289Z" fill="white"/>
</g>
<defs>
<clipPath id="clip0_326_1132">
<rect width="27.8428" height="27.8428" fill="white" transform="translate(3.01831 21.1499)"/>
</clipPath>
<clipPath id="clip1_326_1132">
<rect width="27.8428" height="19.4899" fill="white" transform="translate(131.095 25.2197)"/>
</clipPath>
<clipPath id="clip2_326_1132">
<rect width="38.2838" height="20.8821" fill="white" transform="translate(254.299 24.5236)"/>
</clipPath>
<clipPath id="clip3_326_1132">
<rect width="32.7153" height="20.186" fill="white" transform="translate(385.16 25.2197)"/>
</clipPath>
<clipPath id="clip4_326_1132">
<rect width="28.5388" height="18.7939" fill="white" transform="translate(515.325 25.9158)"/>
</clipPath>
<clipPath id="clip5_326_1132">
<rect width="36.1956" height="13.9214" fill="white" transform="translate(639.226 28.004)"/>
</clipPath>
<clipPath id="clip6_326_1132">
<rect width="38.2838" height="20.8821" fill="white" transform="translate(766.607 24.5236)"/>
</clipPath>
</defs>
</svg>
