<svg width="134" height="48" viewBox="0 0 134 48" fill="none" xmlns="http://www.w3.org/2000/svg">
<mask id="path-1-inside-1_660_3412" fill="white">
<path d="M20.3953 24.7895L16.6429 31.2162L12.8904 24.7895H20.3953ZM21.4006 24.2151H11.8811L16.6429 32.353L21.4006 24.2151Z"/>
</mask>
<path d="M20.3953 24.7895L16.6429 31.2162L12.8904 24.7895H20.3953ZM21.4006 24.2151H11.8811L16.6429 32.353L21.4006 24.2151Z" fill="#263238"/>
<path d="M20.3953 24.7895L21.2589 25.2937L22.1372 23.7895H20.3953V24.7895ZM16.6429 31.2162L15.7793 31.7204L16.6429 33.1995L17.5064 31.7205L16.6429 31.2162ZM12.8904 24.7895V23.7895H11.1486L12.0269 25.2937L12.8904 24.7895ZM21.4006 24.2151L22.2639 24.7198L23.1436 23.2151H21.4006V24.2151ZM11.8811 24.2151V23.2151H10.1374L11.018 24.7201L11.8811 24.2151ZM16.6429 32.353L15.7798 32.858L16.6432 34.3337L17.5062 32.8577L16.6429 32.353ZM19.5318 24.2853L15.7793 30.712L17.5064 31.7205L21.2589 25.2937L19.5318 24.2853ZM17.5064 30.712L13.754 24.2853L12.0269 25.2937L15.7793 31.7204L17.5064 30.712ZM12.8904 25.7895H20.3953V23.7895H12.8904V25.7895ZM21.4006 23.2151H11.8811V25.2151H21.4006V23.2151ZM11.018 24.7201L15.7798 32.858L17.506 31.8479L12.7442 23.7101L11.018 24.7201ZM17.5062 32.8577L22.2639 24.7198L20.5373 23.7104L15.7796 31.8483L17.5062 32.8577Z" fill="white" mask="url(#path-1-inside-1_660_3412)"/>
<mask id="path-3-inside-2_660_3412" fill="white">
<path d="M26.9194 16.796L30.6718 23.2227H23.1669L26.9194 16.796ZM26.9194 15.6472L22.1576 23.7851H31.6812L26.9194 15.6472Z"/>
</mask>
<path d="M26.9194 16.796L30.6718 23.2227H23.1669L26.9194 16.796ZM26.9194 15.6472L22.1576 23.7851H31.6812L26.9194 15.6472Z" fill="#263238"/>
<path d="M26.9194 16.796L27.783 16.2918L26.9194 14.8128L26.0558 16.2918L26.9194 16.796ZM30.6718 23.2227V24.2227H32.4137L31.5354 22.7185L30.6718 23.2227ZM23.1669 23.2227L22.3033 22.7185L21.4251 24.2227H23.1669V23.2227ZM26.9194 15.6472L27.7825 15.1422L26.9194 13.6672L26.0563 15.1422L26.9194 15.6472ZM22.1576 23.7851L21.2945 23.28L20.4138 24.7851H22.1576V23.7851ZM31.6812 23.7851V24.7851H33.4249L32.5443 23.28L31.6812 23.7851ZM26.0558 17.3002L29.8083 23.727L31.5354 22.7185L27.783 16.2918L26.0558 17.3002ZM30.6718 22.2227H23.1669V24.2227H30.6718V22.2227ZM24.0305 23.727L27.783 17.3002L26.0558 16.2918L22.3033 22.7185L24.0305 23.727ZM26.0563 15.1422L21.2945 23.28L23.0207 24.2901L27.7825 16.1523L26.0563 15.1422ZM22.1576 24.7851H31.6812V22.7851H22.1576V24.7851ZM32.5443 23.28L27.7825 15.1422L26.0563 16.1522L30.8181 24.2901L32.5443 23.28Z" fill="white" mask="url(#path-3-inside-2_660_3412)"/>
<path d="M7.31873 15.6472L11.3113 22.8452L15.6742 15.828L7.31873 15.6472Z" fill="#4CAF4F"/>
<path d="M16.643 16.2776L20.8309 23.4354H12.4469L16.643 16.2776Z" fill="#4CAF4F"/>
<path d="M21.9094 24.9983L26.1014 32.3529H17.5179L21.7791 24.9983H21.9094Z" fill="#4CAF4F"/>
<path d="M22.817 24.5522L26.9195 31.7944L31.0789 24.5522H22.817Z" fill="#4CAF4F"/>
<path d="M44.177 31L40.0719 16.4545H42.9057L45.5264 27.1435H45.6614L48.4597 16.4545H51.0378L53.8432 27.1506H53.971L56.5918 16.4545H59.4256L55.3205 31H52.721L49.8091 20.794H49.6955L46.7764 31H44.177ZM64.8553 31.2131C63.7615 31.2131 62.8169 30.9858 62.0215 30.5312C61.2308 30.072 60.6223 29.4233 60.1962 28.5852C59.7701 27.7424 59.557 26.7505 59.557 25.6094C59.557 24.4872 59.7701 23.5024 60.1962 22.6548C60.6271 21.8026 61.2284 21.1397 62.0002 20.6662C62.7719 20.188 63.6787 19.9489 64.7203 19.9489C65.3927 19.9489 66.0272 20.0578 66.6237 20.2756C67.2251 20.4886 67.7554 20.8201 68.2147 21.2699C68.6787 21.7197 69.0433 22.2926 69.3084 22.9886C69.5736 23.6799 69.7061 24.5038 69.7061 25.4602V26.2486H60.7644V24.5156H67.2416C67.2369 24.0232 67.1304 23.5852 66.922 23.2017C66.7137 22.8134 66.4225 22.508 66.0485 22.2855C65.6791 22.063 65.2483 21.9517 64.7558 21.9517C64.2303 21.9517 63.7686 22.0795 63.3709 22.3352C62.9732 22.5862 62.663 22.9176 62.4405 23.3295C62.2227 23.7367 62.1114 24.1842 62.1067 24.6719V26.1847C62.1067 26.8191 62.2227 27.3636 62.4547 27.8182C62.6867 28.268 63.0111 28.6136 63.4277 28.8551C63.8444 29.0919 64.3321 29.2102 64.8908 29.2102C65.2648 29.2102 65.6034 29.1581 65.9064 29.054C66.2094 28.9451 66.4722 28.7865 66.6948 28.5781C66.9173 28.3698 67.0854 28.1117 67.199 27.804L69.5996 28.0739C69.4481 28.7083 69.1593 29.2623 68.7331 29.7358C68.3117 30.2045 67.7719 30.5691 67.1138 30.8295C66.4557 31.0852 65.7028 31.2131 64.8553 31.2131ZM71.9948 31V16.4545H74.5659V21.8949H74.6724C74.805 21.6297 74.992 21.348 75.2335 21.0497C75.475 20.7467 75.8017 20.4886 76.2136 20.2756C76.6255 20.0578 77.1511 19.9489 77.7903 19.9489C78.6331 19.9489 79.393 20.1643 80.0701 20.5952C80.7519 21.0213 81.2917 21.6534 81.6894 22.4915C82.0919 23.3248 82.2931 24.3475 82.2931 25.5597C82.2931 26.7576 82.0966 27.7756 81.7036 28.6136C81.3107 29.4517 80.7756 30.0909 80.0985 30.5312C79.4214 30.9716 78.6544 31.1918 77.7974 31.1918C77.1724 31.1918 76.6539 31.0876 76.242 30.8793C75.8301 30.6709 75.4986 30.42 75.2477 30.1264C75.0015 29.8281 74.8097 29.5464 74.6724 29.2812H74.5232V31H71.9948ZM74.5161 25.5455C74.5161 26.2509 74.6156 26.8688 74.8144 27.3991C75.018 27.9295 75.3092 28.3437 75.688 28.642C76.0715 28.9356 76.5356 29.0824 77.0801 29.0824C77.6482 29.0824 78.1241 28.9309 78.5076 28.6278C78.8911 28.3201 79.18 27.901 79.3741 27.3707C79.573 26.8357 79.6724 26.2273 79.6724 25.5455C79.6724 24.8684 79.5753 24.267 79.3812 23.7415C79.1871 23.2159 78.8982 22.804 78.5147 22.5057C78.1312 22.2074 77.653 22.0582 77.0801 22.0582C76.5308 22.0582 76.0644 22.2027 75.6809 22.4915C75.2974 22.7803 75.0062 23.1851 74.8073 23.706C74.6132 24.2268 74.5161 24.84 74.5161 25.5455ZM87.0499 24.608V31H84.4789V20.0909H86.9362V21.9446H87.0641C87.315 21.3338 87.7151 20.8485 88.2644 20.4886C88.8183 20.1288 89.5025 19.9489 90.3169 19.9489C91.0698 19.9489 91.7255 20.1098 92.2843 20.4318C92.8477 20.7538 93.2833 21.2202 93.5911 21.831C93.9036 22.4418 94.0575 23.1828 94.0527 24.054V31H91.4817V24.4517C91.4817 23.7225 91.2923 23.152 90.9135 22.7401C90.5395 22.3281 90.021 22.1222 89.3581 22.1222C88.9083 22.1222 88.5082 22.2216 88.1578 22.4205C87.8122 22.6146 87.5399 22.8963 87.3411 23.2656C87.1469 23.6349 87.0499 24.0824 87.0499 24.608ZM101.496 31.2131C100.402 31.2131 99.4576 30.9858 98.6621 30.5312C97.8714 30.072 97.263 29.4233 96.8368 28.5852C96.4107 27.7424 96.1976 26.7505 96.1976 25.6094C96.1976 24.4872 96.4107 23.5024 96.8368 22.6548C97.2677 21.8026 97.869 21.1397 98.6408 20.6662C99.4126 20.188 100.319 19.9489 101.361 19.9489C102.033 19.9489 102.668 20.0578 103.264 20.2756C103.866 20.4886 104.396 20.8201 104.855 21.2699C105.319 21.7197 105.684 22.2926 105.949 22.9886C106.214 23.6799 106.347 24.5038 106.347 25.4602V26.2486H97.405V24.5156H103.882C103.878 24.0232 103.771 23.5852 103.563 23.2017C103.354 22.8134 103.063 22.508 102.689 22.2855C102.32 22.063 101.889 21.9517 101.396 21.9517C100.871 21.9517 100.409 22.0795 100.012 22.3352C99.6138 22.5862 99.3037 22.9176 99.0811 23.3295C98.8633 23.7367 98.7521 24.1842 98.7473 24.6719V26.1847C98.7473 26.8191 98.8633 27.3636 99.0953 27.8182C99.3273 28.268 99.6517 28.6136 100.068 28.8551C100.485 29.0919 100.973 29.2102 101.531 29.2102C101.905 29.2102 102.244 29.1581 102.547 29.054C102.85 28.9451 103.113 28.7865 103.335 28.5781C103.558 28.3698 103.726 28.1117 103.84 27.804L106.24 28.0739C106.089 28.7083 105.8 29.2623 105.374 29.7358C104.952 30.2045 104.413 30.5691 103.754 30.8295C103.096 31.0852 102.343 31.2131 101.496 31.2131ZM117.144 22.9744L114.8 23.2301C114.734 22.9934 114.618 22.7708 114.452 22.5625C114.291 22.3542 114.073 22.1861 113.799 22.0582C113.524 21.9304 113.188 21.8665 112.79 21.8665C112.255 21.8665 111.805 21.9825 111.441 22.2145C111.081 22.4465 110.903 22.7472 110.908 23.1165C110.903 23.4337 111.019 23.6918 111.256 23.8906C111.498 24.0895 111.895 24.2528 112.449 24.3807L114.31 24.7784C115.342 25.0009 116.109 25.3537 116.611 25.8366C117.118 26.3196 117.374 26.9517 117.378 27.733C117.374 28.4195 117.172 29.0256 116.775 29.5511C116.382 30.072 115.835 30.4792 115.134 30.7727C114.433 31.0663 113.628 31.2131 112.719 31.2131C111.384 31.2131 110.309 30.9337 109.495 30.375C108.68 29.8116 108.195 29.0279 108.039 28.0241L110.546 27.7827C110.66 28.2751 110.901 28.6468 111.27 28.8977C111.64 29.1487 112.12 29.2741 112.712 29.2741C113.323 29.2741 113.813 29.1487 114.182 28.8977C114.556 28.6468 114.743 28.3366 114.743 27.9673C114.743 27.6548 114.623 27.3968 114.381 27.1932C114.144 26.9896 113.775 26.8333 113.273 26.7244L111.412 26.3338C110.366 26.116 109.592 25.7491 109.09 25.233C108.588 24.7121 108.34 24.054 108.344 23.2585C108.34 22.5862 108.522 22.0038 108.891 21.5114C109.265 21.0142 109.784 20.6307 110.447 20.3608C111.114 20.0862 111.884 19.9489 112.755 19.9489C114.033 19.9489 115.039 20.2211 115.773 20.7656C116.512 21.3101 116.969 22.0464 117.144 22.9744ZM124.946 20.0909V22.0795H118.675V20.0909H124.946ZM120.223 17.4773H122.794V27.7188C122.794 28.0644 122.846 28.3295 122.95 28.5142C123.059 28.6941 123.201 28.8172 123.376 28.8835C123.551 28.9498 123.746 28.983 123.959 28.983C124.12 28.983 124.266 28.9711 124.399 28.9474C124.536 28.9238 124.64 28.9025 124.711 28.8835L125.145 30.8935C125.007 30.9408 124.811 30.9929 124.555 31.0497C124.304 31.1065 123.996 31.1397 123.632 31.1491C122.988 31.1681 122.408 31.071 121.892 30.858C121.376 30.6402 120.966 30.304 120.663 29.8494C120.365 29.3949 120.218 28.8267 120.223 28.1449V17.4773Z" fill="white"/>
</svg>
