<svg width="46" height="40" viewBox="0 0 46 40" fill="none" xmlns="http://www.w3.org/2000/svg">
<path d="M45.6658 26.8834C45.6658 33.8031 40.0563 39.4127 33.1366 39.4127L14.3427 39.4127C12.4206 39.4127 10.8624 37.8545 10.8624 35.9323L10.8624 12.266C10.8624 8.42167 13.9788 5.30527 17.8231 5.30527L42.1855 5.30527C44.1076 5.30527 45.6658 6.86348 45.6658 8.78562L45.6658 26.8834Z" fill="#E8F5E9"/>
<path d="M20.1282 16.8911C19.9605 16.8911 19.8049 16.845 19.6667 16.7709V16.7729C19.6667 17.0366 19.5642 17.2842 19.3782 17.4697C19.1923 17.6556 18.9448 17.7581 18.6814 17.7581C18.5113 17.7581 18.3537 17.7109 18.214 17.6348C18.1999 17.8761 18.1035 18.1015 17.9315 18.2737C17.7455 18.4597 17.498 18.5622 17.2345 18.5622C16.7108 18.5622 16.2856 18.1506 16.2549 17.6347C16.0929 17.7222 15.9097 17.7681 15.7208 17.756C15.2057 17.7222 14.8023 17.2772 14.8023 16.7425V12.3109L14.2977 13.1851C14.1055 13.5195 13.7457 13.7271 13.3583 13.7271C13.1696 13.7271 12.9831 13.6776 12.818 13.583C12.6123 13.4637 12.4652 13.2724 12.404 13.0434C12.3425 12.8143 12.3744 12.5747 12.4932 12.3694C12.4934 12.3694 14.1443 9.5105 14.245 9.33488C14.257 9.30848 14.2911 9.2319 14.3201 9.16663C14.3479 9.10431 14.3716 9.04036 14.3944 8.97607C14.8923 7.57051 16.1251 6.69741 17.6118 6.69741C19.5425 6.69741 21.1132 8.40062 21.1132 10.4942L21.1134 15.9057C21.1134 16.169 21.011 16.4165 20.8252 16.6027C20.6393 16.7886 20.3918 16.8911 20.1281 16.8911L20.1282 16.8911ZM17.6118 7.22095C16.3343 7.22095 15.3161 7.94254 14.8879 9.15116C14.8605 9.22791 14.832 9.30466 14.7987 9.37944C14.7021 9.59607 14.7021 9.59607 14.6749 9.62723L14.6713 9.62411C14.5365 9.87846 14.136 10.572 12.9466 12.6314C12.8977 12.7159 12.8847 12.8139 12.9097 12.9077C12.9349 13.0015 12.9954 13.0806 13.0792 13.129C13.3393 13.2784 13.6955 13.1819 13.8438 12.9236L14.8374 11.2033C14.8968 11.1009 15.0168 11.0505 15.1319 11.0817C15.2464 11.1123 15.3259 11.2161 15.3259 11.3345V16.7427C15.3259 16.9978 15.5185 17.2181 15.7551 17.2337C15.8916 17.2409 16.0188 17.1951 16.1144 17.0997C16.2013 17.0128 16.2492 16.897 16.2492 16.7732V13.2362C16.2492 13.0915 16.3665 12.9743 16.5111 12.9743C16.6558 12.9743 16.773 13.0914 16.773 13.2362L16.7729 17.5771C16.7729 17.8316 16.98 18.0388 17.2345 18.0388C17.3581 18.0388 17.4742 17.9909 17.5613 17.904C17.6482 17.8169 17.6961 17.7008 17.6961 17.5771V13.2362C17.6961 13.0915 17.8132 12.9743 17.958 12.9743C18.1027 12.9743 18.2199 13.0914 18.2199 13.2362L18.2198 16.7325V16.7732C18.2198 17.0275 18.4269 17.2346 18.6816 17.2346C18.8051 17.2346 18.9208 17.1866 19.0084 17.0993C19.0953 17.0126 19.1432 16.8968 19.1432 16.773V13.236C19.1432 13.0913 19.2603 12.9741 19.4051 12.9741C19.5497 12.9741 19.667 13.0912 19.667 13.236L19.6667 15.9058C19.6667 16.1605 19.8738 16.3676 20.1281 16.3676C20.2519 16.3676 20.3677 16.3196 20.4546 16.2328C20.5419 16.1456 20.5896 16.0294 20.5896 15.9058L20.5898 10.4943C20.5898 8.68958 19.2539 7.221 17.6118 7.221L17.6118 7.22095Z" fill="#103E13"/>
<path d="M9.83847 20.6523L13.6388 18.3724C14.097 18.0972 14.6866 18.2142 14.9804 18.6387C15.0877 18.7934 15.1425 18.9736 15.151 19.1571C15.2927 19.0832 15.4468 19.043 15.6038 19.043C15.6841 19.043 15.7648 19.053 15.8445 19.0728C16.0998 19.1366 16.315 19.2962 16.4503 19.5218C16.5858 19.7478 16.6253 20.0127 16.5615 20.2677C16.5026 20.5037 16.3591 20.7023 16.1595 20.8386C16.2991 20.9209 16.4195 21.0332 16.5051 21.1762C16.6405 21.4022 16.6801 21.6669 16.6164 21.9223C16.5526 22.1773 16.3931 22.3924 16.1671 22.5281L16.1658 22.5289C16.3029 22.611 16.4211 22.7222 16.5057 22.8631C16.6414 23.0891 16.6809 23.3539 16.6171 23.6092C16.5531 23.8644 16.3936 24.0796 16.1679 24.215L11.5276 26.9988C10.6616 27.5182 9.66041 27.6974 8.70892 27.5031C7.74892 27.307 6.95386 26.7552 6.47044 25.9493C5.7054 24.6742 5.82005 23.1678 6.76907 22.018C6.81253 21.9656 6.85533 21.9121 6.8942 21.8567C6.93536 21.7981 6.98341 21.7292 6.99981 21.7056C7.09804 21.5301 8.70092 18.6422 8.70075 18.6426C8.86262 18.3505 9.166 18.1852 9.47889 18.1853C9.62485 18.1853 9.77293 18.2213 9.90954 18.297C10.0745 18.3892 10.2131 18.5235 10.31 18.6854C10.5093 19.0174 10.5163 19.433 10.3287 19.7693L9.83847 20.6523ZM9.86126 18.9546C9.81042 18.8698 9.74056 18.8022 9.65512 18.7543C9.4785 18.6566 9.25613 18.7202 9.15889 18.8962C8.01194 20.9625 7.62096 21.6667 7.47008 21.9173L7.47352 21.9181C7.4609 21.9601 7.4609 21.9601 7.32282 22.1574C7.27591 22.2241 7.22491 22.2882 7.17293 22.3514C6.35688 23.3401 6.26213 24.5843 6.91923 25.6799C7.32626 26.3585 7.99897 26.8238 8.8135 26.99C9.6369 27.1575 10.5048 27.0017 11.258 26.5497L15.8987 23.7658C16.0046 23.7024 16.0794 23.6015 16.1093 23.482C16.1391 23.3626 16.1206 23.2384 16.0569 23.1325C15.9261 22.9144 15.6419 22.8427 15.4238 22.9741L13.1344 24.3475C13.0105 24.422 12.8494 24.382 12.7751 24.2578C12.7007 24.1338 12.7409 23.973 12.8648 23.8985L15.1543 22.5251L15.8979 22.079C16.0038 22.0154 16.0788 21.9145 16.1086 21.7953C16.1385 21.6757 16.1199 21.5514 16.0563 21.4457C15.9253 21.2274 15.6411 21.1564 15.4231 21.2872L12.3901 23.1067C12.2658 23.1814 12.1052 23.141 12.0308 23.017C11.9563 22.8931 11.9967 22.7322 12.1205 22.6577L15.8429 20.4247C15.9489 20.361 16.0237 20.2603 16.0535 20.1408C16.0834 20.0214 16.0648 19.8973 16.0014 19.7913C15.9379 19.6856 15.837 19.6108 15.7175 19.5809C15.5973 19.5511 15.4736 19.5696 15.368 19.6329L14.6789 20.0463C14.6788 20.0463 14.6788 20.0465 14.6786 20.0465H14.6784L11.6456 21.866C11.5213 21.9408 11.3605 21.9004 11.2863 21.7763C11.2118 21.6523 11.2521 21.4915 11.376 21.417L14.409 19.5975C14.5149 19.5339 14.5899 19.433 14.6197 19.3138C14.6525 19.1829 14.6276 19.0491 14.5499 18.9369C14.4151 18.7419 14.1268 18.6901 13.9082 18.8215L9.27083 21.6035C9.16932 21.6641 9.03927 21.6494 8.95416 21.5672C8.86889 21.4849 8.8497 21.3555 8.90709 21.252L9.87138 19.5147C9.96814 19.341 9.96436 19.1265 9.86121 18.9546L9.86126 18.9546Z" fill="#103E13"/>
<path d="M27.9982 25.9491C27.5149 26.7551 26.7201 27.3068 25.7599 27.5029C24.8082 27.6969 23.8074 27.518 22.9412 26.9986L18.3005 24.2147C18.0747 24.0793 17.9149 23.8641 17.851 23.6086C17.7875 23.3536 17.8272 23.0887 17.9625 22.8631C18.0469 22.722 18.1654 22.6109 18.3026 22.5287L18.3013 22.5279C18.0755 22.3924 17.9158 22.1773 17.8521 21.9221C17.7882 21.6669 17.8279 21.4019 17.9633 21.1759C18.0506 21.0308 18.1701 20.9173 18.3066 20.8368C18.1085 20.7005 17.9658 20.5026 17.9071 20.2677C17.8431 20.0124 17.8828 19.7475 18.0183 19.5219C18.1536 19.2961 18.3689 19.1365 18.6241 19.0727C18.7038 19.0527 18.7846 19.0429 18.8646 19.0429C19.0217 19.043 19.1759 19.0829 19.3176 19.157C19.3263 18.9735 19.3809 18.7933 19.4881 18.6386C19.7822 18.2144 20.3712 18.0969 20.8301 18.3723L24.6303 20.6518L24.1405 19.7695C23.9525 19.4326 23.9594 19.0171 24.1587 18.6848C24.2558 18.5231 24.3945 18.3888 24.5603 18.2958C24.6966 18.2204 24.8442 18.1847 24.9898 18.1847C25.3025 18.1848 25.6062 18.3498 25.7679 18.6419C26.3314 19.6572 27.3947 21.5719 27.4695 21.7056C27.4854 21.7287 27.5334 21.7976 27.5746 21.8562C27.6138 21.9117 27.6561 21.9649 27.6999 22.0177C28.6488 23.1679 28.7632 24.6742 27.9982 25.9491L27.9982 25.9491ZM27.2959 22.3514C27.2437 22.2883 27.1925 22.2238 27.146 22.1574C27.0043 21.9564 27.0007 21.9511 26.99 21.8985C26.8244 21.6245 26.4203 20.897 25.3096 18.8959C25.2122 18.7203 24.9908 18.6562 24.8145 18.7536C24.7277 18.8021 24.6581 18.8699 24.6072 18.9546C24.5042 19.1263 24.5003 19.3408 24.5975 19.515L25.5615 21.2519C25.6191 21.3555 25.5999 21.4847 25.5148 21.5671C25.4298 21.6495 25.2999 21.664 25.1979 21.6033L20.5606 18.8213C20.342 18.6903 20.0539 18.7416 19.9187 18.9368C19.841 19.0489 19.8162 19.1828 19.8487 19.3135C19.8785 19.4328 19.9535 19.5335 20.0596 19.5972C20.0599 19.5973 20.0601 19.5977 20.0604 19.5978L23.0925 21.4168C23.2164 21.4913 23.2566 21.652 23.1822 21.7761C23.1077 21.8999 22.9472 21.9404 22.8229 21.8658L19.1004 19.6328C18.9948 19.5695 18.8705 19.5508 18.7511 19.5808C18.6314 19.6106 18.5307 19.6854 18.4672 19.7915C18.4036 19.8973 18.3852 20.0214 18.4147 20.1408C18.4446 20.2602 18.5195 20.361 18.6255 20.4247L19.3498 20.8591L22.3478 22.6578C22.4718 22.7322 22.5119 22.893 22.4375 23.0171C22.363 23.1409 22.2025 23.1813 22.0782 23.1068L19.0455 21.2873C18.8274 21.1561 18.5433 21.2273 18.4121 21.4457C18.3485 21.5516 18.3301 21.6758 18.3597 21.7952C18.3895 21.9146 18.4644 22.0153 18.5705 22.079L19.3141 22.5251L21.6032 23.8985C21.7272 23.973 21.7674 24.1337 21.6929 24.2579C21.6185 24.3817 21.4579 24.4223 21.3336 24.3476L19.0445 22.9741C18.9389 22.9108 18.8151 22.8921 18.695 22.9221C18.5756 22.952 18.4746 23.0268 18.4111 23.1325C18.3477 23.2385 18.3292 23.3628 18.3587 23.482C18.3885 23.6014 18.4635 23.7021 18.5696 23.7659L23.2103 26.5498C23.9633 27.0016 24.8318 27.158 25.6547 26.9901C26.4691 26.8238 27.1418 26.3586 27.5489 25.68C28.2066 24.5841 28.112 23.3398 27.2961 22.3514L27.2959 22.3514Z" fill="#103E13"/>
</svg>
