<svg width="46" height="40" viewBox="0 0 46 40" fill="none" xmlns="http://www.w3.org/2000/svg">
<path d="M45.9186 26.8834C45.9186 33.8031 40.309 39.4127 33.3893 39.4127L14.5955 39.4127C12.6733 39.4127 11.1151 37.8545 11.1151 35.9323L11.1151 12.266C11.1151 8.42167 14.2315 5.30527 18.0758 5.30527L42.4382 5.30527C44.3604 5.30527 45.9186 6.86348 45.9186 8.78562L45.9186 26.8834Z" fill="#E8F5E9"/>
<path d="M17.3728 7.39349C14.8869 7.39349 12.8632 9.43568 12.8632 11.9321C12.8632 13.5114 13.6742 14.9058 14.8988 15.7186C13.4197 16.2131 12.1399 17.1374 11.2013 18.3466C10.6823 17.9474 10.1024 17.6264 9.47729 17.3964C10.4252 16.6926 11.0447 15.5621 11.0447 14.2915C11.0447 12.1743 9.33233 10.441 7.22789 10.441C5.12346 10.441 3.41107 12.1743 3.41107 14.2915C3.41107 15.5628 4.03106 16.6939 4.97981 17.3976C2.46799 18.3245 0.674072 20.7512 0.674072 23.6072V25.6134C0.674329 25.7663 0.735505 25.9129 0.843975 26.0206C0.952444 26.1285 1.09922 26.1887 1.25216 26.1882H10.0539C10.0753 26.1905 10.0966 26.1918 10.1179 26.1915H24.6281C24.6494 26.1918 24.671 26.1905 24.6921 26.1882H33.4945C33.8109 26.1869 34.0672 25.9301 34.068 25.6134V23.6072C34.068 20.7512 32.2772 18.3245 29.7667 17.3973C30.7154 16.6939 31.3354 15.5626 31.3354 14.2913C31.3354 12.174 29.623 10.4408 27.5186 10.4408C25.4142 10.4408 23.7017 12.174 23.7017 14.2913C23.7017 15.5618 24.3215 16.6925 25.2694 17.3961C24.643 17.6267 24.0629 17.9487 23.5432 18.3489C22.605 17.139 21.3269 16.2134 19.8479 15.7186C21.0722 14.9058 21.8835 13.5114 21.8835 11.9321C21.8835 9.43568 19.8587 7.39349 17.3729 7.39349H17.3728ZM17.3728 8.54504C19.232 8.54504 20.7307 10.0539 20.7307 11.9321C20.7307 13.7956 19.2553 15.2898 17.4167 15.3138C17.4021 15.3138 17.3877 15.3117 17.3728 15.3117C17.3579 15.3117 17.3437 15.3138 17.3288 15.3138C15.4902 15.2901 14.0158 13.7957 14.0158 11.9321C14.0158 10.0536 15.5133 8.54504 17.3725 8.54504H17.3728ZM7.22796 11.5925C8.70312 11.5925 9.89323 12.7898 9.89323 14.2915C9.89323 15.7831 8.71852 16.9752 7.25724 16.9914C7.24747 16.9914 7.23796 16.9904 7.22794 16.9904C7.21817 16.9904 7.20866 16.9914 7.19864 16.9914C5.73735 16.9752 4.56264 15.7828 4.56264 14.2915C4.56264 12.7898 5.75275 11.5925 7.22792 11.5925H7.22796ZM27.5182 11.5925C28.9934 11.5925 30.1835 12.7898 30.1835 14.2915C30.1835 15.7831 29.0088 16.9752 27.5475 16.9914C27.5377 16.9914 27.5282 16.9904 27.5182 16.9904C27.5084 16.9904 27.4989 16.9914 27.4889 16.9914C26.0276 16.9752 24.8529 15.7828 24.8529 14.2915C24.8529 12.7898 26.043 11.5925 27.5182 11.5925H27.5182ZM17.3287 16.4653C17.3433 16.4655 17.3577 16.4673 17.3726 16.4673C17.3873 16.4673 17.4017 16.4653 17.4166 16.4653C21.1038 16.4889 24.0548 19.4652 24.0548 23.191L24.0545 25.0396H10.6913V23.191C10.6913 19.4649 13.6414 16.4889 17.3282 16.4653H17.3287ZM7.18387 18.1443C7.19852 18.1445 7.21292 18.1463 7.22782 18.1463C7.24273 18.1463 7.25687 18.1443 7.27178 18.1443C8.51894 18.1543 9.65713 18.5843 10.5634 19.3038C9.91491 20.4513 9.53987 21.7757 9.53987 23.1913V25.0355H1.82516V23.6072C1.82516 20.5792 4.2059 18.1679 7.18373 18.144L7.18387 18.1443ZM27.4741 18.1443C27.489 18.1445 27.5032 18.1463 27.5181 18.1463C27.533 18.1463 27.5471 18.1443 27.562 18.1443C30.5399 18.1679 32.9206 20.5795 32.9206 23.6074V25.0355H25.202L25.2017 23.1913C25.2017 21.7765 24.8277 20.453 24.1805 19.3058C25.087 18.5854 26.226 18.1543 27.4742 18.1443H27.4741Z" fill="#103E13"/>
</svg>
