<svg width="130" height="28" viewBox="0 0 130 28" fill="none" xmlns="http://www.w3.org/2000/svg">
<path d="M13.0766 14.7893L9.32414 21.216L5.57171 14.7893H13.0766ZM14.0819 14.2149H4.56238L9.32414 22.3528L14.0819 14.2149Z" fill="#263238"/>
<path d="M19.6007 6.79593L23.3531 13.2227H15.8482L19.6007 6.79593ZM19.6007 5.64716L14.8389 13.785H24.3624L19.6007 5.64716Z" fill="#263238"/>
<path d="M0 5.64716L3.99259 12.8451L8.35551 5.8279L0 5.64716Z" fill="#4CAF4F"/>
<path d="M9.32425 6.27771L13.5122 13.4355H5.12817L9.32425 6.27771Z" fill="#4CAF4F"/>
<path d="M14.5906 14.9982L18.7827 22.3528H10.1992L14.4604 14.9982H14.5906Z" fill="#4CAF4F"/>
<path d="M15.4983 14.5523L19.6007 21.7944L23.7602 14.5523H15.4983Z" fill="#4CAF4F"/>
<path d="M34.4281 21L30.323 6.45455H33.1568L35.7775 17.1435H35.9125L38.7108 6.45455H41.2889L44.0943 17.1506H44.2221L46.8429 6.45455H49.6767L45.5716 21H42.9721L40.0602 10.794H39.9466L37.0275 21H34.4281ZM55.1064 21.2131C54.0126 21.2131 53.068 20.9858 52.2726 20.5312C51.4819 20.072 50.8734 19.4233 50.4473 18.5852C50.0212 17.7424 49.8081 16.7505 49.8081 15.6094C49.8081 14.4872 50.0212 13.5024 50.4473 12.6548C50.8782 11.8026 51.4795 11.1397 52.2513 10.6662C53.023 10.188 53.9298 9.94886 54.9714 9.94886C55.6438 9.94886 56.2783 10.0578 56.8748 10.2756C57.4762 10.4886 58.0065 10.8201 58.4658 11.2699C58.9298 11.7197 59.2944 12.2926 59.5595 12.9886C59.8247 13.6799 59.9572 14.5038 59.9572 15.4602V16.2486H51.0155V14.5156H57.4927C57.488 14.0232 57.3815 13.5852 57.1731 13.2017C56.9648 12.8134 56.6736 12.508 56.2996 12.2855C55.9302 12.063 55.4994 11.9517 55.0069 11.9517C54.4814 11.9517 54.0197 12.0795 53.622 12.3352C53.2243 12.5862 52.9141 12.9176 52.6916 13.3295C52.4738 13.7367 52.3625 14.1842 52.3578 14.6719V16.1847C52.3578 16.8191 52.4738 17.3636 52.7058 17.8182C52.9378 18.268 53.2622 18.6136 53.6788 18.8551C54.0955 19.0919 54.5832 19.2102 55.1419 19.2102C55.5159 19.2102 55.8545 19.1581 56.1575 19.054C56.4605 18.9451 56.7233 18.7865 56.9459 18.5781C57.1684 18.3698 57.3365 18.1117 57.4501 17.804L59.8507 18.0739C59.6992 18.7083 59.4104 19.2623 58.9842 19.7358C58.5628 20.2045 58.023 20.5691 57.3649 20.8295C56.7068 21.0852 55.9539 21.2131 55.1064 21.2131ZM62.2459 21V6.45455H64.817V11.8949H64.9235C65.0561 11.6297 65.2431 11.348 65.4846 11.0497C65.7261 10.7467 66.0528 10.4886 66.4647 10.2756C66.8766 10.0578 67.4022 9.94886 68.0414 9.94886C68.8842 9.94886 69.6441 10.1643 70.3212 10.5952C71.003 11.0213 71.5428 11.6534 71.9405 12.4915C72.343 13.3248 72.5442 14.3475 72.5442 15.5597C72.5442 16.7576 72.3477 17.7756 71.9547 18.6136C71.5618 19.4517 71.0267 20.0909 70.3496 20.5312C69.6725 20.9716 68.9055 21.1918 68.0485 21.1918C67.4235 21.1918 66.905 21.0876 66.4931 20.8793C66.0812 20.6709 65.7497 20.42 65.4988 20.1264C65.2526 19.8281 65.0608 19.5464 64.9235 19.2812H64.7743V21H62.2459ZM64.7672 15.5455C64.7672 16.2509 64.8667 16.8688 65.0655 17.3991C65.2691 17.9295 65.5603 18.3437 65.9391 18.642C66.3226 18.9356 66.7867 19.0824 67.3312 19.0824C67.8993 19.0824 68.3752 18.9309 68.7587 18.6278C69.1422 18.3201 69.4311 17.901 69.6252 17.3707C69.8241 16.8357 69.9235 16.2273 69.9235 15.5455C69.9235 14.8684 69.8264 14.267 69.6323 13.7415C69.4382 13.2159 69.1493 12.804 68.7658 12.5057C68.3823 12.2074 67.9041 12.0582 67.3312 12.0582C66.7819 12.0582 66.3155 12.2027 65.932 12.4915C65.5485 12.7803 65.2573 13.1851 65.0584 13.706C64.8643 14.2268 64.7672 14.84 64.7672 15.5455ZM86.7967 6.45455V21H84.453L77.5993 11.0923H77.4785V21H74.8436V6.45455H77.2015L84.0481 16.3693H84.176V6.45455H86.7967ZM94.3837 21.2131C93.29 21.2131 92.3454 20.9858 91.5499 20.5312C90.7592 20.072 90.1508 19.4233 89.7246 18.5852C89.2985 17.7424 89.0854 16.7505 89.0854 15.6094C89.0854 14.4872 89.2985 13.5024 89.7246 12.6548C90.1555 11.8026 90.7568 11.1397 91.5286 10.6662C92.3004 10.188 93.2071 9.94886 94.2488 9.94886C94.9211 9.94886 95.5556 10.0578 96.1522 10.2756C96.7535 10.4886 97.2838 10.8201 97.7431 11.2699C98.2071 11.7197 98.5717 12.2926 98.8368 12.9886C99.102 13.6799 99.2346 14.5038 99.2346 15.4602V16.2486H90.2928V14.5156H96.7701C96.7654 14.0232 96.6588 13.5852 96.4505 13.2017C96.2422 12.8134 95.951 12.508 95.5769 12.2855C95.2076 12.063 94.7767 11.9517 94.2843 11.9517C93.7587 11.9517 93.2971 12.0795 92.8993 12.3352C92.5016 12.5862 92.1915 12.9176 91.9689 13.3295C91.7511 13.7367 91.6399 14.1842 91.6351 14.6719V16.1847C91.6351 16.8191 91.7511 17.3636 91.9832 17.8182C92.2152 18.268 92.5395 18.6136 92.9562 18.8551C93.3728 19.0919 93.8605 19.2102 94.4192 19.2102C94.7933 19.2102 95.1318 19.1581 95.4349 19.054C95.7379 18.9451 96.0007 18.7865 96.2232 18.5781C96.4457 18.3698 96.6138 18.1117 96.7275 17.804L99.128 18.0739C98.9765 18.7083 98.6877 19.2623 98.2616 19.7358C97.8402 20.2045 97.3004 20.5691 96.6422 20.8295C95.9841 21.0852 95.2313 21.2131 94.3837 21.2131ZM110.032 12.9744L107.688 13.2301C107.622 12.9934 107.506 12.7708 107.34 12.5625C107.179 12.3542 106.961 12.1861 106.687 12.0582C106.412 11.9304 106.076 11.8665 105.678 11.8665C105.143 11.8665 104.693 11.9825 104.329 12.2145C103.969 12.4465 103.791 12.7472 103.796 13.1165C103.791 13.4337 103.907 13.6918 104.144 13.8906C104.385 14.0895 104.783 14.2528 105.337 14.3807L107.198 14.7784C108.23 15.0009 108.997 15.3537 109.499 15.8366C110.006 16.3196 110.261 16.9517 110.266 17.733C110.261 18.4195 110.06 19.0256 109.662 19.5511C109.269 20.072 108.723 20.4792 108.022 20.7727C107.321 21.0663 106.516 21.2131 105.607 21.2131C104.272 21.2131 103.197 20.9337 102.383 20.375C101.568 19.8116 101.083 19.0279 100.927 18.0241L103.434 17.7827C103.547 18.2751 103.789 18.6468 104.158 18.8977C104.528 19.1487 105.008 19.2741 105.6 19.2741C106.211 19.2741 106.701 19.1487 107.07 18.8977C107.444 18.6468 107.631 18.3366 107.631 17.9673C107.631 17.6548 107.51 17.3968 107.269 17.1932C107.032 16.9896 106.663 16.8333 106.161 16.7244L104.3 16.3338C103.254 16.116 102.48 15.7491 101.978 15.233C101.476 14.7121 101.227 14.054 101.232 13.2585C101.227 12.5862 101.41 12.0038 101.779 11.5114C102.153 11.0142 102.671 10.6307 103.334 10.3608C104.002 10.0862 104.771 9.94886 105.643 9.94886C106.921 9.94886 107.927 10.2211 108.661 10.7656C109.4 11.3101 109.857 12.0464 110.032 12.9744ZM117.834 10.0909V12.0795H111.562V10.0909H117.834ZM113.111 7.47727H115.682V17.7188C115.682 18.0644 115.734 18.3295 115.838 18.5142C115.947 18.6941 116.089 18.8172 116.264 18.8835C116.439 18.9498 116.633 18.983 116.846 18.983C117.007 18.983 117.154 18.9711 117.287 18.9474C117.424 18.9238 117.528 18.9025 117.599 18.8835L118.033 20.8935C117.895 20.9408 117.699 20.9929 117.443 21.0497C117.192 21.1065 116.884 21.1397 116.52 21.1491C115.876 21.1681 115.296 21.071 114.78 20.858C114.264 20.6402 113.854 20.304 113.551 19.8494C113.253 19.3949 113.106 18.8267 113.111 18.1449V7.47727ZM128.45 12.9744L126.106 13.2301C126.04 12.9934 125.924 12.7708 125.758 12.5625C125.597 12.3542 125.379 12.1861 125.105 12.0582C124.83 11.9304 124.494 11.8665 124.096 11.8665C123.561 11.8665 123.111 11.9825 122.747 12.2145C122.387 12.4465 122.209 12.7472 122.214 13.1165C122.209 13.4337 122.325 13.6918 122.562 13.8906C122.803 14.0895 123.201 14.2528 123.755 14.3807L125.616 14.7784C126.648 15.0009 127.415 15.3537 127.917 15.8366C128.424 16.3196 128.679 16.9517 128.684 17.733C128.679 18.4195 128.478 19.0256 128.08 19.5511C127.687 20.072 127.141 20.4792 126.44 20.7727C125.739 21.0663 124.934 21.2131 124.025 21.2131C122.69 21.2131 121.615 20.9337 120.801 20.375C119.986 19.8116 119.501 19.0279 119.345 18.0241L121.852 17.7827C121.965 18.2751 122.207 18.6468 122.576 18.8977C122.946 19.1487 123.426 19.2741 124.018 19.2741C124.629 19.2741 125.119 19.1487 125.488 18.8977C125.862 18.6468 126.049 18.3366 126.049 17.9673C126.049 17.6548 125.928 17.3968 125.687 17.1932C125.45 16.9896 125.081 16.8333 124.579 16.7244L122.718 16.3338C121.672 16.116 120.898 15.7491 120.396 15.233C119.894 14.7121 119.645 14.054 119.65 13.2585C119.645 12.5862 119.828 12.0038 120.197 11.5114C120.571 11.0142 121.089 10.6307 121.752 10.3608C122.42 10.0862 123.189 9.94886 124.061 9.94886C125.339 9.94886 126.345 10.2211 127.079 10.7656C127.818 11.3101 128.275 12.0464 128.45 12.9744Z" fill="black"/>
</svg>
