<svg width="309" height="302" viewBox="0 0 309 302" fill="none" xmlns="http://www.w3.org/2000/svg">
<path d="M262.909 301.803C262.909 301.904 212.953 301.99 151.351 301.99C89.7479 301.99 39.7708 301.904 39.7708 301.803C39.7708 301.702 89.7191 301.616 151.351 301.616C212.982 301.616 262.909 301.71 262.909 301.803Z" fill="#263238"/>
<path d="M214.234 213.733C203.119 205.971 200.601 191.561 201.04 178.605C201.112 176.447 200.875 174.159 201.903 172.267C202.932 170.375 205.335 169.073 207.27 169.979C208.874 170.734 209.572 172.605 210.471 174.152C211.671 176.212 213.43 177.89 215.543 178.993C216.917 179.713 218.622 180.144 219.982 179.396C221.852 178.367 222.068 175.799 222.054 173.641C222.054 169.627 222.03 165.617 221.982 161.612C221.853 159.462 222.071 157.305 222.629 155.224C223.298 153.181 224.788 151.289 226.824 150.713C228.859 150.138 231.399 151.325 231.859 153.426C231.939 154.315 231.96 155.209 231.924 156.102C231.982 157.001 232.399 157.987 233.241 158.26C234.082 158.533 234.96 157.907 235.608 157.274C237.823 155.116 239.334 152.303 240.737 149.526C242.14 146.749 243.514 143.893 245.528 141.527C247.542 139.16 250.327 137.282 253.442 137.102C256.557 136.922 259.801 138.836 260.578 141.858C261.355 144.879 259.593 147.965 257.7 150.418C254.845 154.06 251.48 157.27 247.708 159.951C246.972 160.353 246.384 160.981 246.032 161.742C245.564 163.181 246.924 164.62 248.341 165.073C249.945 165.605 251.686 165.44 253.377 165.641C255.067 165.843 256.866 166.576 257.506 168.159C258.384 170.36 256.542 172.662 254.737 174.173C251.111 177.195 246.994 179.572 242.564 181.202C240.981 181.777 239.32 182.288 238.039 183.396C236.759 184.504 235.996 186.439 236.766 187.957C237.536 189.475 239.514 189.957 241.176 189.648C242.838 189.338 244.312 188.446 245.895 187.849C248.852 186.734 252.665 186.936 254.528 189.489C255.105 190.369 255.471 191.371 255.595 192.416C255.72 193.46 255.601 194.52 255.247 195.511C254.527 197.483 253.419 199.291 251.988 200.827C247.277 206.457 241.154 210.734 234.248 213.223C227.392 215.597 221.04 216.244 214.227 213.748" fill="#4CAF4F"/>
<path d="M257.413 138.879C257.413 138.879 257.348 138.951 257.204 139.081L256.564 139.649C256.003 140.152 255.175 140.886 254.132 141.857C251.175 144.604 248.428 147.569 245.917 150.728C244.312 152.721 242.651 154.979 240.881 157.433C239.111 159.886 237.284 162.533 235.471 165.346C233.538 168.312 231.768 171.382 230.169 174.54C229.334 176.188 228.601 177.907 227.845 179.662L225.615 185.022C222.675 191.773 220.115 198.683 217.946 205.719C216.199 211.476 214.995 217.385 214.349 223.366C213.931 227.403 213.863 231.469 214.148 235.517C214.263 236.956 214.371 238.056 214.471 238.805C214.515 239.164 214.543 239.452 214.572 239.661V239.956C214.541 239.862 214.519 239.766 214.507 239.668C214.471 239.459 214.428 239.179 214.371 238.819C214.241 238.1 214.105 236.963 213.975 235.524C213.628 231.468 213.652 227.389 214.047 223.337C214.653 217.33 215.831 211.395 217.565 205.611C219.716 198.555 222.269 191.628 225.212 184.864L227.5 179.526C228.255 177.777 228.996 176.044 229.838 174.389C231.448 171.221 233.233 168.144 235.183 165.173C237.025 162.296 238.881 159.692 240.629 157.26C242.377 154.828 244.068 152.555 245.665 150.57C248.202 147.419 250.985 144.474 253.988 141.764C255.053 140.807 255.902 140.088 256.478 139.606L257.147 139.066C257.229 138.995 257.318 138.932 257.413 138.879Z" fill="#263238"/>
<path d="M229.931 174.375C229.83 174.078 229.76 173.772 229.723 173.461C229.608 172.864 229.478 172.022 229.327 170.929C229.018 168.771 228.701 165.814 228.363 162.54C228.025 159.267 227.644 156.303 227.327 154.167C227.162 153.102 227.018 152.246 226.917 151.649C226.838 151.343 226.797 151.029 226.795 150.713C226.919 151.002 227.008 151.303 227.061 151.613C227.219 152.203 227.399 153.052 227.601 154.123C228.011 156.282 228.413 159.217 228.752 162.497C229.09 165.778 229.377 168.655 229.6 170.893C229.708 171.9 229.802 172.756 229.874 173.439C229.93 173.748 229.949 174.062 229.931 174.375Z" fill="#263238"/>
<path d="M257.614 169.209C257.264 169.286 256.908 169.329 256.549 169.339C255.83 169.404 254.808 169.49 253.542 169.634C251.01 169.907 247.528 170.411 243.708 171.13C239.888 171.85 236.456 172.663 233.989 173.288C232.759 173.605 231.766 173.893 231.111 174.087C230.762 174.211 230.4 174.298 230.032 174.346C230.365 174.179 230.711 174.042 231.068 173.936C231.744 173.698 232.723 173.368 233.946 173.015C236.399 172.296 239.83 171.44 243.665 170.706C246.913 170.085 250.19 169.628 253.485 169.339C254.758 169.231 255.787 169.188 256.506 169.173C256.876 169.148 257.247 169.16 257.614 169.209Z" fill="#263238"/>
<path d="M217.917 205.108C217.841 205.004 217.778 204.89 217.73 204.77L217.255 203.77C216.845 202.899 216.291 201.611 215.63 200.036C214.292 196.871 212.587 192.439 210.774 187.518C208.961 182.597 207.292 178.166 206.026 174.965C205.407 173.411 204.896 172.137 204.515 171.188L204.112 170.159C204.056 170.04 204.017 169.914 203.997 169.785C204.074 169.889 204.136 170.003 204.184 170.123L204.659 171.123C205.062 171.993 205.623 173.281 206.285 174.857C207.623 178.022 209.328 182.454 211.141 187.374C212.953 192.295 214.622 196.727 215.889 199.928C216.507 201.482 217.018 202.755 217.392 203.705C217.558 204.115 217.694 204.424 217.802 204.734C217.858 204.852 217.897 204.978 217.917 205.108Z" fill="#263238"/>
<path d="M254.665 193.259C254.549 193.325 254.426 193.376 254.298 193.41L253.233 193.77L249.298 195.043C245.974 196.122 241.384 197.662 236.349 199.36C231.313 201.058 226.701 202.568 223.356 203.575C221.687 204.086 220.327 204.475 219.385 204.734L218.299 205.014C218.172 205.054 218.042 205.081 217.91 205.093C218.025 205.027 218.149 204.976 218.277 204.942L219.342 204.583L223.277 203.309C226.601 202.23 231.19 200.691 236.226 198.993C241.262 197.295 245.866 195.784 249.212 194.777C250.888 194.266 252.24 193.878 253.19 193.619L254.276 193.338C254.402 193.298 254.533 193.272 254.665 193.259Z" fill="#263238"/>
<path d="M239.672 18.7528L235.967 20.0765L234.377 15.2349C231.457 6.30705 222.147 1.56616 213.594 4.58048C205.04 7.59479 200.486 17.3859 203.407 26.3137L204.997 31.1553L201.278 32.4862C199.859 33.0363 198.708 34.1118 198.062 35.4891C197.416 36.8665 197.326 38.4397 197.81 39.8817L208.119 71.3845C208.333 72.0984 208.688 72.762 209.164 73.3359C209.639 73.9097 210.225 74.3821 210.887 74.7251C211.549 75.068 212.273 75.2744 213.016 75.3321C213.759 75.3897 214.506 75.2974 215.212 75.0607L253.607 61.3272C255.044 60.7781 256.212 59.6931 256.866 58.3004C257.519 56.9077 257.607 55.3159 257.111 53.8598L246.794 22.357C246.575 21.6451 246.214 20.9848 245.734 20.4153C245.253 19.8459 244.663 19.379 243.999 19.0427C243.334 18.7063 242.608 18.5073 241.865 18.4574C241.122 18.4076 240.376 18.5081 239.672 18.7528ZM210.407 23.7886C209.619 21.4673 209.761 18.9312 210.801 16.7117C211.842 14.4923 213.701 12.7616 215.989 11.8825C217.119 11.4959 218.315 11.3408 219.507 11.4266C220.698 11.5124 221.859 11.8373 222.922 12.3818C223.985 12.9263 224.927 13.6793 225.693 14.5959C226.458 15.5125 227.031 16.5739 227.378 17.7168L228.96 22.5584L211.989 28.6302L210.407 23.7886ZM231.989 51.7447L234.622 59.7877C234.67 59.949 234.655 60.1227 234.578 60.2727C234.502 60.4228 234.371 60.5376 234.212 60.5934L230.521 61.91C230.375 61.9507 230.218 61.933 230.083 61.8606C229.949 61.7881 229.848 61.6666 229.802 61.5215L227.147 53.5145C225.684 53.4347 224.279 52.9097 223.122 52.0097C221.965 51.1097 221.11 49.8777 220.673 48.4786C220.047 46.629 220.161 44.609 220.991 42.8416C221.821 41.0742 223.303 39.6965 225.126 38.9969C226.026 38.6894 226.979 38.5662 227.927 38.6347C228.876 38.7032 229.801 38.962 230.648 39.3957C231.494 39.8294 232.245 40.429 232.855 41.159C233.465 41.8889 233.921 42.7341 234.198 43.6442C234.66 45.0655 234.699 46.5908 234.308 48.0335C233.917 49.4761 233.113 50.7734 231.996 51.7663L231.989 51.7447Z" fill="#4CAF4F"/>
<path d="M235.802 19.9902C235.802 20.0909 228.932 22.6736 220.385 25.7454C211.838 28.8173 204.867 31.2848 204.831 31.2129C204.795 31.141 211.702 28.5367 220.256 25.4577C228.809 22.3786 235.766 19.8966 235.802 19.9902Z" fill="#263238"/>
<path d="M243.96 21.3138C243.992 21.3763 244.018 21.4412 244.039 21.5081C244.097 21.652 244.161 21.839 244.248 22.0692C244.435 22.5944 244.694 23.321 245.017 24.2274L247.78 32.2704C248.931 35.6804 250.305 39.7234 251.83 44.2125C252.55 46.4643 253.399 48.8095 254.19 51.2771C254.613 52.5487 254.796 53.8881 254.729 55.2267C254.668 55.9228 254.47 56.6001 254.147 57.2194C253.801 57.8367 253.339 58.3814 252.787 58.8237C251.676 59.635 250.442 60.264 249.132 60.6869L245.428 62.0178L238.413 64.5286L226.536 68.7587L218.515 71.5788L216.356 72.2982L215.781 72.4852C215.719 72.5126 215.654 72.5296 215.587 72.5356C215.587 72.5356 215.644 72.5356 215.766 72.4492L216.328 72.2262L218.486 71.4133L226.464 68.4781L238.32 64.1617L245.32 61.6294L249.025 60.2913C250.297 59.8855 251.495 59.2757 252.571 58.4856C253.085 58.0752 253.515 57.5696 253.837 56.9964C254.142 56.4236 254.326 55.7943 254.377 55.1475C254.443 53.8578 254.267 52.567 253.859 51.3419C253.082 48.8959 252.262 46.529 251.521 44.2773C250.025 39.781 248.643 35.7235 247.55 32.3136C246.456 28.9036 245.535 26.1626 244.902 24.2346C244.6 23.2922 244.37 22.5584 244.183 22.0261L244.01 21.4505C243.989 21.4069 243.972 21.3611 243.96 21.3138Z" fill="#263238"/>
<path d="M223.701 11.3933C223.701 11.3933 223.32 11.2062 222.615 10.9185C221.61 10.5323 220.547 10.3183 219.471 10.2854C217.876 10.2307 216.289 10.5304 214.824 11.1631C213.042 11.9508 211.519 13.2249 210.428 14.8392C209.331 16.4489 208.742 18.3512 208.738 20.2995C208.753 21.8964 208.995 23.483 209.457 25.0116C209.831 26.3209 210.22 27.3641 210.479 28.0907C210.632 28.4597 210.757 28.8397 210.853 29.2273C210.649 28.8823 210.477 28.5185 210.342 28.141C210.047 27.4216 209.623 26.4001 209.205 25.0836C208.693 23.5389 208.414 21.9265 208.378 20.2995C208.359 18.2776 208.962 16.2986 210.105 14.6306C211.233 12.9573 212.819 11.6438 214.673 10.8465C216.184 10.2104 217.821 9.92985 219.457 10.0264C220.556 10.0824 221.636 10.3384 222.644 10.7818C222.913 10.9061 223.173 11.0503 223.421 11.2134C223.523 11.2584 223.618 11.3191 223.701 11.3933Z" fill="#263238"/>
<path d="M224.032 39.5436C224.147 39.474 224.268 39.4139 224.392 39.3638C224.752 39.2013 225.125 39.0689 225.507 38.9681C226.114 38.7891 226.739 38.6829 227.37 38.6516C228.229 38.6054 229.089 38.7352 229.896 39.0328C231.737 39.6803 233.428 41.558 234.262 44.0687C234.663 45.4161 234.663 46.8507 234.262 48.1981C233.819 49.6605 233.023 50.9918 231.946 52.0757L231.989 51.8814C232.946 54.5073 233.989 57.3561 235.068 60.3273L235.133 60.5071L234.953 60.5719L233.306 61.1186L229.709 62.32L229.529 62.3776L229.471 62.1977C228.485 59.2194 227.406 56.4425 226.593 53.7159L226.752 53.8382C225.345 53.7214 224.004 53.1935 222.896 52.3203C221.893 51.5477 221.07 50.5657 220.486 49.4427C219.958 48.4467 219.696 47.332 219.723 46.2053C219.756 45.0539 220.044 43.924 220.565 42.8967C221.086 41.8694 221.828 40.97 222.737 40.263C223.112 39.9591 223.532 39.7164 223.982 39.5436C223.576 39.7847 223.182 40.0465 222.802 40.3278C221.803 41.173 221.038 42.2604 220.579 43.486C220.186 44.4102 220.002 45.41 220.04 46.4138C220.079 47.4175 220.339 48.4003 220.802 49.2916C221.377 50.372 222.18 51.3146 223.155 52.0541C224.212 52.8841 225.491 53.3845 226.831 53.4929H226.953L226.989 53.6008C227.78 56.277 228.867 59.0755 229.867 62.0682L229.629 61.9531L233.226 60.7517L234.867 60.1978L234.752 60.4424C233.68 57.4712 232.644 54.6152 231.694 51.9894V51.8814L231.78 51.7951C232.826 50.7562 233.606 49.4803 234.054 48.0758C234.435 46.7869 234.435 45.4151 234.054 44.1262C233.27 41.709 231.651 39.8746 229.896 39.2271C229.119 38.9275 228.289 38.788 227.457 38.817C226.835 38.8313 226.218 38.9157 225.615 39.0688C224.543 39.335 224.04 39.5796 224.032 39.5436Z" fill="#263238"/>
<path d="M201.795 247.265L129.934 246.934C125.784 246.911 121.813 245.242 118.892 242.294C115.972 239.345 114.342 235.358 114.359 231.208L115.121 51.0613C115.13 49.0053 115.543 46.9711 116.339 45.075C117.134 43.1789 118.295 41.4581 119.755 40.011C121.216 38.5638 122.947 37.4187 124.85 36.6411C126.754 35.8634 128.792 35.4685 130.848 35.479L202.702 35.8099C206.852 35.8308 210.824 37.498 213.745 40.4453C216.667 43.3926 218.299 47.3789 218.284 51.5289L217.522 231.668C217.513 233.725 217.1 235.76 216.305 237.657C215.51 239.554 214.349 241.275 212.889 242.724C211.428 244.172 209.697 245.318 207.794 246.098C205.89 246.877 203.852 247.273 201.795 247.265Z" fill="#455A64"/>
<path d="M202.594 42.004H188.666C188.212 42.0124 187.763 42.1103 187.347 42.292C186.93 42.4738 186.554 42.7358 186.238 43.0631C185.923 43.3905 185.675 43.7767 185.509 44.1999C185.343 44.623 185.262 45.0747 185.271 45.5291V48.0542C185.279 48.5083 185.198 48.9596 185.032 49.3823C184.866 49.805 184.618 50.1908 184.303 50.5176C183.987 50.8444 183.61 51.1057 183.194 51.2867C182.777 51.4676 182.329 51.5646 181.875 51.5721L154.725 51.4498C153.806 51.4253 152.935 51.0373 152.302 50.371C151.67 49.7046 151.327 48.8145 151.351 47.8959V45.3708C151.374 44.4535 151.033 43.5644 150.401 42.8983C149.77 42.2322 148.901 41.8433 147.984 41.817H143.085L130.891 41.7594C127.99 41.7421 125.201 42.8748 123.134 44.9095C121.067 46.9442 119.891 49.715 119.862 52.6152L119.143 228.453C119.136 229.891 119.413 231.317 119.958 232.649C120.502 233.981 121.304 235.193 122.316 236.215C123.329 237.237 124.533 238.049 125.86 238.606C127.187 239.163 128.61 239.453 130.049 239.459L201.759 239.79C203.199 239.797 204.626 239.52 205.959 238.975C207.292 238.43 208.504 237.628 209.527 236.615C210.55 235.601 211.363 234.396 211.92 233.069C212.477 231.741 212.767 230.317 212.774 228.877L213.493 53.0397C213.51 50.1312 212.372 47.335 210.328 45.2656C208.284 43.1962 205.502 42.023 202.594 42.004Z" fill="white"/>
<path d="M192.947 216.331L139.624 216.1C139.07 216.1 138.624 215.496 138.632 214.762L138.689 200.813C138.689 200.094 139.142 199.475 139.696 199.475L193.019 199.719C193.326 199.773 193.6 199.942 193.785 200.193C193.97 200.443 194.051 200.756 194.011 201.065L193.961 215C193.961 215.741 193.501 216.338 192.947 216.331Z" fill="#4CAF4F"/>
<path d="M155.836 209.653C155.542 209.653 155.259 209.606 154.987 209.512C154.719 209.414 154.512 209.289 154.365 209.138L154.529 208.816C154.669 208.952 154.855 209.067 155.089 209.161C155.327 209.251 155.576 209.297 155.836 209.297C156.085 209.297 156.287 209.267 156.442 209.206C156.6 209.142 156.716 209.057 156.787 208.952C156.863 208.846 156.9 208.729 156.9 208.601C156.9 208.446 156.855 208.321 156.765 208.227C156.678 208.133 156.563 208.059 156.419 208.006C156.276 207.95 156.117 207.901 155.944 207.859C155.77 207.818 155.597 207.774 155.423 207.729C155.25 207.68 155.089 207.616 154.942 207.537C154.799 207.457 154.682 207.354 154.591 207.225C154.504 207.093 154.461 206.921 154.461 206.71C154.461 206.514 154.512 206.335 154.614 206.172C154.719 206.006 154.88 205.874 155.095 205.776C155.31 205.674 155.585 205.623 155.921 205.623C156.144 205.623 156.365 205.656 156.583 205.72C156.802 205.78 156.991 205.865 157.149 205.974L157.008 206.308C156.838 206.195 156.657 206.112 156.465 206.059C156.276 206.006 156.093 205.98 155.916 205.98C155.678 205.98 155.482 206.012 155.327 206.076C155.172 206.14 155.057 206.227 154.982 206.337C154.91 206.442 154.874 206.563 154.874 206.699C154.874 206.854 154.918 206.978 155.004 207.072C155.095 207.167 155.212 207.24 155.355 207.293C155.502 207.346 155.663 207.393 155.836 207.435C156.01 207.476 156.182 207.521 156.351 207.57C156.525 207.62 156.683 207.684 156.827 207.763C156.974 207.838 157.091 207.94 157.178 208.069C157.268 208.197 157.314 208.365 157.314 208.572C157.314 208.765 157.261 208.944 157.155 209.11C157.049 209.272 156.887 209.404 156.668 209.506C156.453 209.604 156.176 209.653 155.836 209.653ZM158.226 209.619V205.657H158.645V209.619H158.226ZM159.934 209.619V205.657H160.279L163.013 209.099H162.832V205.657H163.245V209.619H162.9L160.172 206.178H160.353V209.619H159.934ZM166.276 209.653C165.974 209.653 165.695 209.604 165.438 209.506C165.185 209.404 164.965 209.263 164.776 209.082C164.591 208.901 164.446 208.687 164.34 208.442C164.238 208.197 164.187 207.929 164.187 207.638C164.187 207.348 164.238 207.08 164.34 206.835C164.446 206.589 164.593 206.376 164.782 206.195C164.97 206.014 165.191 205.874 165.444 205.776C165.701 205.674 165.98 205.623 166.282 205.623C166.583 205.623 166.859 205.671 167.108 205.765C167.361 205.859 167.576 206.003 167.753 206.195L167.493 206.461C167.327 206.295 167.144 206.176 166.944 206.105C166.744 206.033 166.529 205.997 166.299 205.997C166.053 205.997 165.827 206.039 165.619 206.122C165.416 206.201 165.236 206.316 165.082 206.467C164.931 206.614 164.812 206.788 164.725 206.988C164.642 207.184 164.601 207.401 164.601 207.638C164.601 207.872 164.642 208.089 164.725 208.289C164.812 208.489 164.931 208.665 165.082 208.816C165.236 208.963 165.416 209.078 165.619 209.161C165.827 209.24 166.051 209.28 166.293 209.28C166.519 209.28 166.733 209.246 166.932 209.178C167.136 209.11 167.323 208.995 167.493 208.833L167.731 209.15C167.542 209.316 167.321 209.442 167.068 209.529C166.816 209.612 166.551 209.653 166.276 209.653ZM167.329 209.099V207.638H167.731V209.15L167.329 209.099ZM171.993 209.653C171.488 209.653 171.09 209.508 170.799 209.218C170.509 208.927 170.363 208.497 170.363 207.927V205.657H170.782V207.91C170.782 208.378 170.888 208.723 171.099 208.946C171.31 209.168 171.608 209.28 171.993 209.28C172.382 209.28 172.682 209.168 172.893 208.946C173.105 208.723 173.21 208.378 173.21 207.91V205.657H173.618V207.927C173.618 208.497 173.472 208.927 173.182 209.218C172.895 209.508 172.499 209.653 171.993 209.653ZM174.88 209.619V205.657H176.363C176.699 205.657 176.987 205.712 177.229 205.822C177.47 205.927 177.655 206.082 177.783 206.286C177.916 206.486 177.982 206.729 177.982 207.016C177.982 207.295 177.916 207.537 177.783 207.74C177.655 207.94 177.47 208.095 177.229 208.204C176.987 208.314 176.699 208.369 176.363 208.369H175.112L175.299 208.17V209.619H174.88ZM175.299 208.204L175.112 208.001H176.351C176.748 208.001 177.048 207.916 177.251 207.746C177.459 207.572 177.563 207.329 177.563 207.016C177.563 206.699 177.459 206.454 177.251 206.28C177.048 206.106 176.748 206.02 176.351 206.02H175.112L175.299 205.822V208.204Z" fill="#E8E8E3"/>
<path d="M150.26 93.6935L131.757 93.6095L131.742 97.0051L150.245 97.089L150.26 93.6935Z" fill="#4CAF4F"/>
<path opacity="0.1" d="M150.26 93.6935L131.757 93.6095L131.742 97.0051L150.245 97.089L150.26 93.6935Z" fill="black"/>
<path d="M204.5 114.542C204.646 114.527 204.788 114.493 204.925 114.441C205.124 114.363 205.297 114.231 205.424 114.059C205.552 113.887 205.628 113.683 205.644 113.47C205.644 112.326 205.644 110.657 205.644 108.513C205.644 107.441 205.644 106.24 205.644 104.916C205.644 104.592 205.644 104.254 205.644 103.916C205.691 103.588 205.62 103.254 205.443 102.974C205.344 102.839 205.215 102.73 205.066 102.654C204.918 102.577 204.754 102.537 204.587 102.535H203.464H193.069L132.898 102.312C132.744 102.309 132.592 102.344 132.454 102.413C132.316 102.482 132.197 102.583 132.107 102.707C131.933 102.989 131.866 103.323 131.92 103.65C131.92 104.369 131.92 105.089 131.92 105.808C131.92 107.247 131.92 108.686 131.92 110.125C131.92 110.844 131.92 111.563 131.92 112.283C131.89 112.618 131.89 112.955 131.92 113.29C131.957 113.434 132.028 113.567 132.125 113.679C132.222 113.791 132.344 113.88 132.481 113.937C132.622 113.994 132.774 114.021 132.927 114.017H136.588L152.566 114.103L179.616 114.268L197.853 114.412L202.81 114.47H204.098C204.392 114.47 204.536 114.47 204.536 114.47H204.098H202.81H197.853H179.616L152.566 114.383L136.588 114.319H132.927C132.725 114.327 132.524 114.293 132.337 114.218C132.147 114.137 131.979 114.014 131.844 113.858C131.71 113.702 131.612 113.518 131.56 113.319C131.518 113.13 131.504 112.936 131.517 112.743V112.211C131.517 111.491 131.517 110.772 131.517 110.053C131.517 108.614 131.517 107.175 131.517 105.736C131.517 105.017 131.517 104.297 131.517 103.578C131.503 103.386 131.503 103.194 131.517 103.002C131.544 102.791 131.625 102.59 131.754 102.42C131.878 102.246 132.042 102.105 132.233 102.009C132.423 101.912 132.634 101.863 132.848 101.866L193.019 102.197L203.414 102.269H204.536C204.734 102.269 204.929 102.317 205.104 102.408C205.28 102.499 205.43 102.632 205.544 102.794C205.746 103.107 205.828 103.483 205.774 103.851C205.774 104.189 205.774 104.528 205.774 104.851C205.774 106.161 205.774 107.362 205.774 108.448C205.774 110.607 205.723 112.261 205.709 113.412C205.691 113.634 205.611 113.845 205.477 114.022C205.343 114.2 205.162 114.335 204.954 114.412C204.817 114.497 204.661 114.541 204.5 114.542Z" fill="#E0E0E0"/>
<path d="M171.156 105.923H137.315V109.096H171.156V105.923Z" fill="#4CAF4F"/>
<path opacity="0.2" d="M171.156 105.923H137.315V109.096H171.156V105.923Z" fill="white"/>
<path d="M150.134 124.67L131.631 124.586L131.616 127.982L150.119 128.066L150.134 124.67Z" fill="#4CAF4F"/>
<path opacity="0.1" d="M150.134 124.67L131.631 124.586L131.616 127.982L150.119 128.066L150.134 124.67Z" fill="black"/>
<path d="M204.033 145.519C204.178 145.501 204.322 145.475 204.464 145.44C204.665 145.376 204.85 145.27 205.007 145.128C205.163 144.987 205.287 144.814 205.371 144.62C205.484 144.33 205.529 144.017 205.5 143.706C205.5 143.361 205.5 142.987 205.5 142.57C205.5 141.735 205.5 140.786 205.5 139.692V135.124C205.535 134.793 205.462 134.46 205.292 134.174C205.114 133.881 204.835 133.663 204.508 133.563C204.149 133.499 203.784 133.48 203.421 133.505H193.069L133.107 133.282C132.784 133.283 132.473 133.401 132.231 133.614C131.988 133.827 131.832 134.121 131.79 134.44C131.79 135.124 131.79 135.879 131.79 136.599C131.79 138.038 131.79 139.476 131.79 140.915C131.79 141.635 131.79 142.354 131.79 143.073C131.763 143.41 131.778 143.748 131.833 144.081C131.923 144.372 132.108 144.625 132.358 144.8C132.624 144.969 132.936 145.049 133.25 145.03H134.25H136.329L152.25 145.109L179.206 145.275L197.378 145.419L202.321 145.476H197.378H179.206L152.236 145.447L136.315 145.39H133.186C132.797 145.413 132.41 145.309 132.085 145.095C131.758 144.868 131.519 144.535 131.409 144.152C131.344 143.787 131.325 143.415 131.351 143.045C131.351 142.325 131.351 141.606 131.351 140.886C131.351 139.448 131.351 138.009 131.351 136.57C131.351 135.851 131.351 135.131 131.351 134.412C131.404 134 131.604 133.622 131.915 133.348C132.227 133.074 132.627 132.923 133.042 132.923L193.004 133.253L203.357 133.333C203.742 133.309 204.129 133.336 204.508 133.412C204.881 133.534 205.197 133.79 205.392 134.131C205.579 134.448 205.659 134.816 205.623 135.181C205.623 135.52 205.623 135.851 205.623 136.181C205.623 137.484 205.623 138.678 205.623 139.778C205.623 140.879 205.623 141.807 205.623 142.656C205.623 143.066 205.623 143.447 205.623 143.8C205.649 144.122 205.597 144.445 205.472 144.742C205.378 144.941 205.243 145.117 205.076 145.258C204.908 145.4 204.712 145.504 204.5 145.563C204.343 145.575 204.185 145.561 204.033 145.519Z" fill="#E0E0E0"/>
<path d="M149.995 156.992L131.492 156.908L131.476 160.304L149.979 160.388L149.995 156.992Z" fill="#4CAF4F"/>
<path opacity="0.1" d="M149.995 156.992L131.492 156.908L131.476 160.304L149.979 160.388L149.995 156.992Z" fill="black"/>
<path d="M203.889 177.828C204.034 177.811 204.178 177.784 204.32 177.749C204.521 177.685 204.705 177.58 204.861 177.44C205.017 177.3 205.142 177.128 205.227 176.936C205.34 176.645 205.384 176.333 205.356 176.022C205.356 175.67 205.356 175.303 205.356 174.878C205.356 174.051 205.356 173.094 205.356 172.001V167.432C205.391 167.102 205.318 166.769 205.148 166.483C204.966 166.195 204.688 165.981 204.364 165.879C204.006 165.812 203.641 165.79 203.277 165.814H192.925L132.963 165.591C132.64 165.592 132.329 165.709 132.087 165.922C131.844 166.136 131.688 166.429 131.646 166.749C131.646 167.468 131.646 168.188 131.646 168.907C131.646 170.346 131.646 171.785 131.646 173.224C131.646 173.943 131.646 174.663 131.646 175.382C131.619 175.716 131.634 176.052 131.689 176.382C131.775 176.675 131.961 176.93 132.214 177.101C132.478 177.274 132.792 177.355 133.106 177.331H136.236L152.156 177.418L179.112 177.583L197.285 177.727L202.227 177.785H197.285H179.112L152.156 177.706L136.236 177.641H133.106C132.717 177.667 132.33 177.563 132.006 177.346C131.678 177.119 131.44 176.786 131.33 176.403C131.265 176.038 131.246 175.666 131.272 175.296C131.272 174.576 131.272 173.857 131.272 173.137C131.272 171.699 131.272 170.26 131.272 168.821C131.272 168.102 131.272 167.382 131.272 166.627C131.323 166.216 131.522 165.838 131.832 165.564C132.142 165.289 132.541 165.138 132.955 165.138L192.918 165.468L203.27 165.548C203.656 165.524 204.043 165.551 204.421 165.627C204.795 165.749 205.11 166.005 205.306 166.346C205.492 166.663 205.573 167.031 205.536 167.396C205.536 167.735 205.536 168.073 205.536 168.396C205.536 169.699 205.536 170.893 205.536 171.994C205.536 173.094 205.536 174.022 205.536 174.871C205.536 175.281 205.536 175.662 205.536 176.015C205.564 176.337 205.512 176.66 205.385 176.957C205.292 177.156 205.157 177.332 204.989 177.473C204.822 177.615 204.625 177.719 204.414 177.778C204.245 177.835 204.065 177.853 203.889 177.828Z" fill="#E0E0E0"/>
<path d="M170.434 137.798L136.593 137.644L136.579 140.817L170.419 140.97L170.434 137.798Z" fill="#4CAF4F"/>
<path opacity="0.2" d="M170.434 137.798L136.593 137.644L136.579 140.817L170.419 140.97L170.434 137.798Z" fill="white"/>
<path d="M139.653 171.957C139.632 172.247 139.526 172.524 139.349 172.753C139.172 172.983 138.931 173.156 138.657 173.25C138.383 173.345 138.087 173.357 137.806 173.284C137.525 173.212 137.271 173.059 137.076 172.843C136.882 172.628 136.754 172.361 136.71 172.074C136.666 171.787 136.707 171.494 136.829 171.23C136.95 170.966 137.146 170.744 137.392 170.591C137.638 170.438 137.924 170.36 138.214 170.368C138.615 170.39 138.991 170.569 139.26 170.867C139.53 171.165 139.671 171.556 139.653 171.957Z" fill="#4CAF4F"/>
<path d="M144.236 171.979C144.25 172.182 144.222 172.385 144.154 172.577C144.086 172.769 143.98 172.944 143.841 173.093C143.702 173.242 143.535 173.36 143.348 173.441C143.162 173.522 142.961 173.564 142.757 173.564C142.554 173.564 142.353 173.522 142.166 173.441C141.98 173.36 141.812 173.242 141.673 173.093C141.535 172.944 141.428 172.769 141.36 172.577C141.292 172.385 141.265 172.182 141.279 171.979C141.265 171.776 141.292 171.573 141.36 171.381C141.428 171.189 141.535 171.014 141.673 170.865C141.812 170.716 141.98 170.598 142.166 170.517C142.353 170.436 142.554 170.394 142.757 170.394C142.961 170.394 143.162 170.436 143.348 170.517C143.535 170.598 143.702 170.716 143.841 170.865C143.98 171.014 144.086 171.189 144.154 171.381C144.222 171.573 144.25 171.776 144.236 171.979Z" fill="#4CAF4F"/>
<path d="M148.826 172.001C148.804 172.29 148.699 172.567 148.522 172.797C148.344 173.027 148.104 173.199 147.829 173.294C147.555 173.388 147.259 173.4 146.978 173.327C146.697 173.255 146.443 173.102 146.249 172.887C146.054 172.672 145.927 172.404 145.883 172.117C145.839 171.83 145.88 171.537 146.001 171.273C146.122 171.01 146.318 170.787 146.564 170.634C146.811 170.481 147.097 170.403 147.387 170.411C147.787 170.435 148.162 170.615 148.431 170.912C148.7 171.209 148.841 171.6 148.826 172.001Z" fill="#4CAF4F"/>
<path d="M153.408 172.022C153.387 172.312 153.281 172.588 153.104 172.818C152.927 173.048 152.686 173.221 152.412 173.315C152.138 173.41 151.842 173.421 151.561 173.349C151.28 173.277 151.026 173.123 150.831 172.908C150.637 172.693 150.509 172.426 150.465 172.139C150.421 171.852 150.462 171.559 150.584 171.295C150.705 171.031 150.901 170.809 151.147 170.656C151.393 170.502 151.679 170.425 151.969 170.432C152.369 170.456 152.744 170.636 153.013 170.934C153.282 171.231 153.424 171.622 153.408 172.022Z" fill="#4CAF4F"/>
<path d="M157.991 172.037C157.971 172.326 157.866 172.604 157.69 172.835C157.514 173.066 157.273 173.24 156.999 173.335C156.725 173.431 156.428 173.443 156.147 173.372C155.865 173.3 155.611 173.147 155.416 172.932C155.22 172.717 155.092 172.45 155.048 172.163C155.003 171.876 155.044 171.582 155.165 171.318C155.286 171.054 155.482 170.831 155.729 170.677C155.975 170.524 156.262 170.446 156.552 170.454C156.951 170.478 157.324 170.657 157.593 170.953C157.862 171.248 158.005 171.637 157.991 172.037Z" fill="#4CAF4F"/>
<path d="M162.581 172.058C162.561 172.347 162.457 172.623 162.283 172.853C162.108 173.083 161.87 173.257 161.598 173.354C161.325 173.451 161.031 173.466 160.75 173.397C160.469 173.328 160.215 173.179 160.018 172.968C159.821 172.756 159.69 172.492 159.641 172.207C159.592 171.922 159.628 171.629 159.744 171.365C159.859 171.1 160.05 170.874 160.292 170.717C160.534 170.559 160.817 170.475 161.106 170.476C161.511 170.491 161.894 170.666 162.17 170.962C162.447 171.259 162.594 171.653 162.581 172.058Z" fill="#4CAF4F"/>
<path d="M167.163 172.08C167.177 172.283 167.15 172.486 167.082 172.678C167.014 172.869 166.907 173.045 166.769 173.194C166.63 173.342 166.462 173.461 166.276 173.542C166.089 173.623 165.888 173.665 165.685 173.665C165.482 173.665 165.28 173.623 165.094 173.542C164.907 173.461 164.74 173.342 164.601 173.194C164.462 173.045 164.356 172.869 164.288 172.678C164.22 172.486 164.192 172.283 164.206 172.08C164.192 171.877 164.22 171.673 164.288 171.482C164.356 171.29 164.462 171.114 164.601 170.966C164.74 170.817 164.907 170.699 165.094 170.618C165.28 170.536 165.482 170.495 165.685 170.495C165.888 170.495 166.089 170.536 166.276 170.618C166.462 170.699 166.63 170.817 166.769 170.966C166.907 171.114 167.014 171.29 167.082 171.482C167.15 171.673 167.177 171.877 167.163 172.08Z" fill="#4CAF4F"/>
<path d="M171.746 172.101C171.726 172.39 171.623 172.666 171.448 172.896C171.273 173.126 171.035 173.301 170.763 173.397C170.491 173.494 170.196 173.509 169.915 173.44C169.635 173.372 169.38 173.222 169.183 173.011C168.986 172.8 168.855 172.535 168.806 172.25C168.758 171.965 168.793 171.673 168.909 171.408C169.025 171.143 169.215 170.918 169.457 170.76C169.699 170.602 169.982 170.518 170.271 170.519C170.676 170.534 171.059 170.709 171.335 171.005C171.612 171.302 171.759 171.696 171.746 172.101Z" fill="#4CAF4F"/>
<path d="M176.328 172.123C176.309 172.413 176.204 172.69 176.028 172.921C175.851 173.152 175.611 173.326 175.337 173.421C175.062 173.517 174.766 173.53 174.485 173.458C174.203 173.386 173.949 173.234 173.753 173.019C173.558 172.804 173.43 172.536 173.385 172.249C173.341 171.962 173.382 171.668 173.503 171.404C173.624 171.14 173.82 170.917 174.066 170.764C174.313 170.61 174.599 170.533 174.89 170.54C175.288 170.564 175.662 170.743 175.931 171.039C176.2 171.335 176.342 171.724 176.328 172.123Z" fill="#4CAF4F"/>
<g opacity="0.2">
<path d="M139.653 171.957C139.632 172.247 139.526 172.524 139.349 172.753C139.172 172.983 138.931 173.156 138.657 173.25C138.383 173.345 138.087 173.357 137.806 173.284C137.525 173.212 137.271 173.059 137.076 172.843C136.882 172.628 136.754 172.361 136.71 172.074C136.666 171.787 136.707 171.494 136.829 171.23C136.95 170.966 137.146 170.744 137.392 170.591C137.638 170.438 137.924 170.36 138.214 170.368C138.615 170.39 138.991 170.569 139.26 170.867C139.53 171.165 139.671 171.556 139.653 171.957Z" fill="white"/>
<path d="M144.236 171.979C144.25 172.182 144.222 172.385 144.154 172.577C144.086 172.769 143.98 172.944 143.841 173.093C143.702 173.242 143.535 173.36 143.348 173.441C143.162 173.522 142.961 173.564 142.757 173.564C142.554 173.564 142.353 173.522 142.166 173.441C141.98 173.36 141.812 173.242 141.673 173.093C141.535 172.944 141.428 172.769 141.36 172.577C141.292 172.385 141.265 172.182 141.279 171.979C141.265 171.776 141.292 171.573 141.36 171.381C141.428 171.189 141.535 171.014 141.673 170.865C141.812 170.716 141.98 170.598 142.166 170.517C142.353 170.436 142.554 170.394 142.757 170.394C142.961 170.394 143.162 170.436 143.348 170.517C143.535 170.598 143.702 170.716 143.841 170.865C143.98 171.014 144.086 171.189 144.154 171.381C144.222 171.573 144.25 171.776 144.236 171.979Z" fill="white"/>
<path d="M148.826 172.001C148.804 172.29 148.699 172.567 148.522 172.797C148.344 173.026 148.104 173.199 147.829 173.294C147.555 173.388 147.259 173.4 146.978 173.327C146.697 173.255 146.443 173.102 146.249 172.887C146.054 172.671 145.927 172.404 145.883 172.117C145.839 171.83 145.88 171.537 146.001 171.273C146.122 171.01 146.318 170.787 146.564 170.634C146.811 170.481 147.097 170.403 147.387 170.411C147.787 170.435 148.162 170.615 148.431 170.912C148.7 171.209 148.841 171.6 148.826 172.001Z" fill="white"/>
<path d="M153.408 172.022C153.387 172.312 153.281 172.588 153.104 172.818C152.927 173.048 152.686 173.221 152.412 173.315C152.138 173.41 151.842 173.421 151.561 173.349C151.28 173.277 151.026 173.123 150.831 172.908C150.637 172.693 150.509 172.426 150.465 172.139C150.421 171.852 150.462 171.559 150.584 171.295C150.705 171.031 150.901 170.809 151.147 170.656C151.393 170.502 151.679 170.425 151.969 170.432C152.369 170.456 152.744 170.636 153.013 170.934C153.282 171.231 153.424 171.622 153.408 172.022Z" fill="white"/>
<path d="M157.991 172.037C157.971 172.326 157.866 172.604 157.69 172.835C157.514 173.066 157.273 173.24 156.999 173.335C156.725 173.431 156.428 173.443 156.147 173.372C155.865 173.3 155.611 173.147 155.416 172.932C155.22 172.717 155.092 172.45 155.048 172.163C155.003 171.876 155.044 171.582 155.165 171.318C155.286 171.054 155.482 170.831 155.729 170.677C155.975 170.524 156.262 170.446 156.552 170.454C156.951 170.478 157.324 170.657 157.593 170.953C157.862 171.248 158.005 171.637 157.991 172.037Z" fill="white"/>
<path d="M162.581 172.058C162.561 172.346 162.457 172.623 162.283 172.853C162.108 173.083 161.87 173.257 161.598 173.354C161.325 173.451 161.031 173.466 160.75 173.397C160.469 173.328 160.215 173.179 160.018 172.968C159.821 172.756 159.69 172.492 159.641 172.207C159.592 171.922 159.628 171.629 159.744 171.365C159.859 171.1 160.05 170.874 160.292 170.716C160.534 170.559 160.817 170.475 161.106 170.475C161.511 170.49 161.894 170.665 162.17 170.962C162.447 171.259 162.594 171.653 162.581 172.058Z" fill="white"/>
<path d="M167.163 172.08C167.177 172.283 167.15 172.486 167.082 172.678C167.014 172.869 166.907 173.045 166.769 173.194C166.63 173.342 166.462 173.461 166.276 173.542C166.089 173.623 165.888 173.665 165.685 173.665C165.482 173.665 165.28 173.623 165.094 173.542C164.907 173.461 164.74 173.342 164.601 173.194C164.462 173.045 164.356 172.869 164.288 172.678C164.22 172.486 164.192 172.283 164.206 172.08C164.192 171.877 164.22 171.673 164.288 171.482C164.356 171.29 164.462 171.114 164.601 170.966C164.74 170.817 164.907 170.699 165.094 170.618C165.28 170.536 165.482 170.495 165.685 170.495C165.888 170.495 166.089 170.536 166.276 170.618C166.462 170.699 166.63 170.817 166.769 170.966C166.907 171.114 167.014 171.29 167.082 171.482C167.15 171.673 167.177 171.877 167.163 172.08Z" fill="white"/>
<path d="M171.746 172.101C171.726 172.39 171.623 172.666 171.448 172.896C171.273 173.126 171.035 173.301 170.763 173.397C170.491 173.494 170.196 173.509 169.915 173.44C169.635 173.372 169.38 173.222 169.183 173.011C168.986 172.8 168.855 172.535 168.806 172.25C168.758 171.965 168.793 171.673 168.909 171.408C169.025 171.143 169.215 170.918 169.457 170.76C169.699 170.602 169.982 170.518 170.271 170.519C170.676 170.534 171.059 170.709 171.335 171.005C171.612 171.302 171.759 171.696 171.746 172.101Z" fill="white"/>
<path d="M176.328 172.123C176.309 172.413 176.204 172.69 176.028 172.921C175.851 173.152 175.611 173.326 175.337 173.421C175.062 173.517 174.766 173.53 174.485 173.458C174.203 173.386 173.949 173.234 173.753 173.019C173.558 172.804 173.43 172.536 173.385 172.249C173.341 171.962 173.382 171.668 173.503 171.404C173.624 171.14 173.82 170.917 174.066 170.764C174.313 170.61 174.599 170.532 174.89 170.54C175.288 170.564 175.662 170.743 175.931 171.039C176.2 171.335 176.342 171.724 176.328 172.123Z" fill="white"/>
</g>
<path d="M169.818 68.2695C170.317 68.0494 170.741 67.6872 171.037 67.228C171.332 66.7688 171.486 66.2328 171.48 65.6868C171.498 65.3319 171.444 64.9768 171.321 64.6434C171.198 64.3099 171.009 64.0049 170.764 63.7471C170.519 63.4893 170.225 63.284 169.898 63.1436C169.572 63.0033 169.22 62.931 168.865 62.931C168.509 62.931 168.157 63.0033 167.831 63.1436C167.504 63.284 167.21 63.4893 166.965 63.7471C166.72 64.0049 166.531 64.3099 166.408 64.6434C166.285 64.9768 166.231 65.3319 166.249 65.6868C166.239 66.2383 166.391 66.7807 166.688 67.2455C166.985 67.7102 167.413 68.0766 167.918 68.2983C163.89 68.9026 164.07 73.2765 164.07 73.2765L173.595 73.3197C173.595 73.3197 173.818 68.8666 169.818 68.2695Z" fill="#4CAF4F"/>
<path opacity="0.1" d="M169.818 68.2695C170.317 68.0494 170.741 67.6872 171.037 67.228C171.332 66.7688 171.486 66.2328 171.48 65.6868C171.498 65.3319 171.444 64.9768 171.321 64.6434C171.198 64.3099 171.009 64.0049 170.764 63.7471C170.519 63.4893 170.225 63.284 169.898 63.1436C169.572 63.0033 169.22 62.931 168.865 62.931C168.509 62.931 168.157 63.0033 167.831 63.1436C167.504 63.284 167.21 63.4893 166.965 63.7471C166.72 64.0049 166.531 64.3099 166.408 64.6434C166.285 64.9768 166.231 65.3319 166.249 65.6868C166.239 66.2383 166.391 66.7807 166.688 67.2455C166.985 67.7102 167.413 68.0766 167.918 68.2983C163.89 68.9026 164.07 73.2765 164.07 73.2765L173.595 73.3197C173.595 73.3197 173.818 68.8666 169.818 68.2695Z" fill="black"/>
<path d="M185.295 76.1409L151.347 75.9868L151.329 80.0442L185.277 80.1983L185.295 76.1409Z" fill="#4CAF4F"/>
<path opacity="0.2" d="M185.295 76.1409L151.347 75.9868L151.329 80.0442L185.277 80.1983L185.295 76.1409Z" fill="white"/>
<path d="M60.4897 97.1681H60.1516L59.1732 97.24C58.6437 97.2718 58.1172 97.3416 57.5977 97.4487C57.2612 97.4959 56.9274 97.5607 56.5977 97.6429L55.4826 97.9522C53.5847 98.5345 51.794 99.4213 50.1806 100.578C48.0489 102.125 46.2689 104.106 44.9577 106.391C44.1871 107.708 43.5738 109.111 43.1304 110.571C42.6646 112.157 42.3964 113.796 42.3319 115.448C42.289 116.316 42.3034 117.186 42.3751 118.052C42.3751 118.491 42.4974 118.93 42.5549 119.376C42.6033 119.826 42.6875 120.271 42.8067 120.707C43.4536 123.594 44.7662 126.29 46.6398 128.579C48.5134 130.869 50.8961 132.689 53.5978 133.894C55.5532 134.738 57.6491 135.208 59.7775 135.282C61.9758 135.403 64.1763 135.088 66.2522 134.354L66.8852 134.117H66.9716L67.0435 134.16L76.1152 138.764L75.849 138.994C74.8778 135.987 73.9426 133.074 73.0362 130.275V130.167L73.1153 130.088C75.316 127.872 76.9496 125.157 77.8778 122.175C78.7184 119.448 78.9637 116.573 78.5972 113.743C78.2711 111.229 77.4626 108.8 76.2159 106.592C75.1413 104.695 73.7551 102.993 72.1153 101.556C70.7625 100.419 69.2651 99.4663 67.6622 98.722C66.4494 98.1989 65.1862 97.8012 63.8925 97.535L62.4537 97.2976L61.4106 97.2184L60.7775 97.1753H60.5617C60.6334 97.1673 60.7058 97.1673 60.7775 97.1753H61.4177L62.4609 97.2184L63.8997 97.4271C65.2095 97.6738 66.4899 98.0572 67.7197 98.5709C69.3502 99.3064 70.8745 100.257 72.252 101.398C73.9219 102.828 75.3376 104.531 76.4389 106.434C77.721 108.666 78.5543 111.127 78.8921 113.678C79.2891 116.552 79.0609 119.477 78.2231 122.254C77.2889 125.298 75.63 128.07 73.3887 130.333L73.4318 130.146C74.3383 132.944 75.2807 135.858 76.2591 138.858L76.3958 139.297L75.9857 139.088L66.914 134.491H67.0723L66.4248 134.728C64.309 135.473 62.0678 135.795 59.8279 135.678C57.6536 135.595 55.5139 135.107 53.5187 134.239C49.7128 132.609 46.5463 129.776 44.5045 126.175C43.5649 124.511 42.8787 122.717 42.4686 120.851C42.3563 120.403 42.2722 119.949 42.2168 119.491C42.1592 119.038 42.0657 118.592 42.0441 118.146C41.8494 115.586 42.12 113.012 42.8427 110.549C43.297 109.069 43.9274 107.649 44.7203 106.319C46.0628 104.014 47.8799 102.02 50.0511 100.47C51.6911 99.3105 53.5119 98.4305 55.4395 97.8659L56.5689 97.5781C56.9014 97.501 57.2375 97.441 57.5761 97.3983C58.101 97.3011 58.6325 97.2434 59.166 97.2256L60.1516 97.1897C60.2637 97.1746 60.3766 97.1674 60.4897 97.1681Z" fill="#4CAF4F"/>
<path d="M64.5903 113.945H63.2594L60.3818 109.902V107.247C60.3818 107.247 58.3243 107.117 58.5689 110.592C58.8135 114.067 58.5689 113.182 58.5689 113.182C58.5689 113.182 54.2021 113.182 53.8424 113.578C53.4827 113.973 53.4611 118.189 53.4107 120.542C53.3832 121.109 53.5459 121.669 53.873 122.133C54.2002 122.597 54.673 122.938 55.2164 123.103C55.3687 123.145 55.526 123.167 55.684 123.167C56.7775 123.167 62.3386 122.283 62.3386 122.283H64.6335L64.5903 113.945Z" fill="#4CAF4F"/>
<path d="M68.3959 113.232L67.5758 122.326H65.3025V113.419L68.3959 113.232Z" fill="#4CAF4F"/>
<path d="M95.5104 298.357V292.206L84.482 292.127L84.3884 301.429L85.0719 301.479C88.1149 301.674 100.553 301.961 102.597 301.328C104.87 300.623 95.5104 298.357 95.5104 298.357Z" fill="#4CAF4F"/>
<path d="M102.856 300.753C102.856 300.854 98.7262 300.94 93.64 300.94C88.5538 300.94 84.4244 300.854 84.4244 300.753C84.4244 300.652 88.5538 300.566 93.64 300.566C98.7262 300.566 102.856 300.652 102.856 300.753Z" fill="#263238"/>
<path d="M95.7047 299.616C95.6112 299.566 95.7047 299.242 95.9277 298.897C96.1508 298.551 96.4529 298.408 96.5249 298.479C96.5968 298.551 96.4457 298.825 96.2299 299.12C96.0141 299.415 95.7983 299.666 95.7047 299.616Z" fill="#263238"/>
<path d="M96.4097 300.019C96.309 300.019 96.3593 299.616 96.5752 299.235C96.791 298.854 97.0788 298.623 97.1579 298.681C97.237 298.738 97.1075 299.062 96.9061 299.4C96.7047 299.738 96.5032 300.055 96.4097 300.019Z" fill="#263238"/>
<path d="M87.7481 300.724C87.7049 300.724 87.5394 300.595 87.302 300.321C87.0122 299.97 86.6894 299.647 86.338 299.357C85.9925 299.081 85.5808 298.9 85.1438 298.832C84.8057 298.789 84.5899 298.832 84.5683 298.789C84.5467 298.746 84.7553 298.595 85.151 298.566C85.6732 298.555 86.1826 298.728 86.5898 299.055C86.9714 299.366 87.2932 299.744 87.5394 300.17C87.7049 300.487 87.7912 300.695 87.7481 300.724Z" fill="#263238"/>
<path d="M95.7407 298.458C95.791 298.544 95.604 298.76 95.2874 298.875C94.9709 298.99 94.6903 298.947 94.676 298.875C94.6616 298.803 94.8846 298.652 95.158 298.551C95.4313 298.451 95.6831 298.372 95.7407 298.458Z" fill="#263238"/>
<path d="M95.568 297.861C95.568 297.969 95.2802 298.055 94.9061 298.062C94.532 298.069 94.2371 297.983 94.2443 297.882C94.2515 297.782 94.5464 297.688 94.9061 297.681C95.2658 297.674 95.5536 297.76 95.568 297.861Z" fill="#263238"/>
<path d="M122.668 298.357V292.206L111.64 292.127L111.546 301.336L112.229 301.386C115.273 301.58 127.718 301.961 129.754 301.328C132.028 300.623 122.668 298.357 122.668 298.357Z" fill="#4CAF4F"/>
<path d="M130.013 300.767C130.013 300.868 125.891 300.954 120.798 300.954C115.704 300.954 111.589 300.868 111.589 300.767C111.589 300.667 115.711 300.58 120.798 300.58C125.884 300.58 130.013 300.667 130.013 300.767Z" fill="#263238"/>
<path d="M122.862 299.616C122.776 299.566 122.862 299.242 123.085 298.897C123.308 298.551 123.61 298.408 123.682 298.479C123.754 298.551 123.603 298.825 123.387 299.12C123.172 299.415 122.956 299.666 122.862 299.616Z" fill="#263238"/>
<path d="M123.567 300.019C123.474 300.019 123.517 299.616 123.74 299.235C123.963 298.854 124.244 298.623 124.323 298.681C124.402 298.738 124.265 299.062 124.064 299.4C123.862 299.738 123.668 300.055 123.567 300.019Z" fill="#263238"/>
<path d="M114.906 300.724C114.862 300.724 114.704 300.595 114.46 300.321C114.17 299.97 113.847 299.647 113.496 299.357C113.15 299.081 112.738 298.9 112.301 298.832C111.97 298.789 111.747 298.832 111.726 298.789C111.704 298.746 111.913 298.595 112.309 298.566C112.831 298.555 113.34 298.728 113.747 299.055C114.131 299.364 114.453 299.742 114.697 300.17C114.863 300.487 114.949 300.695 114.906 300.724Z" fill="#263238"/>
<path d="M122.898 298.458C122.949 298.544 122.762 298.76 122.445 298.875C122.128 298.99 121.848 298.947 121.834 298.875C121.819 298.803 122.042 298.652 122.316 298.551C122.589 298.451 122.841 298.372 122.898 298.458Z" fill="#263238"/>
<path d="M122.74 297.861C122.74 297.969 122.452 298.055 122.078 298.062C121.704 298.069 121.416 297.983 121.423 297.882C121.431 297.782 121.718 297.688 122.078 297.681C122.438 297.674 122.74 297.76 122.74 297.861Z" fill="#263238"/>
<path d="M163.3 115.7C163.012 115.405 162.3 115.549 162.3 115.549C162.372 115.135 162.372 114.711 162.3 114.297C162.171 113.894 161.264 113.973 161.264 113.973C161.222 113.634 161.222 113.291 161.264 112.952C161.271 112.877 161.255 112.801 161.218 112.735C161.181 112.67 161.124 112.617 161.056 112.585C160.627 112.41 160.166 112.327 159.703 112.34C159.149 111.945 161.394 108.801 162.228 107.794C163.063 106.787 162.912 106.002 162.171 106.002C161.66 106.002 159.041 109.024 158.235 110.038C157.43 111.053 155.293 113.873 155.221 111.621C155.149 109.369 154.243 107.671 153.674 107.384C153.106 107.096 152.502 107.772 152.811 108.398C153.083 109.109 153.252 109.855 153.315 110.614C153.393 111.218 153.366 111.831 153.236 112.427C152.997 113.534 152.672 114.621 152.264 115.678H152.207C152.207 115.678 136.509 130.736 135.373 131.807C134.358 132.771 113.956 130.664 109.863 130.232C108.472 130.028 107.067 129.932 105.661 129.944C103.884 130.023 103.568 130.275 101.798 130.297C97.3287 130.346 92.8697 130.738 88.4602 131.469C86.4636 131.809 84.5986 132.69 83.0686 134.017C81.5387 135.344 80.4025 137.066 79.7842 138.994C75.662 151.872 66.3241 182.353 64.6767 199.475C63.4318 201.732 62.3079 204.055 61.3099 206.431C60.1516 209.582 60.4322 209.69 60.8207 209.762C61.871 209.957 63.0652 204.302 63.5112 205.669C63.9573 207.036 61.2451 212.41 62.3458 212.568C63.7846 212.769 64.9285 206.813 65.0652 206.338C65.2018 205.863 65.9141 206.014 65.7846 206.46C65.5759 207.093 63.5544 213.805 64.9644 214.021C65.7414 214.136 65.8277 212.719 65.8277 212.719C65.8277 212.719 67.2665 206.295 67.9212 206.424C68.5759 206.554 67.878 210.345 67.5471 211.611C67.2162 212.877 67.6766 213.518 68.3528 213.208C68.8133 212.992 69.914 209.144 70.2161 207.892C70.5183 206.64 71.2736 203.173 72.288 205.18C73.3024 207.187 74.8419 208.352 75.475 208.381C75.6176 208.365 75.7521 208.306 75.8611 208.212C75.97 208.119 76.0485 207.995 76.0864 207.856C76.1244 207.718 76.12 207.571 76.0738 207.435C76.0277 207.299 75.9419 207.18 75.8275 207.093C75.283 206.562 74.8156 205.956 74.439 205.295C74.1034 204.78 73.86 204.21 73.7196 203.611C73.4297 202.418 73.261 201.198 73.216 199.971L73.1009 199.252C74.7124 191.274 79.3526 167.857 86.0502 152.9L88.7984 158.555L89.9926 162.742L82.669 180.821L113.906 180.411L109.244 162.469L114.906 143.764C121.028 143.901 136.747 144.131 139.365 142.944C142.66 141.505 159.703 119.98 159.703 119.98C160.814 119.117 161.878 118.195 162.89 117.218C162.89 117.218 163.926 116.347 163.3 115.7Z" fill="#FFBE9D"/>
<path d="M81.295 167.461C82.2014 164.368 86.856 149.073 86.856 149.073C86.856 149.073 89.1437 161.541 88.5394 163.044C87.9835 164.331 87.3268 165.573 86.5754 166.756C81.295 174.792 81.9856 178.814 81.9856 178.814L113.891 177.842C113.963 173.382 111.323 163.008 110.776 161.354C110.229 159.699 112.05 154.282 112.05 154.282C112.05 154.282 115.647 150.62 115.517 148.735C115.449 147.042 115.239 145.358 114.891 143.699L134.315 144.419L133.704 131.254L105.805 128.462C104.834 131.203 96.05 129.858 96.05 129.858C86.5682 130.174 85.9783 131.915 82.036 134.98C78.0936 138.045 71.5686 164.346 71.5686 164.346L81.295 167.461Z" fill="#4CAF4F"/>
<path d="M100.158 164.346C99.6048 164.445 99.0417 164.474 98.4815 164.433C97.4384 164.433 96.0068 164.361 94.4313 164.202C92.8558 164.044 91.4314 163.821 90.417 163.62C89.8577 163.548 89.3093 163.407 88.7839 163.202C89.3464 163.203 89.9076 163.256 90.4602 163.361C91.4817 163.49 92.8989 163.67 94.4672 163.828C96.0355 163.987 97.46 164.094 98.4887 164.166C99.0495 164.173 99.6083 164.234 100.158 164.346Z" fill="#263238"/>
<path d="M102.345 161.634C101.792 161.905 101.207 162.106 100.604 162.231C97.7336 162.985 94.7724 163.336 91.8054 163.274C91.1915 163.294 90.5775 163.236 89.9781 163.102C90.5841 163.025 91.1949 162.994 91.8054 163.008C92.9349 162.972 94.4888 162.893 96.201 162.692C97.9132 162.49 99.4383 162.202 100.517 161.972C101.117 161.812 101.728 161.699 102.345 161.634Z" fill="#263238"/>
<path d="M113.078 149.534C113.064 150.082 112.989 150.627 112.855 151.16C112.668 152.16 112.38 153.526 112.014 155.023C111.647 156.519 111.294 157.9 110.978 158.836C110.85 159.371 110.662 159.89 110.417 160.382C110.457 159.836 110.558 159.295 110.719 158.771C110.992 157.649 111.301 156.354 111.647 154.936C111.992 153.519 112.323 152.224 112.596 151.102C112.694 150.562 112.856 150.035 113.078 149.534Z" fill="#263238"/>
<path d="M81.6331 165.627C79.9688 165.37 78.3263 164.987 76.7196 164.483C75.0778 164.099 73.4667 163.594 71.8995 162.972C73.563 163.233 75.2053 163.616 76.8131 164.116C78.4552 164.499 80.0664 165.004 81.6331 165.627Z" fill="#263238"/>
<path d="M115.237 143.541C114.965 143.588 114.688 143.588 114.416 143.541C113.665 143.464 112.927 143.287 112.222 143.016C111.045 142.574 109.974 141.89 109.077 141.009C108.18 140.128 107.477 139.07 107.014 137.901C106.502 136.615 106.283 135.232 106.374 133.851C106.406 132.712 106.746 131.603 107.359 130.642C107.79 129.995 108.434 129.519 109.179 129.297C109.378 129.242 109.584 129.215 109.791 129.218C109.935 129.218 110.007 129.218 110.007 129.218C110.007 129.218 109.704 129.218 109.222 129.412C108.539 129.664 107.959 130.138 107.575 130.757C106.597 132.297 106.323 135.11 107.366 137.735C107.852 138.973 108.612 140.085 109.589 140.987C110.39 141.725 111.313 142.319 112.316 142.742C113.257 143.115 114.237 143.382 115.237 143.541Z" fill="#263238"/>
<path d="M132.006 144.16C131.826 141.954 131.768 139.739 131.833 137.527C131.777 135.316 131.844 133.104 132.035 130.901C132.215 133.105 132.272 135.317 132.207 137.527C132.268 139.74 132.201 141.954 132.006 144.16Z" fill="#263238"/>
<path d="M105.618 129.268C105.697 127.664 105.863 125.851 105.863 125.851C105.863 125.851 109.834 125.412 110.071 121.311C110.309 117.211 110.071 107.751 110.071 107.751L102.877 104.067L94.8917 110.348L96.1219 130.851L103.445 131.318C104.005 131.334 104.548 131.127 104.956 130.742C105.363 130.358 105.601 129.828 105.618 129.268Z" fill="#FFBE9D"/>
<path d="M106.33 118.067C106.33 118.067 106.33 118.146 106.266 118.239C106.212 118.307 106.143 118.361 106.064 118.396C105.985 118.431 105.899 118.447 105.812 118.441C105.352 118.441 104.906 117.909 104.748 117.29C104.672 116.99 104.672 116.676 104.748 116.376C104.762 116.245 104.81 116.12 104.885 116.012C104.96 115.904 105.061 115.817 105.179 115.758C105.276 115.718 105.385 115.718 105.481 115.758C105.553 115.793 105.611 115.851 105.647 115.923C105.697 116.045 105.647 116.124 105.647 116.117C105.647 116.11 105.647 116.045 105.575 115.973C105.537 115.922 105.482 115.886 105.42 115.873C105.357 115.859 105.292 115.87 105.237 115.901C105.149 115.955 105.075 116.03 105.024 116.119C104.972 116.208 104.944 116.309 104.942 116.412C104.881 116.68 104.881 116.958 104.942 117.225C105.086 117.786 105.474 118.239 105.819 118.283C105.887 118.292 105.956 118.287 106.021 118.268C106.087 118.25 106.148 118.218 106.201 118.175C106.287 118.117 106.316 118.06 106.33 118.067Z" fill="#EB996E"/>
<path d="M112.539 105.535C111.985 103.65 109.978 102.715 108.15 102.197C105.366 101.405 102.359 101.06 99.6399 102.06C96.9205 103.06 93.6544 104.815 93.6544 107.815C92.0502 107.686 91.1293 109.089 90.4962 110.83C90.0915 111.89 89.849 113.006 89.7768 114.139C89.5754 118.067 88.4747 123.491 85.928 126.369C84.4892 127.973 82.4964 129.081 81.6763 131.081C80.9569 132.815 81.331 134.872 80.662 136.628C80.0648 138.174 78.7483 139.275 77.7843 140.62C76.8022 142.146 76.2242 143.897 76.1047 145.708C75.9851 147.519 76.3279 149.33 77.1009 150.972C77.8794 152.572 78.9755 153.997 80.3224 155.16C81.6693 156.322 83.2388 157.198 84.9352 157.735C88.2956 158.757 91.879 158.792 95.2587 157.836C97.7952 157.229 100.161 156.056 102.179 154.404C104.244 152.718 105.663 150.369 106.194 147.757C106.704 144.822 105.884 141.836 105.273 138.915C103.359 129.685 103.906 129.203 106.323 120.635C106.381 120.484 106.41 120.326 106.453 120.175C106.496 120.024 106.517 119.952 106.546 119.837C106.615 119.498 106.651 119.153 106.654 118.808C106.301 118.939 105.918 118.967 105.55 118.888C105.181 118.809 104.843 118.626 104.575 118.362C104.306 118.08 104.119 117.73 104.033 117.35C103.947 116.97 103.965 116.574 104.086 116.204C104.256 115.798 104.508 115.434 104.828 115.132C105.148 114.831 105.527 114.601 105.942 114.455C106.74 114.125 107.597 113.952 108.381 113.585C110.043 112.794 111.194 111.153 111.978 109.434C112.622 108.242 112.821 106.86 112.539 105.535Z" fill="#263238"/>
<path d="M106.618 118.261C106.77 118.486 106.896 118.727 106.992 118.981C107.208 119.434 107.496 120.074 107.812 120.815L107.87 120.952H107.719L106.999 121.016C106.503 121.016 106.086 121.11 105.597 121.103C105.554 121.093 105.514 121.073 105.482 121.044C105.449 121.015 105.424 120.978 105.409 120.937C105.388 120.872 105.388 120.801 105.409 120.736C105.426 120.639 105.448 120.543 105.474 120.448L105.604 119.937C105.669 119.597 105.77 119.264 105.906 118.945C105.892 119.292 105.842 119.637 105.755 119.973L105.654 120.484C105.618 120.657 105.553 120.923 105.654 120.901C106.014 120.901 106.525 120.822 106.999 120.793L107.719 120.729L107.625 120.887C107.316 120.168 107.057 119.491 106.906 119.024C106.773 118.785 106.676 118.528 106.618 118.261Z" fill="#4CAF4F"/>
<path d="M81.9856 178.813L113.891 177.842L127.776 232.042L125.222 294.213H108.352L110.417 233.366L98.0787 195.633L99.9779 296.623L82.928 296.875L81.1367 201.95C81.0576 199.309 80.1943 193.36 80.518 190.741L81.9856 178.813Z" fill="#263238"/>
<path d="M102.323 196.403C101.801 196.436 101.277 196.404 100.762 196.309C99.7981 196.194 98.4816 195.993 97.0356 195.705C95.5896 195.417 94.2947 195.087 93.3595 194.82C92.8595 194.71 92.3759 194.536 91.9207 194.302C91.9207 194.194 94.2659 194.756 97.1435 195.338C100.021 195.921 102.338 196.295 102.323 196.403Z" fill="#455A64"/>
<path d="M125.049 290.804C125.049 290.904 121.229 290.991 116.517 290.991C111.805 290.991 107.978 290.904 107.978 290.804C107.978 290.703 111.798 290.616 116.517 290.616C121.236 290.616 125.049 290.696 125.049 290.804Z" fill="#455A64"/>
<path d="M99.8268 293.998C99.8268 294.106 96.1147 294.185 91.5393 294.185C86.9639 294.185 83.2589 294.106 83.2589 293.998C83.2589 293.89 86.9711 293.811 91.5393 293.811C96.1075 293.811 99.8268 293.897 99.8268 293.998Z" fill="#455A64"/>
<path d="M97.6254 293.739C97.5247 293.739 97.0787 271.675 96.6255 244.459C96.1722 217.244 95.9061 195.166 95.9996 195.166C96.0931 195.166 96.5535 217.223 96.9996 244.452C97.4456 271.682 97.7334 293.739 97.6254 293.739Z" fill="#455A64"/>
<path d="M122.783 290.803C122.775 290.705 122.775 290.607 122.783 290.508V289.645C122.783 288.868 122.841 287.753 122.884 286.336C122.985 283.458 123.128 279.279 123.308 274.156C123.697 263.854 124.243 249.653 124.841 233.978C124.841 233.826 124.841 233.683 124.841 233.553V233.603C121.064 218.496 117.647 204.784 115.165 194.863L112.287 183.13C111.956 181.756 111.704 180.684 111.524 179.936C111.438 179.583 111.38 179.31 111.33 179.101C111.302 179.008 111.285 178.911 111.28 178.813C111.317 178.904 111.346 178.998 111.366 179.094C111.424 179.295 111.496 179.569 111.596 179.914C111.791 180.634 112.071 181.727 112.431 183.094C113.15 185.871 114.165 189.871 115.431 194.799C117.934 204.712 121.387 218.388 125.215 233.517V233.567C125.215 233.697 125.215 233.848 125.215 233.992C124.574 249.668 123.992 263.862 123.567 274.164C123.344 279.293 123.157 283.444 123.028 286.336C122.956 287.775 122.898 288.868 122.862 289.645C122.862 290.012 122.819 290.3 122.812 290.508C122.813 290.608 122.803 290.706 122.783 290.803Z" fill="#455A64"/>
<path d="M117.28 232.287C116.068 232.685 114.82 232.963 113.553 233.114C111.999 233.38 110.676 233.568 110.078 233.596V233.452C110.273 233.51 110.373 233.546 110.373 233.575C110.373 233.604 110.251 233.575 110.05 233.575H109.618L110.05 233.445C110.611 233.28 111.935 233.006 113.488 232.726C114.735 232.455 116.005 232.308 117.28 232.287Z" fill="#455A64"/>
<path d="M116.985 234.352C115.863 234.403 114.738 234.353 113.625 234.201C112.501 234.178 111.382 234.055 110.28 233.834C112.528 233.65 114.791 233.825 116.985 234.352Z" fill="#455A64"/>
<path opacity="0.2" d="M81.8489 179.957C82.2267 180.443 82.7027 180.843 83.2456 181.131C83.7886 181.42 84.3863 181.591 84.9999 181.634C86.2849 181.786 87.5846 181.762 88.8631 181.562C97.1003 180.648 105.827 179.806 113.891 177.842C103.453 178.425 92.4241 178.231 81.9856 178.813L81.8776 179.706" fill="black"/>
<g opacity="0.2">
<path d="M92.604 194.669L98.4887 217.503L98.0787 195.633L92.604 194.669Z" fill="black"/>
</g>
</svg>
