<svg width="309" height="230" viewBox="0 0 309 230" fill="none" xmlns="http://www.w3.org/2000/svg">
<path d="M154.599 229.353C220.42 229.353 273.778 226.238 273.778 222.395C273.778 218.552 220.42 215.437 154.599 215.437C88.7778 215.437 35.4194 218.552 35.4194 222.395C35.4194 226.238 88.7778 229.353 154.599 229.353Z" fill="#F5F5F5"/>
<path d="M215.605 66.9989L209.508 64.5402C209.508 64.5402 201.462 79.2125 199.157 79.9562C196.022 80.9643 189.531 83.7672 185.683 84.259C185.16 84.8736 184.306 86.7853 184.386 87.4799C189.555 89.2071 200.915 86.9144 203.349 85.1072C208.887 81.0073 215.605 66.9989 215.605 66.9989Z" fill="#E58A7B"/>
<path d="M217.48 63.6612C218.617 67.8594 212.458 76.3051 212.458 76.3051L204.387 71.781C204.387 71.781 205.9 68.3081 207.744 64.7737C210.7 59.0634 216.183 58.8729 217.48 63.6612Z" fill="#4CAF4F"/>
<path opacity="0.2" d="M217.48 63.6612C218.617 67.8594 212.458 76.3051 212.458 76.3051L204.387 71.781C204.387 71.781 205.9 68.3081 207.744 64.7737C210.7 59.0634 216.183 58.8729 217.48 63.6612Z" fill="black"/>
<path opacity="0.2" d="M207.59 73.5882L210.768 75.3707L211.327 65.6158C209.477 67.0357 208.174 71.3139 207.59 73.5882Z" fill="black"/>
<path d="M212.169 60.5018C212.169 60.5018 205.887 74.4795 209.551 100.505H234.304C234.697 96.7061 233.394 78.1675 238.109 60.2682C235.393 59.7375 232.646 59.3864 229.884 59.2171C226.381 59.0141 222.87 59.0141 219.367 59.2171C216.939 59.4637 214.533 59.8931 212.169 60.5018Z" fill="#4CAF4F"/>
<path opacity="0.2" d="M212.169 60.5018C212.169 60.5018 205.887 74.4795 209.551 100.505H234.304C234.697 96.7061 233.394 78.1675 238.109 60.2682C235.393 59.7375 232.646 59.3864 229.884 59.2171C226.381 59.0141 222.87 59.0141 219.367 59.2171C216.939 59.4637 214.533 59.8931 212.169 60.5018Z" fill="black"/>
<g style="mix-blend-mode:multiply">
<path d="M206.428 222.948C206.391 223.612 215.777 224.147 227.389 224.147C239 224.147 248.454 223.612 248.49 222.948C248.527 222.284 239.147 221.756 227.53 221.756C215.913 221.756 206.471 222.29 206.428 222.948Z" fill="#E8ECF1"/>
</g>
<path d="M222.951 205.505L218.561 207.205L222.343 216.974L226.733 215.275L222.951 205.505Z" fill="#E58A7B"/>
<path d="M242.528 218.221H237.899L236.203 207.507H240.832L242.528 218.221Z" fill="#E58A7B"/>
<path d="M237.58 217.686H242.78C242.87 217.687 242.957 217.719 243.026 217.778C243.095 217.836 243.14 217.917 243.155 218.006L243.825 222.118C243.839 222.221 243.831 222.326 243.801 222.426C243.771 222.526 243.72 222.618 243.651 222.696C243.582 222.774 243.497 222.837 243.402 222.879C243.307 222.921 243.204 222.943 243.1 222.942C241.286 222.911 240.414 222.801 238.127 222.801C236.719 222.801 233.824 222.948 231.87 222.948C229.915 222.948 229.786 221.03 230.591 220.852C234.205 220.071 235.607 219.008 236.812 217.975C237.024 217.789 237.297 217.686 237.58 217.686Z" fill="#263238"/>
<path d="M222.213 216.101L227.13 214.662C227.218 214.638 227.312 214.644 227.396 214.679C227.48 214.715 227.549 214.778 227.591 214.859L229.436 218.547C229.478 218.641 229.5 218.742 229.5 218.845C229.499 218.948 229.476 219.05 229.432 219.143C229.388 219.236 229.325 219.318 229.245 219.384C229.166 219.45 229.074 219.498 228.975 219.524C227.186 220.016 225.987 220.317 223.75 220.969C222.207 221.418 220.633 222.149 219.109 222.635C218.052 222.973 215.568 222.985 214.284 222.985C212.384 222.985 211.96 220.981 212.778 220.889C214.837 220.661 215.114 220.766 216.251 220.194C218.111 219.381 219.798 218.216 221.217 216.764C221.485 216.459 221.828 216.23 222.213 216.101Z" fill="#263238"/>
<path d="M186.457 84.2344L181.368 82.1014L179.272 87.7442C181.358 88.0619 183.48 88.0619 185.566 87.7442L186.457 84.2344Z" fill="#E58A7B"/>
<path d="M177.582 81.9539L177.446 85.7034L179.272 87.7319L181.368 82.0891L177.582 81.9539Z" fill="#E58A7B"/>
<path d="M223.553 206.335L219.149 208.035L221.1 213.087L225.504 211.387L223.553 206.335Z" fill="#CF6F64"/>
<path d="M240.832 207.507H236.203L237.082 213.033H241.71L240.832 207.507Z" fill="#CF6F64"/>
<path opacity="0.2" d="M208.764 93.4668C208.856 94.5793 208.961 95.7165 209.096 96.8844L227.499 90.9097C230.373 90.058 232.871 88.2519 234.58 85.7895C234.654 84.1483 234.746 82.4211 234.888 80.6201C234.949 79.7472 235.023 78.8498 235.103 77.9401C235.183 77.0304 235.293 76.0223 235.41 75.0511L208.764 93.4668Z" fill="black"/>
<path d="M214.775 73.3055L214.161 73.2317C214.523 70.1583 216.816 67.7365 219.232 67.798V68.4126C217.117 68.3696 215.101 70.5517 214.775 73.3055Z" fill="white"/>
<path d="M218.052 78.9789H217.947V78.3642C220.062 78.4441 222.047 76.2375 222.373 73.4899L222.987 73.5636C222.662 76.5694 220.443 78.9789 218.052 78.9789Z" fill="white"/>
<path d="M229.54 47.3723C228.673 50.7592 227.653 56.9612 229.884 59.2171C229.884 59.2171 228.323 62.6531 222.035 62.6531C216.288 62.6531 219.367 59.2171 219.367 59.2171C223.19 58.3197 223.258 55.5291 222.754 52.886L229.54 47.3723Z" fill="#E58A7B"/>
<path d="M226.774 49.622L222.76 52.8859C222.885 53.4933 222.957 54.1103 222.975 54.73C224.149 55.8978 226.503 52.9413 226.743 51.4292C226.865 50.8338 226.875 50.2211 226.774 49.622Z" fill="#CF6F64"/>
<path d="M215.857 47.3293C216.137 47.8134 216.513 48.2346 216.962 48.5667C217.412 48.8988 217.925 49.1346 218.47 49.2594C219.945 49.5851 220.683 48.2267 220.277 46.8621C219.914 45.6328 218.703 43.9793 217.204 44.2621C216.882 44.3282 216.581 44.4704 216.326 44.6767C216.071 44.883 215.87 45.1474 215.738 45.4478C215.606 45.7482 215.548 46.0757 215.569 46.4031C215.59 46.7304 215.689 47.048 215.857 47.3293Z" fill="#CF6F64"/>
<path d="M218.298 36.4926C215.999 37.5437 215.187 46.6777 218.076 48.03C220.965 49.3823 222.65 34.4949 218.298 36.4926Z" fill="#263238"/>
<path d="M230.241 42.2767C229.687 46.8621 229.626 49.5606 227.167 51.9086C226.405 52.6878 225.443 53.2413 224.386 53.508C223.33 53.7747 222.22 53.7442 221.18 53.4198C220.139 53.0955 219.209 52.49 218.491 51.6701C217.773 50.8502 217.295 49.8479 217.111 48.7738C216.367 44.6555 217.394 37.851 221.992 36.0254C222.958 35.5993 224.02 35.4394 225.069 35.5621C226.118 35.6849 227.114 36.0859 227.956 36.7236C228.797 37.3613 229.453 38.2125 229.855 39.1889C230.256 40.1653 230.39 41.2314 230.241 42.2767Z" fill="#E58A7B"/>
<path d="M222.686 38.8652C226.092 37.9985 228.593 37.4084 227.696 40.2421C226.51 44.0285 225.084 47.6919 226.995 47.8579C228.163 47.9624 233.326 45.7741 232.669 43.5552C232.097 41.6251 234.513 41.0965 234.943 40.1191C236.535 36.5786 231.98 37.0458 232.792 34.8944C233.603 32.743 229.104 29.2763 226.645 31.0035C222.643 33.7941 215.777 33.7511 219.386 29.1595C221.973 25.8833 217.357 26.5533 217.357 26.5533C217.357 26.5533 220.148 28.2067 215.452 30.7638C210.485 33.4929 215.04 40.826 222.686 38.8652Z" fill="#263238"/>
<path d="M232.048 47.3293C231.376 48.302 230.366 48.99 229.214 49.2594C227.696 49.5851 227.112 48.2267 227.684 46.8621C228.194 45.6328 229.595 43.9793 231.046 44.2621C232.497 44.5448 232.829 46.1245 232.048 47.3293Z" fill="#E58A7B"/>
<path d="M209.551 100.505C209.551 100.505 205.396 137.693 205.07 151.806C204.738 166.484 219.152 212.283 219.152 212.283L226.528 209.21C226.528 209.21 217.923 167.363 219.152 152.949C220.455 137.232 225.84 100.529 225.84 100.529L209.551 100.505Z" fill="#4CAF4F"/>
<path opacity="0.2" d="M219.877 110.715C216.564 117.587 218.795 131.177 220.59 139.229C221.273 133.544 222.084 127.372 222.852 121.662C222.779 112.884 222.096 106.105 219.877 110.715Z" fill="black"/>
<path d="M226.202 206.776C226.239 206.776 227.075 209.124 227.075 209.124L218.568 212.701L217.228 210.206L226.202 206.776Z" fill="#4CAF4F"/>
<path d="M218.334 100.505C218.334 100.505 221.512 135.873 223.615 149.119C225.926 163.632 234.986 211.964 234.986 211.964H243.462C243.462 211.964 238.385 164.806 237.426 150.435C236.381 134.847 234.304 100.505 234.304 100.505H218.334Z" fill="#4CAF4F"/>
<path d="M243.591 209.757C243.628 209.757 243.874 212.124 243.874 212.124H234.556L233.892 209.407L243.591 209.757Z" fill="#4CAF4F"/>
<path opacity="0.2" d="M240.346 206.954C240.327 206.954 240.308 206.948 240.293 206.935C240.279 206.923 240.269 206.906 240.266 206.887C240.217 206.456 235.638 163.859 234.777 150.951C233.843 136.949 231.962 105.889 231.943 105.576C231.943 105.566 231.944 105.555 231.947 105.546C231.95 105.536 231.956 105.527 231.963 105.52C231.97 105.512 231.978 105.506 231.987 105.502C231.997 105.498 232.007 105.496 232.017 105.496C232.037 105.496 232.057 105.503 232.072 105.517C232.086 105.531 232.095 105.55 232.097 105.57C232.097 105.883 233.996 136.918 234.931 150.945C235.791 163.853 240.371 206.419 240.414 206.88C240.415 206.891 240.415 206.901 240.412 206.911C240.41 206.921 240.405 206.93 240.399 206.939C240.393 206.947 240.385 206.953 240.375 206.958C240.366 206.963 240.356 206.966 240.346 206.967V206.954Z" fill="black"/>
<path d="M223.209 43.5552C223.209 43.9301 222.975 44.2313 222.729 44.2313C222.484 44.2313 222.305 43.9301 222.33 43.5552C222.354 43.1802 222.563 42.879 222.809 42.879C223.055 42.879 223.233 43.1864 223.209 43.5552Z" fill="#263238"/>
<path d="M218.992 43.5552C218.992 43.9301 218.752 44.2313 218.513 44.2313C218.273 44.2313 218.089 43.9301 218.107 43.5552C218.125 43.1802 218.347 42.879 218.593 42.879C218.838 42.879 219.017 43.1864 218.992 43.5552Z" fill="#263238"/>
<path d="M220.32 43.7457C219.807 44.8907 219.145 45.9632 218.353 46.9359C218.968 47.5506 220.117 47.2678 220.117 47.2678L220.32 43.7457Z" fill="#DF5753"/>
<path d="M220.43 48.8352C220.416 48.8353 220.402 48.8324 220.389 48.8267C220.376 48.8211 220.364 48.8129 220.354 48.8025C220.345 48.7921 220.337 48.7799 220.332 48.7665C220.327 48.7531 220.325 48.7388 220.326 48.7246C220.328 48.6947 220.341 48.6666 220.362 48.646C220.384 48.6254 220.413 48.6139 220.443 48.614C220.913 48.6172 221.378 48.5151 221.803 48.3151C222.229 48.1152 222.604 47.8224 222.901 47.4584C222.923 47.4398 222.95 47.4295 222.978 47.4295C223.007 47.4295 223.034 47.4398 223.055 47.4584C223.075 47.479 223.086 47.5065 223.086 47.5352C223.086 47.5639 223.075 47.5914 223.055 47.612C222.737 47.9989 222.336 48.3096 221.882 48.5213C221.427 48.7329 220.932 48.8402 220.43 48.8352Z" fill="#263238"/>
<path d="M223.959 42.4242C223.929 42.4393 223.897 42.4471 223.863 42.4471C223.83 42.4471 223.798 42.4393 223.768 42.4242C223.538 42.2755 223.277 42.183 223.004 42.1542C222.732 42.1254 222.457 42.161 222.201 42.2582C222.176 42.2707 222.149 42.278 222.121 42.2798C222.093 42.2816 222.065 42.2778 222.039 42.2687C222.012 42.2595 221.988 42.2452 221.967 42.2265C221.947 42.2078 221.93 42.1851 221.918 42.1599C221.895 42.1052 221.895 42.0437 221.916 41.9886C221.938 41.9335 221.981 41.8891 222.035 41.8648C222.356 41.7336 222.704 41.6818 223.05 41.7139C223.396 41.746 223.729 41.861 224.02 42.0492C224.044 42.0652 224.064 42.0858 224.079 42.1096C224.095 42.1335 224.106 42.1602 224.111 42.1882C224.116 42.2163 224.116 42.245 224.109 42.2729C224.103 42.3007 224.092 42.3271 224.076 42.3504C224.044 42.3856 224.004 42.4112 223.959 42.4242Z" fill="#263238"/>
<path d="M217.363 41.1948C217.331 41.1869 217.301 41.1699 217.277 41.1457C217.257 41.1256 217.241 41.1017 217.229 41.0753C217.218 41.0489 217.213 41.0206 217.213 40.992C217.213 40.9634 217.218 40.935 217.229 40.9086C217.241 40.8823 217.257 40.8584 217.277 40.8383C217.513 40.5741 217.806 40.3678 218.135 40.2356C218.463 40.1034 218.817 40.0488 219.17 40.0761C219.199 40.0805 219.226 40.0906 219.25 40.1059C219.274 40.1211 219.295 40.1412 219.311 40.1648C219.327 40.1884 219.338 40.2151 219.344 40.2432C219.349 40.2713 219.349 40.3002 219.343 40.3281C219.329 40.3851 219.296 40.4352 219.248 40.4692C219.201 40.5031 219.142 40.5185 219.084 40.5125C218.805 40.4949 218.525 40.5411 218.267 40.6476C218.008 40.7541 217.777 40.9181 217.591 41.1272C217.563 41.1583 217.527 41.1811 217.487 41.193C217.446 41.205 217.404 41.2056 217.363 41.1948Z" fill="#263238"/>
<path d="M240.487 66.3166L234.095 64.614C234.095 64.614 227.825 80.0484 225.606 81.0504C222.594 82.4272 214.966 87.1971 211.721 89.453C211.542 90.2213 211.684 92.2559 212.089 92.8152C217.621 91.8072 228.212 87.7319 230.425 85.6604C235.472 80.9336 240.487 66.3166 240.487 66.3166Z" fill="#E58A7B"/>
<path d="M236.025 218.498C235.713 218.523 235.402 218.438 235.146 218.258C235.067 218.187 235.007 218.096 234.974 217.994C234.941 217.893 234.934 217.785 234.955 217.68C234.959 217.615 234.981 217.552 235.017 217.498C235.054 217.444 235.105 217.401 235.164 217.373C235.681 217.109 237.125 218.025 237.291 218.129C237.309 218.14 237.323 218.157 237.331 218.177C237.339 218.197 237.34 218.219 237.334 218.24C237.329 218.261 237.318 218.281 237.303 218.297C237.288 218.313 237.269 218.325 237.248 218.332C236.847 218.43 236.437 218.486 236.025 218.498ZM235.41 217.539C235.364 217.529 235.315 217.529 235.269 217.539C235.245 217.551 235.226 217.57 235.213 217.592C235.199 217.615 235.193 217.642 235.195 217.668C235.179 217.74 235.181 217.814 235.203 217.884C235.224 217.954 235.264 218.018 235.318 218.068C235.558 218.283 236.16 218.307 236.953 218.154C236.481 217.843 235.949 217.633 235.392 217.539H235.41Z" fill="#4CAF4F"/>
<path d="M237.217 218.332C237.201 218.337 237.184 218.337 237.168 218.332C236.707 218.074 235.84 217.06 235.97 216.543C235.989 216.461 236.035 216.388 236.101 216.336C236.167 216.284 236.248 216.255 236.332 216.254C236.415 216.243 236.499 216.25 236.578 216.275C236.658 216.299 236.731 216.34 236.793 216.396C237.303 216.832 237.334 218.172 237.334 218.24C237.337 218.26 237.333 218.281 237.323 218.298C237.313 218.316 237.298 218.33 237.279 218.338C237.258 218.342 237.237 218.34 237.217 218.332ZM236.394 216.457H236.351C236.209 216.457 236.191 216.537 236.185 216.568C236.111 216.869 236.658 217.637 237.113 218C237.111 217.481 236.95 216.975 236.652 216.549C236.58 216.487 236.488 216.454 236.394 216.457Z" fill="#4CAF4F"/>
<path d="M219.705 217.73C219.329 217.861 218.92 217.861 218.543 217.73C218.458 217.683 218.386 217.616 218.333 217.535C218.28 217.453 218.249 217.359 218.242 217.262C218.235 217.202 218.242 217.14 218.265 217.083C218.287 217.026 218.324 216.976 218.371 216.937C218.863 216.494 220.873 216.937 221.101 217.023C221.122 217.028 221.141 217.041 221.155 217.059C221.168 217.077 221.175 217.099 221.174 217.121C221.175 217.144 221.169 217.167 221.157 217.187C221.145 217.206 221.128 217.222 221.107 217.232C220.654 217.436 220.185 217.602 219.705 217.73ZM218.703 216.998C218.633 217.012 218.567 217.044 218.513 217.09C218.493 217.105 218.478 217.125 218.469 217.148C218.461 217.171 218.459 217.195 218.464 217.219C218.468 217.284 218.488 217.346 218.522 217.401C218.556 217.456 218.604 217.501 218.66 217.533C218.986 217.705 219.742 217.57 220.719 217.158C220.061 216.992 219.38 216.938 218.703 216.998Z" fill="#4CAF4F"/>
<path d="M221.088 217.232H221.039C220.424 217.121 219.195 216.414 219.158 215.886C219.158 215.763 219.213 215.59 219.508 215.492C219.608 215.457 219.714 215.442 219.82 215.448C219.925 215.454 220.028 215.482 220.123 215.529C220.787 215.855 221.137 217.035 221.156 217.09C221.16 217.109 221.16 217.128 221.154 217.147C221.149 217.165 221.139 217.181 221.125 217.195C221.116 217.21 221.103 217.222 221.088 217.232ZM219.631 215.677H219.57C219.379 215.744 219.379 215.824 219.379 215.849C219.379 216.168 220.271 216.752 220.891 216.949C220.748 216.455 220.446 216.023 220.031 215.72C219.908 215.657 219.765 215.641 219.631 215.677Z" fill="#4CAF4F"/>
<path d="M212.243 89.0903L205.832 92.0407L205.088 93.8848L207.455 95.4768C207.455 95.4768 211.88 94.9973 213.14 92.1514L212.243 89.0903Z" fill="#E58A7B"/>
<path d="M212.514 92.9197C212.37 91.6879 211.964 90.5014 211.321 89.4407L212.335 88.6785C213.098 89.9006 213.585 91.2747 213.761 92.7046L212.514 92.9197Z" fill="#263238"/>
<path d="M213.608 89.9631C213.743 90.1763 213.81 90.4261 213.798 90.6784C213.787 90.9308 213.698 91.1735 213.544 91.3735C213.389 91.5735 213.177 91.7212 212.936 91.7964C212.695 91.8716 212.436 91.8707 212.196 91.7937C211.955 91.7168 211.744 91.5677 211.591 91.3665C211.439 91.1654 211.351 90.922 211.342 90.6696C211.332 90.4172 211.4 90.1679 211.538 89.9557C211.675 89.7435 211.874 89.5787 212.108 89.4837C212.37 89.3498 212.675 89.3251 212.956 89.4149C213.237 89.5047 213.471 89.7017 213.608 89.9631Z" fill="#263238"/>
<path d="M201.499 94.4257L202.353 95.2862L208.106 92.8275L205.832 92.0407L201.499 94.4257Z" fill="#E58A7B"/>
<path opacity="0.2" d="M226.202 206.776C226.239 206.776 227.075 209.124 227.075 209.124L218.568 212.701L217.228 210.206L226.202 206.776Z" fill="black"/>
<path opacity="0.2" d="M243.591 209.757C243.628 209.757 243.874 212.124 243.874 212.124H234.556L233.892 209.407L243.591 209.757Z" fill="black"/>
<path d="M242.153 64.5463C243.843 69.9985 237.236 77.4545 237.236 77.4545L228.108 73.7296C229.19 70.5783 230.437 67.4863 231.845 64.4664C234.648 58.4242 240.444 59.045 242.153 64.5463Z" fill="#4CAF4F"/>
<path opacity="0.2" d="M242.153 64.5463C243.843 69.9985 237.236 77.4545 237.236 77.4545L228.108 73.7296C229.19 70.5783 230.437 67.4863 231.845 64.4664C234.648 58.4242 240.444 59.045 242.153 64.5463Z" fill="black"/>
<path d="M151.452 9.92017H147.524V10.5533H151.452V9.92017Z" fill="#4CAF4F"/>
<path d="M202.297 34.9783L201.821 45.5277L202.454 45.5562L202.929 35.0068L202.297 34.9783Z" fill="#4CAF4F"/>
<path d="M201.074 12.7599H128.543L121.794 163.798H194.325L201.074 12.7599Z" fill="#4CAF4F"/>
<path opacity="0.56" d="M198.911 14.8376H126.379L119.63 165.876H192.162L198.911 14.8376Z" fill="#FAFAFA"/>
<path opacity="0.07" d="M196.747 16.909H124.215L117.46 167.947H189.992L196.747 16.909Z" fill="#4CAF4F"/>
<path d="M188.492 82.7838H126.582L126.066 94.3396H187.976L188.492 82.7838Z" fill="white"/>
<path d="M160.629 74.3504H126.957L126.729 79.5198H160.401L160.629 74.3504Z" fill="#4CAF4F"/>
<path d="M187.097 113.972H125.187L124.67 125.528H186.58L187.097 113.972Z" fill="white"/>
<path opacity="0.47" d="M175.744 141.135H134.112L133.491 154.983H175.123L175.744 141.135Z" fill="#4CAF4F"/>
<path d="M172.959 157.135H131.327C131.309 157.14 131.29 157.14 131.272 157.135C131.266 157.117 131.266 157.097 131.272 157.08L131.887 143.225C131.887 143.215 131.889 143.206 131.892 143.197C131.896 143.189 131.902 143.181 131.909 143.175C131.916 143.168 131.924 143.163 131.933 143.16C131.942 143.157 131.951 143.156 131.96 143.157H173.592C173.6 143.153 173.608 143.151 173.617 143.151C173.626 143.151 173.634 143.153 173.642 143.157C173.646 143.165 173.648 143.173 173.648 143.182C173.648 143.19 173.646 143.199 173.642 143.206L173.039 157.092C173.032 157.106 173.02 157.118 173.006 157.126C172.992 157.133 172.975 157.137 172.959 157.135ZM131.401 156.987H172.886L173.5 143.28H132.016L131.401 156.987Z" fill="white"/>
<path d="M153.357 105.539H125.562L125.334 110.715H153.124L153.357 105.539Z" fill="#4CAF4F"/>
<path d="M174.951 45.4545C174.792 48.8176 173.596 52.0491 171.527 54.7054C169.996 56.7118 168.025 58.3406 165.766 59.4669C163.507 60.5931 161.02 61.1869 158.496 61.2025C156.456 61.2181 154.435 60.8158 152.557 60.0207C150.678 59.2255 148.983 58.0541 147.574 56.5788C146.165 55.1035 145.074 53.3554 144.367 51.4422C143.659 49.529 143.351 47.4913 143.461 45.4545C143.677 41.228 145.5 37.2438 148.556 34.3165C151.612 31.3893 155.672 29.7402 159.904 29.7066C161.945 29.6875 163.968 30.0873 165.849 30.8811C167.729 31.6749 169.427 32.8459 170.838 34.3218C172.248 35.7977 173.34 37.5471 174.048 39.4619C174.755 41.3767 175.063 43.4163 174.951 45.4545Z" fill="white"/>
<path d="M176.432 33.0012C176.392 33.8955 176.074 34.7549 175.522 35.4599C175.114 35.9928 174.59 36.4254 173.989 36.7248C173.388 37.0241 172.727 37.1823 172.056 37.1872C171.405 37.1911 170.764 37.0357 170.188 36.7347C169.611 36.4336 169.117 35.9959 168.749 35.4599C168.261 34.7356 168.02 33.8735 168.06 33.0012C168.12 31.8791 168.605 30.8219 169.417 30.0452C170.229 29.2685 171.307 28.8308 172.431 28.8214C172.973 28.8165 173.51 28.9226 174.01 29.1332C174.509 29.3438 174.96 29.6545 175.335 30.0461C175.71 30.4377 176.001 30.9019 176.189 31.4101C176.378 31.9184 176.461 32.4599 176.432 33.0012Z" fill="#4CAF4F"/>
<path d="M133.251 88.5617C133.222 89.057 133.005 89.5227 132.646 89.8649C132.287 90.2071 131.811 90.4004 131.315 90.4057C131.075 90.4086 130.838 90.3622 130.617 90.2696C130.396 90.177 130.196 90.04 130.03 89.8672C129.864 89.6944 129.736 89.4893 129.652 89.2648C129.569 89.0402 129.532 88.8009 129.545 88.5617C129.571 88.0653 129.787 87.5979 130.147 87.2552C130.507 86.9124 130.984 86.7201 131.481 86.7176C131.72 86.7157 131.957 86.7626 132.178 86.8556C132.398 86.9485 132.598 87.0855 132.763 87.2581C132.929 87.4308 133.058 87.6354 133.142 87.8596C133.226 88.0837 133.263 88.3226 133.251 88.5617Z" fill="#263238"/>
<path d="M141.537 88.5617C141.509 89.0575 141.293 89.5241 140.934 89.8666C140.574 90.209 140.097 90.4018 139.601 90.4057C139.362 90.4077 139.125 90.3608 138.905 90.2678C138.684 90.1748 138.485 90.0377 138.32 89.8649C138.155 89.6922 138.027 89.4875 137.944 89.2633C137.86 89.0392 137.824 88.8004 137.837 88.5617C137.863 88.0664 138.078 87.5999 138.436 87.2572C138.795 86.9146 139.271 86.7216 139.767 86.7177C140.006 86.7148 140.244 86.7611 140.465 86.8537C140.686 86.9464 140.885 87.0833 141.051 87.2562C141.217 87.429 141.346 87.634 141.43 87.8586C141.513 88.0831 141.55 88.3224 141.537 88.5617Z" fill="#263238"/>
<path d="M149.829 88.5617C149.801 89.0575 149.585 89.5241 149.225 89.8666C148.866 90.209 148.389 90.4018 147.893 90.4057C147.653 90.4077 147.416 90.3607 147.196 90.2678C146.975 90.1749 146.776 90.0379 146.61 89.8652C146.444 89.6926 146.316 89.4879 146.232 89.2638C146.148 89.0396 146.111 88.8007 146.122 88.5617C146.151 88.0659 146.366 87.5993 146.726 87.2568C147.086 86.9143 147.562 86.7215 148.059 86.7177C148.298 86.7148 148.536 86.7611 148.757 86.8537C148.978 86.9464 149.177 87.0833 149.343 87.2562C149.509 87.429 149.638 87.634 149.721 87.8586C149.805 88.0831 149.842 88.3224 149.829 88.5617Z" fill="#263238"/>
<path d="M131.856 119.75C131.826 120.246 131.61 120.711 131.251 121.054C130.892 121.396 130.416 121.589 129.92 121.594C129.68 121.596 129.443 121.549 129.223 121.456C129.002 121.364 128.803 121.227 128.637 121.054C128.471 120.881 128.343 120.677 128.259 120.452C128.175 120.228 128.138 119.989 128.149 119.75C128.178 119.254 128.393 118.788 128.753 118.445C129.113 118.103 129.589 117.91 130.086 117.906C130.325 117.904 130.562 117.951 130.783 118.044C131.003 118.137 131.203 118.274 131.368 118.447C131.534 118.619 131.663 118.824 131.747 119.048C131.83 119.272 131.868 119.511 131.856 119.75Z" fill="#263238"/>
<path d="M140.142 119.75C140.114 120.245 139.899 120.711 139.54 121.053C139.182 121.395 138.707 121.589 138.212 121.594C137.972 121.597 137.734 121.551 137.514 121.458C137.293 121.366 137.093 121.229 136.927 121.056C136.761 120.883 136.632 120.678 136.549 120.453C136.465 120.229 136.429 119.99 136.441 119.75C136.469 119.254 136.685 118.788 137.045 118.445C137.405 118.103 137.881 117.91 138.378 117.906C138.617 117.904 138.854 117.951 139.074 118.044C139.294 118.137 139.493 118.274 139.658 118.447C139.823 118.62 139.952 118.825 140.035 119.049C140.118 119.273 140.154 119.512 140.142 119.75Z" fill="#263238"/>
<path d="M148.452 119.75C148.424 120.246 148.208 120.713 147.849 121.055C147.489 121.398 147.012 121.59 146.516 121.594C146.277 121.595 146.04 121.548 145.82 121.455C145.6 121.361 145.401 121.224 145.235 121.052C145.07 120.879 144.941 120.675 144.857 120.451C144.773 120.228 144.735 119.989 144.746 119.75C144.775 119.255 144.991 118.789 145.351 118.447C145.71 118.105 146.186 117.912 146.682 117.906C146.921 117.903 147.159 117.95 147.38 118.042C147.601 118.135 147.801 118.272 147.966 118.445C148.132 118.618 148.261 118.823 148.345 119.047C148.428 119.272 148.465 119.511 148.452 119.75Z" fill="#263238"/>
<path d="M156.726 119.75C156.696 120.246 156.48 120.711 156.121 121.054C155.761 121.396 155.286 121.589 154.789 121.594C154.55 121.595 154.314 121.548 154.093 121.455C153.873 121.361 153.674 121.224 153.509 121.052C153.343 120.879 153.215 120.675 153.13 120.451C153.046 120.228 153.008 119.989 153.019 119.75C153.049 119.255 153.265 118.789 153.624 118.447C153.984 118.105 154.459 117.912 154.955 117.906C155.195 117.904 155.432 117.951 155.652 118.044C155.873 118.137 156.072 118.274 156.238 118.447C156.404 118.619 156.532 118.824 156.616 119.048C156.7 119.272 156.737 119.511 156.726 119.75Z" fill="#263238"/>
<path d="M165.048 119.75C165.019 120.246 164.803 120.711 164.443 121.054C164.084 121.396 163.608 121.589 163.112 121.594C162.873 121.597 162.635 121.551 162.414 121.458C162.193 121.366 161.993 121.229 161.828 121.056C161.662 120.883 161.533 120.678 161.449 120.453C161.366 120.229 161.329 119.99 161.342 119.75C161.37 119.254 161.586 118.788 161.945 118.445C162.305 118.103 162.782 117.91 163.278 117.906C163.517 117.904 163.755 117.951 163.975 118.044C164.196 118.137 164.395 118.274 164.561 118.447C164.726 118.619 164.855 118.824 164.939 119.048C165.023 119.272 165.06 119.511 165.048 119.75Z" fill="#263238"/>
<path d="M163.79 44.6343C166.363 42.1184 166.5 38.0857 164.095 35.6271C161.691 33.1684 157.656 33.2148 155.083 35.7307C152.511 38.2466 152.374 42.2793 154.779 44.7379C157.183 47.1966 161.218 47.1502 163.79 44.6343Z" fill="#4CAF4F"/>
<path d="M171.527 54.7054C169.996 56.7118 168.025 58.3406 165.766 59.4668C163.507 60.5931 161.02 61.1868 158.496 61.2025C156.048 61.2232 153.633 60.6414 151.464 59.5084C149.294 58.3753 147.437 56.7258 146.055 54.7054C149.042 51.7303 153.769 49.788 159.006 49.788C164.243 49.788 168.804 51.7303 171.527 54.7054Z" fill="#4CAF4F"/>
<path opacity="0.1" d="M163.79 44.6343C166.363 42.1184 166.5 38.0857 164.095 35.6271C161.691 33.1684 157.656 33.2148 155.083 35.7307C152.511 38.2466 152.374 42.2793 154.779 44.7379C157.183 47.1966 161.218 47.1502 163.79 44.6343Z" fill="white"/>
<path opacity="0.1" d="M171.527 54.7054C169.996 56.7118 168.025 58.3406 165.766 59.4668C163.507 60.5931 161.02 61.1868 158.496 61.2025C156.048 61.2232 153.633 60.6414 151.464 59.5084C149.294 58.3753 147.437 56.7258 146.055 54.7054C149.042 51.7303 153.769 49.788 159.006 49.788C164.243 49.788 168.804 51.7303 171.527 54.7054Z" fill="white"/>
<path d="M81.0898 97.1241C80.5059 98.4026 79.8912 99.8102 79.3564 101.175C78.8216 102.539 78.2746 103.947 77.8013 105.348C76.8349 108.11 76.0989 110.948 75.6008 113.831L75.4655 114.735C75.4526 114.89 75.4672 115.046 75.5085 115.196C75.6536 115.705 75.8821 116.187 76.1847 116.622C76.9741 117.747 77.8898 118.778 78.9138 119.695C79.9936 120.699 81.1262 121.645 82.3069 122.529C83.487 123.438 84.7287 124.323 85.9519 125.159L84.8024 127.317C81.8816 126.044 79.1093 124.455 76.5351 122.578C75.1617 121.576 73.9223 120.403 72.847 119.086C72.2096 118.303 71.7126 117.415 71.3779 116.462C71.1833 115.866 71.0838 115.244 71.0829 114.618C71.0829 114.47 71.0829 114.255 71.0829 114.151V113.849L71.1444 113.235C71.4967 110.032 72.1701 106.873 73.1543 103.806C73.6338 102.294 74.144 100.788 74.7279 99.3185C75.3119 97.8494 75.9142 96.4111 76.658 94.9174L81.0898 97.1241Z" fill="#E58A7B"/>
<path d="M85.0852 124.778L89.4309 122.578L88.3061 127.348C88.3061 127.348 85.3249 128.184 83.9419 126.733L85.0852 124.778Z" fill="#E58A7B"/>
<path d="M93.408 123.358L92.2524 127.305L88.3062 127.348L89.431 122.578L93.408 123.358Z" fill="#E58A7B"/>
<path d="M99.5423 74.1107C99.7748 74.9625 100.098 75.7869 100.507 76.5694C100.388 76.7049 100.234 76.8056 100.062 76.8608C99.8898 76.916 99.7061 76.9236 99.53 76.8829L99.5423 74.1107Z" fill="#DF5753"/>
<path d="M99.4133 74.1475C99.6679 74.1475 99.8743 73.8311 99.8743 73.4407C99.8743 73.0503 99.6679 72.7338 99.4133 72.7338C99.1587 72.7338 98.9523 73.0503 98.9523 73.4407C98.9523 73.8311 99.1587 74.1475 99.4133 74.1475Z" fill="#263238"/>
<path d="M99.2781 72.7584L100.212 72.4941C100.212 72.4941 99.7575 73.2194 99.2781 72.7584Z" fill="#263238"/>
<path d="M87.5377 78.6224C88.0971 81.4806 88.6564 86.7238 86.6526 88.6354C86.6526 88.6354 87.4394 91.5367 92.7563 91.5367C98.6019 91.5367 95.5469 88.6354 95.5469 88.6354C92.3568 87.8732 92.4367 85.5067 92.996 83.2816L87.5377 78.6224Z" fill="#E58A7B"/>
<path d="M85.9826 72.1068C86.2777 76.8829 86.3023 78.9113 88.7118 81.3638C92.3445 85.0519 98.147 83.6504 99.2842 78.9051C100.311 74.6024 99.6592 67.5214 94.9815 65.622C93.9547 65.199 92.837 65.045 91.7341 65.1744C90.6312 65.3039 89.5795 65.7125 88.6786 66.3618C87.7776 67.011 87.0572 67.8793 86.5855 68.8846C86.1137 69.8899 85.9062 70.999 85.9826 72.1068Z" fill="#E58A7B"/>
<path d="M86.456 66.7346C84.0587 67.6074 80.8624 66.9559 82.1163 74.3504C83.444 82.1814 81.4033 84.7569 81.4033 84.7569C81.4033 84.7569 90.4944 86.6931 99.776 84.6401C99.776 84.6401 96.9423 79.6858 97.7352 76.0346C98.7495 71.4246 97.9504 69.7219 97.9504 69.7219C97.9504 69.7219 89.8244 65.5052 86.456 66.7346Z" fill="#263238"/>
<path d="M96.598 74.5963C96.6005 75.5044 96.8606 76.3932 97.3479 77.1595C97.9995 78.1552 98.7678 77.7741 98.9584 76.7169C99.1305 75.7887 99.0014 74.1476 98.1716 73.5083C97.3418 72.869 96.6103 73.496 96.598 74.5963Z" fill="#E58A7B"/>
<path d="M84.3722 67.5398C83.6838 65.6036 86.9661 62.6224 93.9119 63.8518C100.858 65.0811 101.159 70.8652 101.159 70.8652L99.7575 69.1933L99.819 70.9513L92.6826 72.322L84.3722 67.5398Z" fill="#263238"/>
<path d="M84.9622 88.9612C84.9212 88.6806 84.9915 88.395 85.1579 88.1654C85.3244 87.9357 85.574 87.7802 85.8535 87.7319C88.0172 87.3754 92.9346 86.6501 95.4056 86.9943C97.2496 87.2524 97.729 88.322 97.8089 89.201C97.8215 89.3549 97.8009 89.5097 97.7486 89.655C97.6963 89.8003 97.6135 89.9327 97.5058 90.0433C97.398 90.1539 97.2679 90.2402 97.124 90.2964C96.9802 90.3525 96.826 90.3772 96.6718 90.3688L85.9887 89.8894C85.7369 89.8767 85.4972 89.7773 85.3101 89.6082C85.1231 89.4391 85.0002 89.2105 84.9622 88.9612Z" fill="#4CAF4F"/>
<path opacity="0.6" d="M84.9622 88.9612C84.9212 88.6806 84.9915 88.395 85.1579 88.1654C85.3244 87.9357 85.574 87.7802 85.8535 87.7319C88.0172 87.3754 92.9346 86.6501 95.4056 86.9943C97.2496 87.2524 97.729 88.322 97.8089 89.201C97.8215 89.3549 97.8009 89.5097 97.7486 89.655C97.6963 89.8003 97.6135 89.9327 97.5058 90.0433C97.398 90.1539 97.2679 90.2402 97.124 90.2964C96.9802 90.3525 96.826 90.3772 96.6718 90.3688L85.9887 89.8894C85.7369 89.8767 85.4972 89.7773 85.3101 89.6082C85.1231 89.4391 85.0002 89.2105 84.9622 88.9612Z" fill="black"/>
<path d="M91.1398 196.345L95.1044 199.099L101.737 190.106L97.7721 187.358L91.1398 196.345Z" fill="#E58A7B"/>
<path d="M81.895 196.167L86.081 198.552L91.9511 189.043L87.7652 186.658L81.895 196.167Z" fill="#E58A7B"/>
<path d="M101.731 190.106L98.313 194.741L94.3484 191.993L97.766 187.358L101.731 190.106Z" fill="#CF6F64"/>
<path d="M87.7591 186.658L91.9512 189.049L88.927 193.948L84.7349 191.557L87.7591 186.658Z" fill="#CF6F64"/>
<path d="M94.4837 118.982C94.4837 118.982 109.961 138.486 107.054 157.141C104.712 172.207 91.1275 192.608 91.1275 192.608L84.7411 189.436C89.2426 180.416 93.0842 171.081 96.2355 161.505C97.2073 158.532 97.4909 155.377 97.065 152.279C96.639 149.18 95.5147 146.219 93.7768 143.618C85.9335 132.167 73.3696 138.983 81.8213 118.982H94.4837Z" fill="#4CAF4F"/>
<path opacity="0.6" d="M94.4837 118.982C94.4837 118.982 109.961 138.486 107.054 157.141C104.712 172.207 91.1275 192.608 91.1275 192.608L84.7411 189.436C89.2426 180.416 93.0842 171.081 96.2355 161.505C97.2073 158.532 97.4909 155.377 97.065 152.279C96.639 149.18 95.5147 146.219 93.7768 143.618C85.9335 132.167 73.3696 138.983 81.8213 118.982H94.4837Z" fill="black"/>
<path opacity="0.4" d="M102.075 131.509L99.8251 129.272C99.8251 129.45 104.183 156.354 105.406 163.915C106.128 161.706 106.681 159.446 107.06 157.153C108.498 148.001 105.492 138.652 102.075 131.509Z" fill="black"/>
<path d="M101.393 118.982C101.393 118.982 120.029 143.495 120.558 158.192C120.995 170.486 100.274 194.304 100.274 194.304L94.25 190.407C94.25 190.407 106.378 173.491 109.432 159.673C108.252 145.979 83.2965 118.982 83.2965 118.982H101.393Z" fill="#4CAF4F"/>
<path opacity="0.6" d="M101.393 118.982C101.393 118.982 120.029 143.495 120.558 158.192C120.995 170.486 100.274 194.304 100.274 194.304L94.25 190.407C94.25 190.407 106.378 173.491 109.432 159.673C108.252 145.979 83.2965 118.982 83.2965 118.982H101.393Z" fill="black"/>
<path d="M78.336 89.7296C76.3445 90.2029 74.4329 97.4437 74.4329 97.4437L82.2208 102.644C82.2208 102.644 84.8147 96.9151 83.905 94.4072C82.9646 91.7949 80.8378 89.1333 78.336 89.7296Z" fill="#4CAF4F"/>
<path opacity="0.2" d="M79.8605 94.395L79.3196 100.708L82.2147 102.65C83.0141 100.85 83.6059 98.9655 83.9788 97.0319L79.8605 94.395Z" fill="black"/>
<path d="M103.698 89.8709C103.698 89.8709 105.996 90.6762 101.393 118.976H81.809C82.1409 110.985 82.147 106.068 78.3361 89.7296C81.0782 89.1645 83.8576 88.7988 86.6526 88.6354C89.6136 88.4231 92.586 88.4231 95.547 88.6354C99.3702 88.9858 103.698 89.8709 103.698 89.8709Z" fill="#4CAF4F"/>
<path d="M105.689 94.3949C106.132 95.6243 106.599 96.9458 107.091 98.2182C107.582 99.4906 108.049 100.8 108.547 102.091L110.053 105.951L110.434 106.916L110.631 107.395L110.723 107.635C110.723 107.678 110.723 107.678 110.723 107.672C110.611 107.514 110.464 107.383 110.293 107.291C110.05 107.148 109.776 107.065 109.494 107.051C109.26 107.044 109.027 107.088 108.812 107.18C108.529 107.309 108.529 107.365 108.535 107.358C108.586 107.317 108.632 107.27 108.67 107.217C109.011 106.77 109.305 106.291 109.549 105.785C109.838 105.219 110.115 104.617 110.391 104.008C110.932 102.779 111.43 101.507 111.928 100.222C112.426 98.9374 112.899 97.6404 113.36 96.3312L114.762 92.4095L117.128 93.0242C116.661 95.8271 116.059 98.5563 115.333 101.335C114.983 102.718 114.571 104.088 114.104 105.471C113.87 106.166 113.612 106.854 113.317 107.561C113.01 108.328 112.631 109.065 112.186 109.762C112.023 109.996 111.842 110.218 111.645 110.426C111.331 110.765 110.95 111.035 110.527 111.219C110.151 111.38 109.743 111.456 109.334 111.44C108.876 111.423 108.43 111.29 108.037 111.053C107.574 110.764 107.19 110.365 106.918 109.891C106.826 109.731 106.746 109.571 106.691 109.454L106.574 109.221L106.341 108.741L105.874 107.789C105.259 106.51 104.644 105.219 104.109 103.922C103.575 102.625 103.009 101.31 102.481 99.9885C101.952 98.6669 101.479 97.3454 101.03 95.9193L105.689 94.3949Z" fill="#E58A7B"/>
<path d="M103.698 89.8709C106.052 90.4303 108.701 97.3884 108.701 97.3884L101.7 103.345C101.7 103.345 97.1698 95.7595 98.0856 93.2578C99.0384 90.6516 100.624 89.1395 103.698 89.8709Z" fill="#4CAF4F"/>
<path d="M115.874 90.209L118.333 88.156L120.042 90.8175L118.782 93.0365C118.782 93.0365 116.778 94.8805 115.008 93.9401C114.727 93.3085 114.659 92.6026 114.816 91.9293C114.972 91.256 115.344 90.652 115.874 90.209Z" fill="#E58A7B"/>
<path d="M122.771 88.1621L122.587 88.8321L118.696 89.4837L118.315 88.156L122.771 88.1621Z" fill="#E58A7B"/>
<path d="M100.753 194.618L93.7336 190.081L94.9937 187.893L102.88 192.743L100.753 194.618Z" fill="#4CAF4F"/>
<path d="M88.8285 198.232C88.2126 198.157 87.6209 197.947 87.0951 197.617C87.0735 197.61 87.0546 197.596 87.0413 197.577C87.028 197.558 87.0209 197.536 87.0209 197.513C87.0209 197.49 87.028 197.467 87.0413 197.449C87.0546 197.43 87.0735 197.416 87.0951 197.408C87.2857 197.347 88.9392 196.837 89.4186 197.23C89.4725 197.275 89.5135 197.333 89.5372 197.399C89.561 197.465 89.5667 197.536 89.5538 197.605C89.5453 197.716 89.5086 197.822 89.4473 197.915C89.386 198.007 89.3021 198.083 89.2035 198.134C89.0884 198.197 88.9597 198.23 88.8285 198.232ZM87.4455 197.556C88.2139 197.949 88.8285 198.091 89.1236 197.943C89.1878 197.908 89.2419 197.856 89.2806 197.794C89.3194 197.731 89.3415 197.66 89.3449 197.587C89.3449 197.488 89.3449 197.445 89.2895 197.421C89.0314 197.212 88.1094 197.371 87.4332 197.556H87.4455Z" fill="#263238"/>
<path d="M87.1382 197.66C87.1058 197.66 87.0748 197.647 87.0521 197.624C87.043 197.607 87.0382 197.588 87.0382 197.568C87.0382 197.549 87.043 197.53 87.0521 197.513C87.0521 197.458 87.4517 196.124 88.0787 195.823C88.1587 195.786 88.2457 195.767 88.3337 195.767C88.4218 195.767 88.5088 195.786 88.5888 195.823C88.6752 195.85 88.7499 195.905 88.8011 195.98C88.8523 196.054 88.8772 196.144 88.8716 196.234C88.8286 196.788 87.7037 197.55 87.1874 197.679L87.1382 197.66ZM88.3307 195.982C88.2709 195.984 88.2122 195.999 88.1586 196.025C87.7775 196.21 87.464 196.929 87.3103 197.365C87.8512 197.138 88.595 196.536 88.6196 196.197C88.6196 196.142 88.6196 196.075 88.4782 196.013C88.4322 195.988 88.3823 195.972 88.3307 195.964V195.982Z" fill="#263238"/>
<path d="M97.6 200.887C96.9054 200.887 95.9404 199.996 95.4118 199.449C95.3983 199.43 95.391 199.408 95.391 199.385C95.391 199.361 95.3983 199.339 95.4118 199.32C95.4239 199.3 95.4412 199.284 95.4617 199.273C95.4823 199.262 95.5054 199.257 95.5285 199.259C95.7744 199.259 97.9073 199.578 98.2085 200.181C98.2404 200.235 98.2573 200.296 98.2573 200.359C98.2573 200.422 98.2404 200.483 98.2085 200.537C98.1634 200.631 98.0951 200.712 98.0102 200.772C97.9252 200.832 97.8264 200.87 97.7229 200.881L97.6 200.887ZM95.8174 199.535C96.5919 200.285 97.2742 200.703 97.6615 200.654C97.7293 200.645 97.7939 200.62 97.8496 200.58C97.9054 200.54 97.9505 200.488 97.9811 200.426C97.9949 200.405 98.0022 200.381 98.0022 200.356C98.0022 200.331 97.9949 200.306 97.9811 200.285C97.8213 199.953 96.6841 199.67 95.8174 199.535Z" fill="#263238"/>
<path d="M95.885 199.504C95.7471 199.508 95.609 199.498 95.4732 199.474C95.4542 199.471 95.4363 199.463 95.4212 199.451C95.4061 199.439 95.3944 199.424 95.3871 199.406C95.378 199.388 95.3732 199.368 95.3732 199.348C95.3732 199.327 95.378 199.307 95.3871 199.289C95.424 199.246 96.2538 198.244 97.0406 198.177C97.2633 198.159 97.484 198.23 97.6553 198.373C97.895 198.582 97.8827 198.767 97.8213 198.884C97.6676 199.302 96.6042 199.504 95.885 199.504ZM95.7252 199.277C96.4136 199.314 97.5139 199.086 97.6553 198.785C97.6553 198.785 97.7045 198.687 97.5446 198.552C97.481 198.496 97.4068 198.455 97.3264 198.429C97.246 198.404 97.1613 198.395 97.0775 198.404C96.5475 198.552 96.0756 198.859 95.7252 199.283V199.277Z" fill="#263238"/>
<path d="M87.3042 196.997L82.0917 195.521C82.0019 195.494 81.9052 195.501 81.8201 195.541C81.735 195.58 81.6676 195.65 81.6307 195.736L79.8728 199.689C79.8315 199.79 79.8121 199.899 79.8159 200.008C79.8197 200.117 79.8466 200.225 79.8947 200.323C79.9429 200.421 80.0114 200.508 80.0955 200.577C80.1796 200.647 80.2776 200.698 80.383 200.728C82.227 201.207 83.1121 201.342 85.4048 202C86.8186 202.393 88.8347 203.125 90.7833 203.678C92.7318 204.231 93.3833 202.332 92.6273 201.926C89.2097 200.119 88.9392 198.853 88.0049 197.501C87.8376 197.256 87.5896 197.077 87.3042 196.997Z" fill="#4CAF4F"/>
<path d="M95.5532 198.73L91.1029 195.657C91.0275 195.602 90.9345 195.576 90.8416 195.585C90.7487 195.594 90.6623 195.637 90.5989 195.706L87.6485 198.877C87.5766 198.959 87.5229 199.056 87.4911 199.16C87.4594 199.264 87.4501 199.374 87.4641 199.482C87.478 199.591 87.5148 199.694 87.5721 199.787C87.6293 199.88 87.7056 199.96 87.796 200.021C89.3634 201.072 90.1748 201.496 92.1356 202.854C93.3649 203.69 95.7437 205.547 97.4033 206.702C99.063 207.858 100.298 206.272 99.7084 205.645C97.0653 202.824 96.4875 201.053 96.0511 199.449C95.9753 199.158 95.7989 198.903 95.5532 198.73Z" fill="#4CAF4F"/>
<path d="M91.945 193.013L83.9235 189.024L84.7533 186.848L93.3218 191.053L91.945 193.013Z" fill="#4CAF4F"/>
<path d="M81.5139 117.826L80.8378 119.597C80.7702 119.732 80.93 119.873 81.1574 119.873H101.491C101.669 119.873 101.817 119.787 101.829 119.677L102.001 117.919C102.001 117.802 101.86 117.697 101.669 117.697H81.8336C81.7738 117.692 81.7137 117.7 81.658 117.723C81.6024 117.745 81.553 117.781 81.5139 117.826Z" fill="#4CAF4F"/>
<path opacity="0.4" d="M81.5139 117.826L80.8378 119.597C80.7702 119.732 80.93 119.873 81.1574 119.873H101.491C101.669 119.873 101.817 119.787 101.829 119.677L102.001 117.919C102.001 117.802 101.86 117.697 101.669 117.697H81.8336C81.7738 117.692 81.7137 117.7 81.658 117.723C81.6024 117.745 81.553 117.781 81.5139 117.826Z" fill="white"/>
<path d="M84.7164 120.045H84.1816C84.0772 120.045 83.9972 119.99 84.0034 119.922L84.2554 117.642C84.2554 117.58 84.3538 117.525 84.4582 117.525H84.993C85.0975 117.525 85.1774 117.58 85.1713 117.642L84.9193 119.922C84.9131 119.99 84.8209 120.045 84.7164 120.045Z" fill="#4CAF4F"/>
<path d="M97.2558 120.045H96.7272C96.6227 120.045 96.5428 119.99 96.5489 119.922L96.7948 117.642C96.7948 117.58 96.8993 117.525 97.0038 117.525H97.5324C97.6369 117.525 97.7229 117.58 97.7107 117.642L97.4648 119.922C97.4341 119.99 97.3664 120.045 97.2558 120.045Z" fill="#4CAF4F"/>
<g style="mix-blend-mode:multiply">
<path d="M84.2493 224.141C93.3438 224.141 100.716 223.607 100.716 222.948C100.716 222.29 93.3438 221.756 84.2493 221.756C75.1547 221.756 67.7821 222.29 67.7821 222.948C67.7821 223.607 75.1547 224.141 84.2493 224.141Z" fill="#F5F5F5"/>
</g>
<path d="M94.2808 221.264C91.3672 220.416 88.134 219.328 86.1793 218.191C86.124 218.154 86.0626 218.135 86.0072 218.104V204.914H91.902C92.3494 204.887 92.7699 204.691 93.0773 204.364C93.3848 204.038 93.556 203.607 93.556 203.159C93.556 202.71 93.3848 202.279 93.0773 201.953C92.7699 201.627 92.3494 201.43 91.902 201.404H86.038V141.276H82.4974V201.404H76.6396C76.4004 201.39 76.1608 201.424 75.9356 201.506C75.7104 201.588 75.5043 201.715 75.3299 201.879C75.1555 202.044 75.0166 202.242 74.9216 202.462C74.8267 202.682 74.7777 202.919 74.7777 203.159C74.7777 203.398 74.8267 203.635 74.9216 203.855C75.0166 204.075 75.1555 204.274 75.3299 204.438C75.5043 204.602 75.7104 204.729 75.9356 204.811C76.1608 204.893 76.4004 204.928 76.6396 204.914H82.4974V218.086C82.4421 218.086 82.3868 218.135 82.3315 218.172C80.3461 219.328 77.1375 220.416 74.2239 221.245C74.0271 221.305 73.8581 221.433 73.7475 221.606C73.6369 221.78 73.592 221.987 73.621 222.19C73.65 222.394 73.7509 222.58 73.9055 222.716C74.06 222.852 74.258 222.927 74.4636 222.93H94.041C94.2375 222.916 94.4235 222.836 94.5678 222.702C94.7122 222.568 94.8062 222.389 94.8343 222.194C94.8624 221.999 94.8227 221.8 94.722 221.631C94.6212 221.462 94.4655 221.332 94.2808 221.264Z" fill="#E0E0E0"/>
<path d="M95.1843 135.154H73.3265C71.568 135.154 70.1425 136.58 70.1425 138.338V144.835C70.1425 146.594 71.568 148.019 73.3265 148.019H95.1843C96.9428 148.019 98.3683 146.594 98.3683 144.835V138.338C98.3683 136.58 96.9428 135.154 95.1843 135.154Z" fill="#4CAF4F"/>
<path d="M73.1237 148.025V149.144C73.1237 150.066 74.1256 150.816 75.3549 150.816H93.1805C94.4099 150.816 95.4118 150.066 95.4118 149.144V148.025H73.1237Z" fill="#4CAF4F"/>
<path opacity="0.3" d="M73.1237 148.025V149.144C73.1237 150.066 74.1256 150.816 75.3549 150.816H93.1805C94.4099 150.816 95.4118 150.066 95.4118 149.144V148.025H73.1237Z" fill="white"/>
</svg>
