<svg width="34" height="22" viewBox="0 0 34 22" fill="none" xmlns="http://www.w3.org/2000/svg">
<path d="M20.5415 3.04218L20.5415 3.0422C21.0311 2.90251 21.5379 2.83212 22.0471 2.83308M20.5415 3.04218L30.1644 20.97L30.4489 20.7695C30.4488 20.7694 30.4487 20.7693 30.4486 20.7691C29.4995 19.4228 28.2412 18.3238 26.7793 17.5647C25.3172 16.8054 23.6943 16.4082 22.0469 16.4064H22.0465C21.7234 16.4064 21.4136 16.2781 21.1851 16.0497C20.9567 15.8212 20.8284 15.5114 20.8284 15.1883C20.8284 14.8652 20.9567 14.5554 21.1851 14.327C21.4136 14.0985 21.7234 13.9702 22.0465 13.9702C23.5234 13.9702 24.9397 13.3835 25.984 12.3392C27.0284 11.2949 27.615 9.87851 27.615 8.40164C27.615 6.92476 27.0284 5.50838 25.984 4.46407C24.9399 3.41992 23.5238 2.83325 22.0471 2.83308M20.5415 3.04218L20.5375 3.04337M20.5415 3.04218L20.5375 3.04337M22.0471 2.83308L22.0465 3.18061V2.83308C22.0467 2.83308 22.0469 2.83308 22.0471 2.83308ZM20.5375 3.04337C20.3826 3.08955 20.2202 3.10447 20.0595 3.08727C19.8989 3.07006 19.7433 3.02106 19.6017 2.94314C19.4602 2.86521 19.3356 2.75991 19.2352 2.63336C19.1347 2.50681 19.0604 2.36154 19.0167 2.20602C18.9729 2.05049 18.9605 1.88782 18.9802 1.72746C19 1.56711 19.0514 1.41227 19.1315 1.27197C19.2116 1.13168 19.3188 1.00872 19.4469 0.910266C19.575 0.81181 19.7215 0.73982 19.8776 0.698487L19.8777 0.698546M20.5375 3.04337L19.8777 0.698546M19.8777 0.698546L19.8839 0.696768M19.8777 0.698546L19.8839 0.696768M19.8839 0.696768C20.5871 0.496575 21.3148 0.395622 22.0459 0.39684L22.0475 0.396836M19.8839 0.696768L22.0475 0.396836M22.0475 0.396836C23.6904 0.392065 25.2948 0.893726 26.6423 1.83352C27.9898 2.77331 29.015 4.10556 29.5782 5.64888C30.1414 7.19221 30.2153 8.8716 29.7897 10.4584C29.3642 12.0452 28.46 13.4624 27.2002 14.5168L26.7754 14.8724M22.0475 0.396836L26.7754 14.8724M26.7754 14.8724L27.2801 15.1008M26.7754 14.8724L27.2801 15.1008M27.2801 15.1008C29.3497 16.0374 31.1307 17.5113 32.4378 19.3692L32.4393 19.3714M27.2801 15.1008L32.4393 19.3714M32.4393 19.3714C32.5322 19.5013 32.5983 19.6484 32.6339 19.8041C32.6694 19.9598 32.6736 20.121 32.6463 20.2784C32.619 20.4357 32.5606 20.5861 32.4747 20.7207C32.3888 20.8553 32.2769 20.9715 32.1456 21.0625L32.1456 21.0625M32.4393 19.3714L32.1456 21.0625M32.1456 21.0625L32.1416 21.0654M32.1456 21.0625L32.1416 21.0654M32.1416 21.0654C31.9384 21.2106 31.6948 21.2883 31.445 21.2876L32.1416 21.0654ZM16.5628 14.5174L16.14 14.873L16.6433 15.1008C18.7129 16.0374 20.4939 17.5113 21.801 19.3692L21.806 19.3763L21.8113 19.3831C21.9128 19.5132 21.9869 19.6626 22.0289 19.8221C22.071 19.9817 22.0802 20.1482 22.056 20.3114C22.0318 20.4746 21.9746 20.6312 21.8881 20.7717C21.8015 20.9122 21.6873 21.0336 21.5523 21.1286C21.4174 21.2236 21.2646 21.2902 21.1031 21.3244C20.9417 21.3585 20.775 21.3595 20.6131 21.3273C20.4513 21.2951 20.2977 21.2303 20.1616 21.1369C20.0256 21.0435 19.9099 20.9234 19.8217 20.7839L19.8172 20.7769L19.8124 20.7701C18.8653 19.421 17.6072 18.3199 16.1447 17.5597C14.6821 16.7995 13.058 16.4027 11.4097 16.4027C9.76134 16.4027 8.13725 16.7995 6.67468 17.5597C5.21212 18.3199 3.95408 19.421 3.00692 20.7701L3.00614 20.7712C2.8948 20.9311 2.74634 21.0616 2.5735 21.1515C2.40065 21.2415 2.20858 21.2882 2.01373 21.2876L2.0116 21.2876C1.7617 21.2884 1.51787 21.2107 1.31457 21.0654L1.3129 21.0642C1.04939 20.8782 0.870407 20.5952 0.815221 20.2775C0.760042 19.9597 0.833126 19.633 1.01845 19.3691C2.32554 17.5112 4.10645 16.0374 6.17602 15.1008L6.67933 14.873L6.25658 14.5174C5.00015 13.4604 4.09913 12.0427 3.67568 10.4563C3.25222 8.87 3.32681 7.19182 3.88934 5.64931C4.45187 4.10679 5.47512 2.77457 6.82036 1.83325C8.16561 0.891922 9.76778 0.387036 11.4097 0.387036C13.0516 0.387036 14.6537 0.891922 15.999 1.83325C17.3442 2.77457 18.3675 4.10679 18.93 5.64931C19.4925 7.19182 19.5671 8.87 19.1437 10.4563C18.7202 12.0427 17.8192 13.4604 16.5628 14.5174ZM6.77958 5.30791C6.1677 6.22366 5.84111 7.30028 5.84111 8.40164C5.84111 9.87851 6.4278 11.2949 7.4721 12.3392C8.51641 13.3835 9.93279 13.9702 11.4097 13.9702C12.511 13.9702 13.5876 13.6436 14.5034 13.0317C15.4191 12.4198 16.1329 11.5502 16.5543 10.5326C16.9758 9.51511 17.0861 8.39546 16.8712 7.31527C16.6564 6.23507 16.126 5.24285 15.3472 4.46407C14.5685 3.6853 13.5762 3.15494 12.496 2.94008C11.4158 2.72521 10.2962 2.83549 9.27867 3.25696C8.26115 3.67843 7.39146 4.39217 6.77958 5.30791Z" fill="#4CAF4F" stroke="#4CAF4F" stroke-width="0.696069"/>
</svg>
